
<svg xmlns="http://www.w3.org/2000/svg" width="756.926" height="165.791" viewBox="0 0 756.926 165.791">
  <g id="Grupo_27813" data-name="Grupo 27813" transform="translate(-111.444 -136.28)">
    <path id="Trazado_108410" data-name="Trazado 108410" d="M927.131,398.168a2.56,2.56,0,0,0,.144-.327.159.159,0,0,1,.144-.087l5.1,0q1-.005.26.668l-3.607,3.289a.484.484,0,0,1-.322.125l-3.174.014q-.875.005-.409-.736Q926.2,399.62,927.131,398.168Z" transform="translate(-422.377 -135.731)" fill="#fff"/>
    <path id="Trazado_108411" data-name="Trazado 108411" d="M1254.544,426.568c-5.093-4.448-2.765-11.772,3.631-13.282a26.018,26.018,0,0,1,9.272-.236.481.481,0,0,1,.423.476v1.991a.479.479,0,0,1-.447.481,60.375,60.375,0,0,1-6.045.1c-4.953-.159-9.209,4.7-4.049,8.517q3.6,2.664,8.954,6.189a8.382,8.382,0,0,1,3.746,9c-1.88,7.026-11.262,5.7-16.951,5.636a.483.483,0,0,1-.476-.481V442.8a.481.481,0,0,1,.481-.481q4.29.009,8.531,0c5.141,0,7.555-5.165,2.909-8.526C1261.257,431.425,1257.559,429.2,1254.544,426.568Z" transform="translate(-591.952 -143.52)" fill="#fff"/>
    <path id="Trazado_108412" data-name="Trazado 108412" d="M1640.725,442.432c3.982-.159,10.729.981,13.345-2.505,1.462-1.948,0-4.968-1.688-6.112-3.525-2.395-8.344-5.04-11.133-8.218-4.107-4.689-1.087-11,4.593-12.306a25.729,25.729,0,0,1,9.291-.2.481.481,0,0,1,.418.5l-.12,2.058a.481.481,0,0,1-.49.452c-3.183-.053-8.411-.606-10.955,1.7-2.895,2.63-.947,5.448,1.755,7.372q3.982,2.833,8.021,5.574c7.069,4.785,4.694,14.355-4.088,14.634q-4.477.144-8.945.029a.481.481,0,0,1-.466-.481v-2.025A.481.481,0,0,1,1640.725,442.432Z" transform="translate(-793.149 -143.528)" fill="#fff"/>
    <path id="Trazado_108413" data-name="Trazado 108413" d="M411.78,445.59c-4.506-.606-6.016-5.1-6.026-9q-.019-6.31-.024-12.628a17.778,17.778,0,0,1,.717-6.093c2.005-4.809,6.391-4.636,10.96-4.482a7.631,7.631,0,0,1,6.631,3.761.478.478,0,0,1-.154.659c-.014.009-.028.017-.043.024l-2.111,1.039a.483.483,0,0,1-.616-.168,4.774,4.774,0,0,0-3.8-2.212c-3.813-.327-8.238.087-8.42,5.011q-.1,2.842-.024,13.513a14.155,14.155,0,0,0,.553,4.756c1.7,3.813,9.291,3.958,11.652.736a.481.481,0,0,1,.6-.149l2.077,1a.478.478,0,0,1,.225.638.49.49,0,0,1-.027.05C421.263,446.3,416.156,446.187,411.78,445.59Z" transform="translate(-152.766 -143.821)" fill="#fff"/>
    <path id="Trazado_108414" data-name="Trazado 108414" d="M486.14,437.983a7.738,7.738,0,0,1-7.738,7.738h-2.9a7.738,7.738,0,0,1-7.738-7.738V421.008a7.738,7.738,0,0,1,7.738-7.738h2.9a7.738,7.738,0,0,1,7.738,7.738ZM482.885,421.4a5,5,0,0,0-5.006-4.987l-1.9,0a5,5,0,0,0-4.987,5.005l.028,16.177a5,5,0,0,0,5.005,4.987l1.9,0a5,5,0,0,0,4.988-5.006Z" transform="translate(-184.967 -143.788)" fill="#fff"/>
    <path id="Trazado_108415" data-name="Trazado 108415" d="M534.986,432.664v12.566a.481.481,0,0,1-.481.481h-2.231a.481.481,0,0,1-.481-.481l-.063-31.5a.479.479,0,0,1,.476-.481h0l9.988,0a6.325,6.325,0,0,1,2.554.539,9.676,9.676,0,0,1-1.63,18.308.481.481,0,0,0-.289.707l7.108,12.147a.482.482,0,0,1-.17.657.472.472,0,0,1-.239.064l-2.722.029a.493.493,0,0,1-.423-.24l-7.622-13.056a.483.483,0,0,0-.418-.24l-2.88.014A.481.481,0,0,0,534.986,432.664Zm3.818-3.876c3.3.293,6.213-.25,7.738-3.169a6.142,6.142,0,0,0-2.409-8.3c-2.255-1.154-5.857-.909-8.569-.76a.481.481,0,0,0-.457.481v11.277a.481.481,0,0,0,.48.481h.02Q537.963,428.716,538.8,428.788Z" transform="translate(-218.174 -143.777)" fill="#fff"/>
    <path id="Trazado_108416" data-name="Trazado 108416" d="M601.741,432.7l.019,12.522a.481.481,0,0,1-.481.481h-2.3a.481.481,0,0,1-.481-.481V413.73a.483.483,0,0,1,.481-.486h0q3.731.005,7.507,0a14.979,14.979,0,0,1,5.1.649c4.237,1.64,6.165,5.8,5.607,10.214q-.774,6.1-7.358,7.949a.477.477,0,0,0-.329.591.488.488,0,0,0,.05.116l7.184,12.176a.481.481,0,0,1-.4.726l-2.7.063a.484.484,0,0,1-.423-.236l-7.742-13.181a.488.488,0,0,0-.442-.236l-2.842.149A.481.481,0,0,0,601.741,432.7Zm4.424-3.919c2.525.043,4.4.01,6.228-1.8,4.035-4,.789-10.382-4.891-10.45q-3.506-.043-5.189.067a.479.479,0,0,0-.447.481v11.176a.481.481,0,0,0,.476.481Q604.27,428.754,606.165,428.782Z" transform="translate(-252.835 -143.772)" fill="#fff"/>
    <path id="Trazado_108417" data-name="Trazado 108417" d="M668.25,430.952l-.01,11.363a.27.27,0,0,0,.269.269h14.129a.269.269,0,0,1,.269.269l0,2.573a.269.269,0,0,1-.269.269l-17.384.024a.269.269,0,0,1-.269-.269l0-31.931a.269.269,0,0,1,.269-.269h17.375a.269.269,0,0,1,.269.269v2.568a.269.269,0,0,1-.269.269l-14.129.063a.27.27,0,0,0-.269.269v10.354a.269.269,0,0,0,.269.269l9.8.063a.269.269,0,0,1,.269.269v2.77a.269.269,0,0,1-.269.269H668.52A.269.269,0,0,0,668.25,430.952Z" transform="translate(-287.35 -143.777)" fill="#fff"/>
    <path id="Trazado_108418" data-name="Trazado 108418" d="M739.854,413.264a8.861,8.861,0,0,1,8.363,6.117,14.81,14.81,0,0,1,.524,4.693q.014,4.934.024,9.868a18.8,18.8,0,0,1-.7,6.131c-1.678,4.41-5.352,5.665-9.93,5.636q-3.832-.02-7.651,0a.481.481,0,0,1-.486-.476V413.745a.481.481,0,0,1,.476-.481Q735.189,413.216,739.854,413.264ZM733.7,442.478c5.025.337,11.676.765,11.806-6.276q.043-2.212,0-11.917c-.038-8.218-5.03-8.132-11.8-7.718a.481.481,0,0,0-.452.481V442A.478.478,0,0,0,733.7,442.478Z" transform="translate(-321.098 -143.772)" fill="#fff"/>
    <path id="Trazado_108419" data-name="Trazado 108419" d="M798.279,444.089a7.93,7.93,0,0,1-3.068-6.444q-.072-11.974.154-23.939a.484.484,0,0,1,.486-.476l2.14.034a.481.481,0,0,1,.471.481q-.029,11.522.139,23.02c.067,4.588,2.433,6.228,6.9,5.795,3.727-.356,4.958-2.5,4.963-6q.034-11.421.014-22.842a.481.481,0,0,1,.481-.481h2.164a.479.479,0,0,1,.481.476q.081,10.4.125,20.779a20.988,20.988,0,0,1-.582,6.218c-1.308,3.6-4.487,5.04-8.185,5.016C802.314,445.709,800.285,445.709,798.279,444.089Z" transform="translate(-354.94 -143.767)" fill="#fff"/>
    <path id="Trazado_108420" data-name="Trazado 108420" d="M863.732,432.657l.019,12.556a.481.481,0,0,1-.481.481h-2.289a.481.481,0,0,1-.481-.481V413.734a.481.481,0,0,1,.476-.481q4.593-.038,9.142-.034c9.589.01,12.426,12.994,4.549,17.678a15.956,15.956,0,0,1-2.9,1.183.481.481,0,0,0-.3.608.5.5,0,0,0,.04.089l7.141,12.191q.424.726-.414.726h-2.712a.485.485,0,0,1-.418-.236l-7.675-13.071a.492.492,0,0,0-.423-.24l-2.794.029A.481.481,0,0,0,863.732,432.657Zm3.352-3.886c3.77.245,7.218-.1,8.531-4.251a5.6,5.6,0,0,0-.962-5.727c-2.635-3-6.8-2.39-10.44-2.265a.481.481,0,0,0-.466.481v11.282a.481.481,0,0,0,.48.481h.02A27.606,27.606,0,0,1,867.083,428.771Z" transform="translate(-388.841 -143.761)" fill="#fff"/>
    <rect id="Rectángulo_55891" data-name="Rectángulo 55891" width="3.251" height="32.451" rx="0.3" transform="translate(503.518 269.477)" fill="#fff"/>
    <path id="Trazado_108421" data-name="Trazado 108421" d="M973.594,436.487l-8.906-.038a.255.255,0,0,0-.245.188l-2.52,8.906a.255.255,0,0,1-.25.183l-2.852-.058a.255.255,0,0,1-.25-.26.247.247,0,0,1,.009-.062l8.868-31.907a.255.255,0,0,1,.245-.188h2.842a.255.255,0,0,1,.245.188l8.906,31.941a.255.255,0,0,1-.178.313.246.246,0,0,1-.062.009l-2.9.014a.255.255,0,0,1-.245-.188l-2.462-8.853A.255.255,0,0,0,973.594,436.487Zm-8.1-3.429a.193.193,0,0,0,.132.238.2.2,0,0,0,.051.007l6.939.01a.192.192,0,0,0,.189-.2.2.2,0,0,0-.006-.045l-3.443-12.484a.192.192,0,0,0-.375,0Z" transform="translate(-439.751 -143.777)" fill="#fff"/>
    <path id="Trazado_108422" data-name="Trazado 108422" d="M1085.541,413.264c5.078.207,8.069,4.905,8.151,9.584q.1,5.545.067,11.109a17.933,17.933,0,0,1-.8,6.218,8.57,8.57,0,0,1-7.536,5.4q-4.977.245-9.974.038a.481.481,0,0,1-.462-.481V413.755a.481.481,0,0,1,.466-.481Q1081.511,413.1,1085.541,413.264Zm-6.968,29.2c6.386.356,11.82.688,11.816-7.367q-.005-8.959.086-11.272c.236-5.905-3.3-7.4-8.262-7.372q-1.823.014-3.611.01a.481.481,0,0,0-.481.481v25.04A.481.481,0,0,0,1078.573,442.469Z" transform="translate(-500.185 -143.744)" fill="#fff"/>
    <path id="Trazado_108423" data-name="Trazado 108423" d="M1144.506,416.679l-.014,10.344a.293.293,0,0,0,.293.293h9.637a.293.293,0,0,1,.293.293v2.78a.293.293,0,0,1-.293.293h-9.632a.293.293,0,0,0-.293.293v11.315a.293.293,0,0,0,.293.293h13.96a.293.293,0,0,1,.293.293v2.539a.293.293,0,0,1-.293.293h-17.206a.293.293,0,0,1-.293-.293V413.543a.293.293,0,0,1,.293-.293h17.206a.293.293,0,0,1,.293.293v2.534a.293.293,0,0,1-.293.293l-13.951.014a.293.293,0,0,0-.293.293Z" transform="translate(-534.581 -143.777)" fill="#fff"/>
    <path id="Trazado_108424" data-name="Trazado 108424" d="M1320.323,427.316h9.594a.3.3,0,0,1,.3.3v2.77a.3.3,0,0,1-.3.3h-9.757a.3.3,0,0,0-.3.3l.087,11.306a.3.3,0,0,0,.3.3h14.119a.3.3,0,0,1,.3.3v2.529a.3.3,0,0,1-.3.3h-17.317a.3.3,0,0,1-.3-.3V413.548a.3.3,0,0,1,.3-.3h17.317a.3.3,0,0,1,.3.3v2.529a.3.3,0,0,1-.3.3H1320.2a.3.3,0,0,0-.3.3v0l.12,10.344A.3.3,0,0,0,1320.323,427.316Z" transform="translate(-625.684 -143.777)" fill="#fff"/>
    <path id="Trazado_108425" data-name="Trazado 108425" d="M1384.708,444.071c-3.01-2.481-2.89-4.944-2.953-9.18q-.1-6.136.029-12.277a13.41,13.41,0,0,1,.837-5.112c2.145-4.554,6.425-4.3,10.887-4.164a7.365,7.365,0,0,1,6.588,3.813.481.481,0,0,1-.178.656l-.043.022-2.193.981a.481.481,0,0,1-.587-.164c-2.241-3.155-9.416-3.275-11.431.226a8.3,8.3,0,0,0-.678,3.881q-.019,6.584-.01,13.172c0,3.049.38,5.309,3.328,6.372,3.126,1.125,7.935.207,8.656-3.583a25.457,25.457,0,0,0,.01-6.987.483.483,0,0,0-.481-.428h-6.1a.476.476,0,0,1-.477-.475.273.273,0,0,1,0-.035l.13-2.284a.481.481,0,0,1,.481-.452h9.233a.483.483,0,0,1,.481.481q.01,3.737.014,7.454c.01,3.7-.279,6.3-3.217,8.348S1387.531,446.4,1384.708,444.071Z" transform="translate(-659.407 -143.793)" fill="#fff"/>
    <path id="Trazado_108426" data-name="Trazado 108426" d="M1456.651,445.758c-6.136.019-9.358-2.558-9.4-9q-.077-11.5.053-23.035a.481.481,0,0,1,.481-.476h2.1a.481.481,0,0,1,.481.481q-.043,11.368.135,22.713c.072,4.828,2.448,6.761,7.281,6.1,3.092-.423,4.53-2.332,4.578-5.323q.178-11.748.135-23.492a.481.481,0,0,1,.481-.481h2.053a.481.481,0,0,1,.481.481q.005,11.565,0,23.126C1465.513,442.806,1462.638,445.739,1456.651,445.758Z" transform="translate(-693.413 -143.777)" fill="#fff"/>
    <path id="Trazado_108427" data-name="Trazado 108427" d="M1515.525,432.6l-.043,12.623a.479.479,0,0,1-.481.476h-2.27a.481.481,0,0,1-.481-.481V413.744a.481.481,0,0,1,.476-.481q3.621-.029,7.213-.024a16.822,16.822,0,0,1,5.636.7c5.41,2.159,6.906,9.565,3.948,14.076a9.822,9.822,0,0,1-5.944,4.044.486.486,0,0,0-.289.712l7.146,12.215q.424.721-.413.721H1527.3a.474.474,0,0,1-.414-.24l-7.646-13.066a.48.48,0,0,0-.409-.24l-2.818-.029a.476.476,0,0,0-.486.466Zm.481-3.818c2.347.048,6.021.418,8.127-.486a6.116,6.116,0,0,0-.452-11.363c-2.135-.75-5.29-.442-7.7-.442a.481.481,0,0,0-.481.481l.034,11.33A.481.481,0,0,0,1516.006,428.786Z" transform="translate(-727.17 -143.771)" fill="#fff"/>
    <path id="Trazado_108428" data-name="Trazado 108428" d="M1595.006,437.872a7.848,7.848,0,0,1-7.848,7.848h-2.77a7.848,7.848,0,0,1-7.848-7.848V421.118a7.848,7.848,0,0,1,7.848-7.848h2.77a7.848,7.848,0,0,1,7.848,7.848Zm-3.347-16.683a4.775,4.775,0,0,0-4.784-4.767h0l-2.231,0a4.775,4.775,0,0,0-4.767,4.783l.029,16.61a4.775,4.775,0,0,0,4.784,4.767h0l2.231,0a4.775,4.775,0,0,0,4.767-4.783Z" transform="translate(-760.544 -143.788)" fill="#fff"/>
    <g id="Grupo_27811" data-name="Grupo 27811" transform="translate(111.444 136.28)">
      <path id="Trazado_108429" data-name="Trazado 108429" d="M184.815,226.115a12.6,12.6,0,0,1-2.135-2.029,3.587,3.587,0,0,1-.721-2.126c-.567-37.235,21.27-69.59,56.6-81.559a77.282,77.282,0,0,1,24.809-4.121.481.481,0,0,1,.481.481v81.146a.481.481,0,0,1-.274.433c-14.427,6.848-29.96,12.032-45.863,13.883C206.984,233.468,193.721,233.228,184.815,226.115Z" transform="translate(-148.043 -136.28)" fill="#fff"/>
      <path id="Trazado_108430" data-name="Trazado 108430" d="M227.265,262.479q0-.649-.6-.346a225.621,225.621,0,0,1-53.143,19.279q-.283.063-.284.216-11.114,1.668-18.942,2.178a75.031,75.031,0,0,1-18.5-1.072c-20.342-3.732-28.878-18.625-22.015-38.265a81.448,81.448,0,0,1,12.657-22.8q1.534-1.991.664.37a51.093,51.093,0,0,0-1.789,5.944c-3.813,16.1,7.108,25.3,21.669,26.954,16.4,1.866,33.566-2.169,48.878-7.872,29.243-10.9,57.341-28.368,78.4-51.662,8.252-9.127,17.533-22.4,18.158-34.831.433-8.661-3.881-15.677-11.873-19.231a32.248,32.248,0,0,0-8.993-2.64q-2.544-.327,0-.611a100.848,100.848,0,0,1,17.456-.519c11.878.736,25.963,5.1,30.474,17.432,3.881,10.6-.462,23.338-5.756,32.648-8.815,15.509-21.308,28.805-34.817,40.169A261.876,261.876,0,0,1,228.352,261.3,2.013,2.013,0,0,0,227.265,262.479Z" transform="translate(-111.444 -136.861)" fill="#ba592b"/>
      <path id="Trazado_108431" data-name="Trazado 108431" d="M293.973,397.022l-.019,39.419a.478.478,0,0,1-.481.476,65.456,65.456,0,0,1-8.863-.486,81.949,81.949,0,0,1-44.66-20.26q0-.154.284-.216a225.622,225.622,0,0,0,53.143-19.279Q293.974,396.373,293.973,397.022Z" transform="translate(-178.153 -271.404)" fill="#fff"/>
    </g>
    <g id="Grupo_27812" data-name="Grupo 27812" transform="translate(328.099 136.386)">
      <rect id="Rectángulo_55892" data-name="Rectángulo 55892" width="13.359" height="13.34" rx="0.27" transform="translate(164.719 0)" fill="#fff"/>
      <path id="Trazado_108432" data-name="Trazado 108432" d="M1022.721,203a.476.476,0,0,1-.471.481h0c-7.843.024-15.73.279-23.626.26-6.146-.014-15.884,1.885-17.062,9.262-1.111,6.987,8.642,10.738,13.979,12.2,15.995,4.357,36.086,10.051,33.734,31.479-1.582,14.379-13.143,21.9-26.762,22.544-9.868.466-20.048-.1-30.166-.125a.481.481,0,0,1-.481-.481V266.333a.481.481,0,0,1,.476-.481q22.462-.231,28.483-.447c6.66-.236,13.922-3.15,14.9-10.642.971-7.42-5.453-10.56-11.311-12.5-13.816-4.568-36.851-8.776-36.615-28.594a21.388,21.388,0,0,1,7.574-16.273c6.247-5.588,13.715-7.391,21.977-7.338q4.636.029,24.824.452a.483.483,0,0,1,.471.481Z" transform="translate(-772.639 -164.302)" fill="#fff"/>
      <path id="Trazado_108433" data-name="Trazado 108433" d="M1431.937,242.195c-14.8-4.674-37.774-9.363-36.173-29.96.875-11.224,9.911-19.192,20.4-21.284,4.463-.89,9.007-.808,13.782-.736q10,.159,20,.337a.481.481,0,0,1,.471.481V203.07a.476.476,0,0,1-.476.476q-11.19.048-22.371.284c-6.285.13-14.807.851-17.548,7.391-3.309,7.9,6.675,11.969,12.215,13.624,13.931,4.155,34.254,8.661,35,27.065q.654,16.239-12.325,23.468c-5.968,3.323-12.527,4.092-19.5,4q-11.541-.159-23.083-.183a20.028,20.028,0,0,1-2.1-.12.481.481,0,0,1-.428-.476V266.389a.481.481,0,0,1,.476-.481q14.283-.168,28.488-.428a27.221,27.221,0,0,0,6.107-1.14q6.261-1.707,8.151-7.266C1445.95,248.466,1438.737,244.34,1431.937,242.195Z" transform="translate(-994.759 -164.363)" fill="#fff"/>
      <path id="Trazado_108434" data-name="Trazado 108434" d="M579.557,277.709c-12.09-3.756-17.548-13-17.562-25.3q-.043-41.814,0-51.7.014-3.179.341-9.762a.481.481,0,0,1,.481-.457h12.5a.481.481,0,0,1,.481.466q.092,2.75.221,5.492.139,3.064.144,5.7.02,24.285,0,48.575a17.348,17.348,0,0,0,3.217,10.387c4.232,5.915,10.666,5.3,17.115,5.2,6.338-.106,11.917-2.438,14.018-8.622a25.664,25.664,0,0,0,.745-7.353c.034-16.519-.274-33.119.144-49.628q.12-4.871.25-9.748a.481.481,0,0,1,.481-.466l12.609-.014a.481.481,0,0,1,.481.481q.005,3.54.154,6.939.2,4.539.2,7.132.02,23.867.01,47.733a34.2,34.2,0,0,1-1.654,7.824c-2.534,8.709-8.233,15.369-17.1,17.913a41.37,41.37,0,0,1-9.526,1.087C590.464,279.777,585.968,279.7,579.557,277.709Z" transform="translate(-561.972 -164.521)" fill="#fff"/>
      <path id="Trazado_108435" data-name="Trazado 108435" d="M733.227,261.541c-.111-23.573.356-47.166-.024-70.734a.481.481,0,0,1,.471-.491h0l9.421-.029a.471.471,0,0,1,.38.178l2.9,3.636a.481.481,0,0,0,.587.135c3.785-1.856,7.7-3.621,12.085-3.809a103.985,103.985,0,0,1,16.591.332c9.652,1.226,18.226,9.849,20.294,19.289a51.444,51.444,0,0,1,.616,9.575q.02,29.681,0,59.361a.481.481,0,0,1-.481.481H783.706a.481.481,0,0,1-.481-.481q-.005-31.321,0-62.636a12.275,12.275,0,0,0-11.176-12.383,105.925,105.925,0,0,0-11.84-.1c-6.064.159-10.945,2.558-12.883,8.637a21.25,21.25,0,0,0-.659,6.074q.02,30.2,0,60.41a.481.481,0,0,1-.481.481H733.732a.481.481,0,0,1-.481-.471q-.149-9.7-.029-11.9C733.333,265.008,733.236,263.349,733.227,261.541Z" transform="translate(-650.842 -164.41)" fill="#fff"/>
      <rect id="Rectángulo_55893" data-name="Rectángulo 55893" width="13.35" height="89.119" rx="0.27" transform="translate(164.719 25.934)" fill="#fff"/>
      <path id="Trazado_108436" data-name="Trazado 108436" d="M1139.724,241.859c-.226,4.535-.572,11.229.255,14.768,1.072,4.593,5.314,8.978,10.31,9.257a127.622,127.622,0,0,0,14.778-.019,12.216,12.216,0,0,0,10.156-6.79.481.481,0,0,1,.64-.2l10.685,5.376a.481.481,0,0,1,.213.646l0,0c-4.573,8.848-12.672,14.489-22.679,14.585q-5.213.048-12.585.014a25.241,25.241,0,0,1-24.564-19.3,47.734,47.734,0,0,1-.678-9.57q-.014-13.509-.014-27.016a58.484,58.484,0,0,1,.534-9.589c2.193-11.623,11.33-22.89,23.963-23.492a142.049,142.049,0,0,1,15.807.12c19.606,1.246,29.56,24.732,18.134,40.289q-7.646,10.407-21.77,10.445-11.316.029-22.7.014A.481.481,0,0,0,1139.724,241.859Zm6.324-13.893c2.789.111,5.708-.164,8.377-.067,4.333.154,10.825.587,14.609-1.116a11.882,11.882,0,0,0-1.183-22.135,17.607,17.607,0,0,0-5.4-.635q-5.271.009-10.541,0c-7.5,0-12.311,5.574-12.316,12.869q-.01,7.415.024,10.416a.483.483,0,0,0,.471.476Q1143.124,227.85,1146.048,227.966Z" transform="translate(-854.889 -164.464)" fill="#fff"/>
      <path id="Trazado_108437" data-name="Trazado 108437" d="M1289.1,190.912a.483.483,0,0,1,.476-.486l9.344-.1a.489.489,0,0,1,.361.159l3.058,3.371a.488.488,0,0,0,.625.077,20.347,20.347,0,0,1,11.258-3.467q6.213-.081,12.417-.072a.481.481,0,0,1,.481.481v12.229a.478.478,0,0,1-.466.481q-4.756.135-9.469.264c-6.535.183-11.907,1.856-14,8.531a27.282,27.282,0,0,0-.712,7.4q.01,29.618,0,59.231a.481.481,0,0,1-.481.481h-12.34a.481.481,0,0,1-.481-.476q-.226-27.877-.13-41Q1289.212,214.481,1289.1,190.912Z" transform="translate(-939.384 -164.444)" fill="#fff"/>
      <path id="Trazado_108438" data-name="Trazado 108438" d="M1567.478,241.829q-.043,5.16-.034,10.57a17.049,17.049,0,0,0,.692,5.511c1.481,4.039,5.593,7.815,10.128,7.983q7,.269,13.989.014a11.636,11.636,0,0,0,4.131-.789,13.185,13.185,0,0,0,6.55-6.03.476.476,0,0,1,.635-.2l10.719,5.338a.481.481,0,0,1,.214.646l0,0c-3.881,7.665-11.979,14.3-20.89,14.518q-9.372.231-15.552.038a25.219,25.219,0,0,1-23.338-19.274,45.662,45.662,0,0,1-.721-9.56q-.014-13.633-.029-27.267a54.1,54.1,0,0,1,.611-9.57c2.231-11.363,11.426-22.8,23.9-23.328q7.242-.3,14.475.072a24.906,24.906,0,0,1,20.678,12.138c3.049,4.843,3.861,10.075,3.472,15.687-.918,13.244-12.056,22.732-25.1,22.924q-11.955.178-24.045.1a.476.476,0,0,0-.481.471Zm2.587-14.023q10.248.2,20.5.077,9.714-.115,12.59-8.175c2.828-7.935-3.241-15.653-11.416-15.682q-5.54-.019-11.094-.048c-5.963-.034-10.7,2.414-12.619,8.315a16.787,16.787,0,0,0-.582,5.083q.024,4.958.01,9.911a.481.481,0,0,0,.476.481Z" transform="translate(-1076.927 -164.43)" fill="#fff"/>
    </g>
  </g>
</svg>
