<?xml version="1.0" encoding="utf-8"?>
<!-- Generator: Adobe Illustrator 24.2.3, SVG Export Plug-In . SVG Version: 6.00 Build 0)  -->
<svg version="1.1" id="Capa_1" xmlns="http://www.w3.org/2000/svg" xmlns:xlink="http://www.w3.org/1999/xlink" x="0px" y="0px"
	 viewBox="0 0 531 220" style="enable-background:new 0 0 531 220;" xml:space="preserve">
<g>
	<path vector-effect="non-scaling-stroke" class="st0" style="fill:none;stroke:#80C890;stroke-width:2;" d="M115.7,21.9c0.6,0.6,1.2,1,1.6,1.2c14.7,5.9,27.2,14.9,37.5,26.8
		c0.3,0.3,0.6,0.5,1,0.6c10.1,2.9,19.6,7.2,28.4,12.9c0.2,0.2,0.5,0.2,0.8,0.2l0.5-0.1"/>
	<path vector-effect="non-scaling-stroke" class="st0" style="fill:none;stroke:#80C890;stroke-width:2;" d="M191.2,73.6c-9.3-7.4-19.1-13.1-29.4-16.9c-1.4-0.5-1.7-0.2-0.9,1.1
		c27.3,41.7,20.9,96.6-18,128.3c-1.7,1.4-1.5,1.9,0.7,1.5c8.3-1.5,16.2-3.5,23.6-6"/>
	<path vector-effect="non-scaling-stroke" class="st0" style="fill:none;stroke:#80C890;stroke-width:2;" d="M154.9,190c-6,1.1-11.9,1.8-17.9,2.2c-1.6,0.1-3.1,0.6-4.5,1.4
		c-5.5,3.2-11.2,6.1-17.1,8.6"/>
	<path vector-effect="non-scaling-stroke" class="st0" style="fill:none;stroke:#80C890;stroke-width:2;" d="M101.1,202.4c0.4-0.4,0.7-0.5,0.8-0.6c8.6-1.9,16.4-4.8,23.5-8.6
		c0.3-0.2,0.3-0.3-0.1-0.3c-39.7-2.9-69.8-21.2-90-54.9c-0.7-1.1-1-1-1.1,0.3c-0.5,8.4-0.2,16.8,0.7,25.3"/>
	<path vector-effect="non-scaling-stroke" class="st0" style="fill:none;stroke:#80C890;stroke-width:2;" d="M29.8,155c-0.2-8.3,0.2-16.6,1.2-24.7c0-0.4,0-0.7-0.1-1.1
		c-5.2-12.3-8.3-25-9.4-38.3"/>
	<path vector-effect="non-scaling-stroke" class="st0" style="fill:none;stroke:#80C890;stroke-width:2;" d="M25.6,78.8c-0.5,14.8,1.7,28.9,6.6,42.5c0.3,0.9,0.6,0.9,0.8,0
		c5.3-19.2,15.3-35.5,30.1-48.9c0.3-0.2,0.3-0.6,0.1-0.9C54.8,56.9,73,43.1,85.6,56.5c0.2,0.3,0.6,0.3,0.9,0.2
		c19.5-9.1,39.9-11.8,61.2-8.1c0.7,0.1,0.8-0.1,0.3-0.6c-13-12.9-28.3-21.6-46.1-26"/>
	<path vector-effect="non-scaling-stroke" class="st0" style="fill:none;stroke:#80C890;stroke-width:2;" d="M87.5,61.4c3.1,11.9-10.8,20-20.7,13.8c-0.3-0.2-0.7-0.2-0.9,0.1
		c-15.9,14.4-26,32.2-30.2,53.4c-0.1,0.4,0,0.8,0.1,1.1c18.8,37.1,54.5,60,97.1,58.8c0.4,0,0.8-0.1,1.1-0.4
		c44.2-31.3,53.3-90.3,20-133.2c-0.2-0.3-0.5-0.5-0.9-0.7c-1.5-0.5-3.3-1-5.6-1.4c-20.7-3.8-40.5-1.3-59.5,7.6
		C87.5,60.5,87.3,61,87.5,61.4"/>
	<path vector-effect="non-scaling-stroke" class="st0" style="fill:none;stroke:#80C890;stroke-width:2;" d="M119.8,145.6c-6.2-0.9-12.1-2.9-17.6-6c-0.5-0.3-1.1-0.1-1.4,0.3
		c-2.6,3.7-4.4,7.9-5.3,12.3c-0.1,0.4,0.1,0.7,0.4,0.9c11.2,6.3,23.3,8.5,36.1,6.6c11.8-1.7,21.4-8.3,22.5-20.9
		c1.7-18.4-14.1-24.7-28.5-29.2c-6.6-2.1-13.1-10.6-3.2-14.1c6-2.2,17.6,1.7,23.2,4.2c1.3,0.6,2.3,0.3,3.1-0.9
		c2.4-3.6,3.7-7.6,3.9-11.9c0-0.3-0.2-0.7-0.5-0.8c-7.4-3.2-15.8-5.1-24.9-5.6c-13.2-0.7-27.4,6.1-29.3,20.1
		c-2.1,15.4,9.9,23.4,22.6,27.6c4.5,1.5,11.8,3.6,12.9,9C135.3,144.9,125.4,146.4,119.8,145.6"/>
	<path vector-effect="non-scaling-stroke" class="st0" style="fill:none;stroke:#80C890;stroke-width:2;" d="M64.3,156.7c6.8,0.9,13.5,0.9,20.3-0.1c0.5-0.1,0.8-0.5,0.8-0.9l0-71.2
		c0-0.3-0.2-0.5-0.5-0.5c-7.7-1-16.3-0.2-20,7.2c-1.1,2.2-1.7,5.9-1.6,11.1c0.1,18,0.1,35.7,0,53.4
		C63.3,156.1,63.7,156.6,64.3,156.7"/>
</g>
<path class="st1" style="fill:#FFF;" d="M115.7,21.9c0.6,0.6,1.2,1,1.6,1.2c14.7,5.9,27.2,14.9,37.5,26.8c0.3,0.3,0.6,0.5,1,0.6
	c10.1,2.9,19.6,7.2,28.4,12.9c0.2,0.2,0.5,0.2,0.8,0.2l0.5-0.1c2.2,3.1,4.1,6.5,5.7,10c-9.3-7.4-19.1-13.1-29.4-16.9
	c-1.4-0.5-1.7-0.2-0.9,1.1c27.3,41.7,20.9,96.6-18,128.3c-1.7,1.4-1.5,1.9,0.7,1.5c8.3-1.5,16.2-3.5,23.6-6
	c-3.8,3.5-7.9,6.3-12.3,8.5c-6,1.1-11.9,1.8-17.9,2.2c-1.6,0.1-3.1,0.6-4.5,1.4c-5.5,3.2-11.2,6.1-17.1,8.6
	c-4.7,0.6-9.4,0.6-14.2,0.1c0.4-0.4,0.7-0.5,0.8-0.6c8.6-1.9,16.4-4.8,23.5-8.6c0.3-0.2,0.3-0.3-0.1-0.3
	c-39.7-2.9-69.8-21.2-90-54.9c-0.7-1.1-1-1-1.1,0.3c-0.5,8.4-0.2,16.8,0.7,25.3l-5.1-8.6c-0.2-8.3,0.2-16.6,1.2-24.7
	c0-0.4,0-0.7-0.1-1.1c-5.2-12.3-8.3-25-9.4-38.3c0.6-4.1,2-8.2,4.1-12c-0.5,14.8,1.7,28.9,6.6,42.5c0.3,0.9,0.6,0.9,0.8,0
	c5.3-19.2,15.3-35.5,30.1-48.9c0.3-0.2,0.3-0.6,0.1-0.9C54.8,56.9,73,43.1,85.6,56.5c0.2,0.3,0.6,0.3,0.9,0.2
	c19.5-9.1,39.9-11.8,61.2-8.1c0.7,0.1,0.8-0.1,0.3-0.6c-13-12.9-28.3-21.6-46.1-26C106.5,21.5,111.1,21.4,115.7,21.9z M87.5,61.4
	c3.1,11.9-10.8,20-20.7,13.8c-0.3-0.2-0.7-0.2-0.9,0.1c-15.9,14.4-26,32.2-30.2,53.4c-0.1,0.4,0,0.8,0.1,1.1
	c18.8,37.1,54.5,60,97.1,58.8c0.4,0,0.8-0.1,1.1-0.4c44.2-31.3,53.3-90.3,20-133.2c-0.2-0.3-0.5-0.5-0.9-0.7c-1.5-0.5-3.3-1-5.6-1.4
	c-20.7-3.8-40.5-1.3-59.5,7.6C87.5,60.5,87.3,61,87.5,61.4z"/>
<path class="st2" style="fill:#009020;" d="M101.9,22c17.8,4.5,33.1,13.1,46.1,26c0.5,0.5,0.4,0.7-0.3,0.6c-21.3-3.8-41.7-1.1-61.2,8.1
	c-0.3,0.2-0.7,0.1-0.9-0.2C73,43.1,54.8,56.9,63.2,71.4c0.2,0.3,0.1,0.7-0.1,0.9C48.4,85.7,38.3,102,33,121.2
	c-0.2,0.9-0.5,0.9-0.8,0c-4.9-13.5-7.1-27.7-6.6-42.5c1.7-5.3,4.2-10.5,7.5-15.3C49.4,38.9,72.4,25.1,101.9,22z"/>
<path class="st2" style="fill:#009020;" d="M115.7,21.9c30.1,2.7,53.4,16.6,69.8,41.7l-0.5,0.1c-0.3,0-0.6,0-0.8-0.2c-8.8-5.7-18.3-10-28.4-12.9
	c-0.4-0.1-0.7-0.3-1-0.6c-10.3-12-22.8-20.9-37.5-26.8C116.9,22.9,116.3,22.5,115.7,21.9z"/>
<path class="st2" style="fill:#009020;" d="M66.7,75.1c9.9,6.2,23.9-1.9,20.7-13.8c-0.1-0.4,0.1-0.9,0.5-1c19-8.8,38.9-11.4,59.5-7.6
	c2.2,0.4,4.1,0.9,5.6,1.4c0.4,0.1,0.7,0.4,0.9,0.7c33.3,43,24.2,102-20,133.2c-0.3,0.2-0.7,0.3-1.1,0.4
	c-42.6,1.2-78.3-21.6-97.1-58.8c-0.2-0.3-0.2-0.7-0.1-1.1c4.2-21.1,14.3-38.9,30.2-53.4C66,75,66.4,74.9,66.7,75.1z M119.8,145.6
	c-6.2-0.9-12.1-2.9-17.6-6c-0.5-0.3-1.1-0.1-1.4,0.3c-2.6,3.7-4.4,7.9-5.3,12.3c-0.1,0.4,0.1,0.7,0.4,0.9
	c11.2,6.3,23.3,8.5,36.1,6.6c11.8-1.7,21.4-8.3,22.5-20.9c1.7-18.4-14.1-24.7-28.5-29.2c-6.6-2.1-13.1-10.6-3.2-14.1
	c6-2.2,17.6,1.7,23.2,4.2c1.3,0.6,2.3,0.3,3.1-0.9c2.4-3.6,3.7-7.6,3.9-11.9c0-0.3-0.2-0.7-0.5-0.8c-7.4-3.2-15.8-5.1-24.9-5.6
	c-13.2-0.7-27.4,6.1-29.3,20.1c-2.1,15.4,9.9,23.4,22.6,27.6c4.5,1.5,11.8,3.6,12.9,9C135.3,144.9,125.4,146.4,119.8,145.6z
	 M64.3,156.7c6.8,0.9,13.5,0.9,20.3-0.1c0.5-0.1,0.8-0.5,0.8-0.9l0-71.2c0-0.3-0.2-0.5-0.5-0.5c-7.7-1-16.3-0.2-20,7.2
	c-1.1,2.2-1.7,5.9-1.6,11.1c0.1,18,0.1,35.7,0,53.4C63.3,156.1,63.7,156.6,64.3,156.7z"/>
<path class="st2" style="fill:#009020;" d="M191.2,73.6c17.4,37.7,7.7,81.2-24,107.9c-7.4,2.5-15.2,4.5-23.6,6c-2.2,0.4-2.4-0.1-0.7-1.5
	c39-31.7,45.4-86.6,18-128.3c-0.8-1.3-0.5-1.6,0.9-1.1C172.1,60.6,181.9,66.2,191.2,73.6z"/>
<path class="st3" style="fill:#002A6F;" d="M358.9,149.3c-6,8.3-14.2,11.8-24.4,10.6c-35.7-4.2-38.1-53.9-3.1-59.8c11.1-1.9,20.4,1.2,28,9.1
	c0.3,0.3,0.4,0.2,0.4-0.2l-0.1-28c0-0.3,0.3-0.6,0.6-0.6l0,0h6.9c0.3,0,0.6,0.3,0.6,0.6v77c0,0.3-0.3,0.6-0.6,0.6h-6.7
	c-0.4,0-0.7-0.3-0.7-0.7c0,0,0,0,0,0l0.1-8.5c0-0.2-0.2-0.4-0.4-0.4c0,0-0.1,0-0.1,0C359.2,149,359.1,149.1,358.9,149.3z
	 M360.2,129.7c0-12.7-10.3-23.1-23.1-23.1l0,0c-12.7,0-23.1,10.3-23.1,23.1s10.3,23.1,23.1,23.1
	C349.9,152.8,360.2,142.4,360.2,129.7L360.2,129.7z"/>
<path class="st1" style="fill:#FFF;" d="M119.8,145.6c5.6,0.8,15.5-0.7,13.9-8.4c-1.1-5.4-8.4-7.5-12.9-9c-12.7-4.1-24.7-12.1-22.6-27.6
	c1.9-13.9,16.1-20.8,29.3-20.1c9.2,0.5,17.5,2.4,24.9,5.6c0.3,0.1,0.5,0.4,0.5,0.8c-0.2,4.4-1.5,8.4-3.9,11.9
	c-0.8,1.1-1.8,1.4-3.1,0.9c-5.6-2.5-17.1-6.3-23.2-4.2c-9.9,3.5-3.4,12.1,3.2,14.1c14.4,4.5,30.2,10.9,28.5,29.2
	c-1.2,12.6-10.8,19.1-22.5,20.9c-12.9,1.9-24.9-0.3-36.1-6.6c-0.3-0.2-0.5-0.5-0.4-0.9c0.9-4.5,2.7-8.6,5.3-12.3
	c0.3-0.5,0.9-0.6,1.4-0.3C107.7,142.7,113.6,144.7,119.8,145.6z"/>
<path class="st3" style="fill:#002A6F;" d="M278.6,132.3h-35.7c-0.2,0-0.4,0.1-0.5,0.3l-11,25.7c-0.1,0.2-0.3,0.3-0.5,0.3h-7.2c-0.3,0-0.5-0.2-0.5-0.5
	c0-0.1,0-0.1,0-0.2l33.1-77c0.1-0.2,0.3-0.3,0.5-0.3h8.2c0.2,0,0.4,0.1,0.5,0.3l33.1,77c0.1,0.3,0,0.6-0.3,0.7c-0.1,0-0.1,0-0.2,0
	l-7.4,0c-0.2,0-0.4-0.1-0.5-0.3l-11-25.7C279,132.4,278.8,132.3,278.6,132.3z M245.8,124.6c-0.1,0.2,0,0.4,0.2,0.5c0,0,0.1,0,0.1,0
	l29.3,0.1c0.2,0,0.4-0.2,0.4-0.4c0-0.1,0-0.1,0-0.1l-14.5-34.8c-0.1-0.2-0.3-0.3-0.5-0.2c-0.1,0-0.2,0.1-0.2,0.2L245.8,124.6z"/>
<path class="st3" style="fill:#002A6F;" d="M385.6,81.1l6.7,0c0.4,0,0.7,0.3,0.7,0.7l0,12.1c0,0.4-0.3,0.7-0.7,0.7l-6.7,0c-0.4,0-0.7-0.3-0.7-0.7l0-12.1
	C384.9,81.4,385.2,81.1,385.6,81.1z"/>
<path class="st1" style="fill:#FFF;" d="M64.3,156.7c-0.6-0.1-1-0.6-1-1.1c0-17.6,0-35.4,0-53.4c0-5.2,0.5-8.8,1.6-11.1c3.7-7.4,12.3-8.2,20-7.2
	c0.3,0,0.5,0.3,0.5,0.5l0,71.2c0,0.5-0.3,0.9-0.8,0.9C77.8,157.6,71,157.6,64.3,156.7z"/>
<path class="st2" style="fill:#009020;" d="M21.5,90.8c1.1,13.3,4.2,26.1,9.4,38.3c0.1,0.3,0.2,0.7,0.1,1.1c-1,8.2-1.4,16.4-1.2,24.7
	C18.9,134.7,16.1,113.3,21.5,90.8z"/>
<path class="st3" style="fill:#002A6F;" d="M425.5,160.1c-10.4,1.2-20.2-6.5-20.1-17.6c0-0.4,0.3-0.7,0.7-0.7h6.2c0.4,0,0.7,0.3,0.8,0.7
	c0.4,5,2.6,8.2,6.6,9.7c12.5,4.6,20.1-12.8,7.9-18.1c-5.2-2.3-13.2-4.7-16.7-8.9c-10.5-12.6,2.9-29,17.8-25.1
	c7,1.8,10.8,6.7,11.5,14.5c0,0.3-0.2,0.6-0.5,0.6c0,0,0,0,0,0l-6.5,0c-0.4,0-0.8-0.3-0.8-0.7c-1.5-12.2-18.3-9.7-16.6,2.8
	c0.2,1.6,1,2.8,2.4,3.7c4.1,2.4,8.4,4.4,13,6C448.4,132.9,443.3,158.1,425.5,160.1z"/>
<path class="st3" style="fill:#002A6F;" d="M505.5,110.3c0.6,0.8,0.8,0.7,0.8-0.3l-0.2-8.5c0-0.4,0.3-0.7,0.7-0.7c0,0,0,0,0,0h6.5c0.4,0,0.7,0.3,0.7,0.7
	L514,158c0,0.3-0.3,0.6-0.6,0.6c0,0,0,0,0,0h-6.5c-0.4,0-0.8-0.3-0.8-0.8c0,0,0,0,0,0l0-8.3c0-0.8-0.2-0.9-0.7-0.2
	c-14.3,20-46.8,10.4-51.7-11.6c-4-17.9,5.5-33.6,23.8-37.9c3.2-0.7,12-0.3,15.8,1.1C498.2,102.7,502.3,105.8,505.5,110.3z
	 M484.5,152.9c12.6-0.5,22.3-11.4,21.7-24.2c0,0,0,0,0,0c-0.6-12.8-11.2-22.8-23.7-22.2h0c-12.6,0.5-22.3,11.4-21.7,24.2
	c0,0,0,0,0,0C461.3,143.5,471.9,153.4,484.5,152.9C484.5,152.9,484.5,152.9,484.5,152.9z"/>
<path class="st3" style="fill:#002A6F;" d="M385.4,100.8h7c0.3,0,0.5,0.2,0.5,0.5v56.8c0,0.3-0.2,0.5-0.5,0.5h-7c-0.3,0-0.5-0.2-0.5-0.5v-56.8
	C384.9,101,385.1,100.8,385.4,100.8z"/>
<path class="st2" style="fill:#009020;" d="M101.1,202.4c-27.9-3.3-50-16.2-66.1-38.8c-1-8.4-1.2-16.8-0.7-25.3c0.1-1.3,0.4-1.4,1.1-0.3
	c20.3,33.7,50.3,52,90,54.9c0.4,0,0.4,0.1,0.1,0.3c-7.1,3.8-14.9,6.7-23.5,8.6C101.8,201.8,101.5,202,101.1,202.4z"/>
<path class="st2" style="fill:#009020;" d="M154.9,190c-12.1,7.5-25.3,11.5-39.5,12.2c5.9-2.5,11.6-5.4,17.1-8.6c1.4-0.8,2.9-1.3,4.5-1.4
	C143,191.8,148.9,191.1,154.9,190z"/>
</svg>
