<?xml version="1.0" encoding="UTF-8" standalone="no"?>
<!DOCTYPE svg PUBLIC "-//W3C//DTD SVG 1.1//EN" "http://www.w3.org/Graphics/SVG/1.1/DTD/svg11.dtd">
<svg xmlns="http://www.w3.org/2000/svg" version="1.1" viewBox="0 0 519 273">
<path fill="#2054a5" d="
  M 388.31 36.44
  C 411.17 54.18 414.19 77.97 414.21 105.25
  Q 414.26 153.11 414.24 200.98
  A 0.52 0.52 0.0 0 1 413.72 201.50
  L 403.10 201.50
  A 0.58 0.58 0.0 0 1 402.52 200.92
  Q 402.52 153.94 402.48 107.01
  Q 402.46 86.72 399.05 73.26
  C 392.48 47.35 363.71 30.74 337.95 33.94
  C 324.12 35.66 313.27 42.43 302.69 51.30
  A 0.87 0.86 45.3 0 1 301.57 51.29
  C 289.80 41.31 276.46 33.73 261.02 33.50
  C 237.23 33.14 213.35 45.60 206.20 69.24
  Q 202.88 80.23 202.77 97.07
  Q 202.44 149.06 202.52 201.10
  A 0.39 0.39 0.0 0 1 202.13 201.49
  L 191.35 201.50
  A 0.56 0.56 0.0 0 1 190.78 200.94
  Q 190.70 150.70 190.84 100.51
  C 190.89 82.25 191.80 64.54 202.59 49.14
  C 214.70 31.86 238.11 20.97 258.99 21.35
  C 273.48 21.62 288.98 27.40 301.64 35.00
  A 0.84 0.83 -46.4 0 0 302.55 34.97
  C 328.84 16.62 362.85 16.68 388.31 36.44
  Z"
/>
<path fill="#2054a5" d="
  M 164.37 109.71
  C 177.92 127.51 182.51 146.46 172.81 167.33
  C 158.55 198.00 125.72 202.49 95.77 201.40
  A 0.54 0.54 0.0 0 1 95.25 200.86
  L 95.25 191.03
  A 0.63 0.62 0.5 0 1 95.89 190.41
  C 119.38 190.76 145.54 188.92 159.41 167.95
  C 172.39 148.33 166.82 127.54 150.05 112.03
  A 0.57 0.57 0.0 0 1 149.97 111.28
  C 163.72 92.06 167.71 70.22 149.31 52.18
  C 137.93 41.02 123.34 37.43 107.68 37.35
  Q 75.98 37.18 44.21 37.27
  A 0.46 0.46 0.0 0 0 43.75 37.73
  L 43.75 200.87
  A 0.63 0.62 -90.0 0 1 43.13 201.50
  L 32.38 201.50
  A 0.63 0.63 0.0 0 1 31.75 200.87
  L 31.75 26.21
  A 0.44 0.44 0.0 0 1 32.19 25.77
  Q 69.67 25.69 107.24 25.81
  C 123.09 25.86 139.54 29.68 152.15 39.07
  C 174.63 55.80 179.37 85.33 164.33 108.89
  A 0.72 0.71 42.6 0 0 164.37 109.71
  Z"
/>
<rect fill="#2054a5" x="431.76" y="25.76" width="11.74" height="175.74" rx="0.50"/>
<rect fill="#2054a5" x="453.50" y="25.76" width="12.00" height="175.74" rx="0.27"/>
<rect fill="#2054a5" x="475.25" y="25.76" width="12.00" height="175.74" rx="0.27"/>
<path fill="#2054a5" d="
  M 302.56 66.90
  C 312.75 52.78 325.39 43.70 342.83 43.24
  C 363.78 42.68 386.01 56.00 390.16 77.58
  Q 392.42 89.36 392.51 103.31
  Q 392.80 152.19 392.73 201.13
  A 0.36 0.36 0.0 0 1 392.37 201.49
  L 381.85 201.50
  A 0.58 0.57 89.5 0 1 381.27 200.92
  Q 381.26 155.94 381.29 111.01
  Q 381.29 98.06 379.56 85.25
  C 376.00 58.78 348.62 49.60 326.07 60.29
  C 311.50 67.19 308.83 86.84 308.75 100.82
  Q 308.46 150.93 308.51 201.11
  A 0.38 0.38 0.0 0 1 308.13 201.49
  L 297.10 201.50
  A 0.57 0.56 89.5 0 1 296.53 200.93
  Q 296.47 152.45 296.51 104.01
  C 296.52 81.62 291.52 61.88 266.53 56.25
  C 249.28 52.37 230.74 61.29 225.98 78.99
  Q 223.06 89.84 223.04 103.50
  Q 222.98 152.23 223.00 200.97
  A 0.53 0.53 0.0 0 1 222.47 201.50
  L 212.10 201.50
  A 0.57 0.57 0.0 0 1 211.53 200.93
  Q 211.44 125.14 211.51 99.75
  C 211.54 85.03 213.01 71.08 223.02 59.41
  C 239.87 39.77 272.19 37.37 291.44 55.32
  Q 297.15 60.65 301.77 66.90
  A 0.49 0.49 0.0 0 0 302.56 66.90
  Z"
/>
<path fill="#2054a5" d="
  M 65.25 58.56
  L 65.25 201.00
  A 0.50 0.50 0.0 0 1 64.75 201.50
  L 54.00 201.50
  A 0.50 0.50 0.0 0 1 53.50 201.00
  L 53.50 47.53
  A 0.49 0.48 0.0 0 1 53.99 47.05
  Q 98.18 46.90 108.24 47.01
  C 124.50 47.19 138.69 52.27 146.29 67.16
  C 153.83 81.96 150.74 98.63 139.92 111.07
  A 0.64 0.63 -50.2 0 0 140.00 111.98
  Q 156.86 125.72 155.00 146.48
  C 152.35 176.24 119.95 182.22 95.88 181.14
  A 0.66 0.66 0.0 0 1 95.25 180.48
  L 95.25 170.86
  A 0.63 0.62 -89.1 0 1 95.89 170.23
  C 114.55 170.76 141.75 168.86 144.18 144.41
  C 145.81 128.07 134.68 120.69 123.61 111.88
  A 0.40 0.40 0.0 0 1 123.61 111.26
  C 149.64 90.49 142.06 58.59 107.31 58.13
  Q 86.53 57.86 65.75 58.06
  A 0.50 0.50 0.0 0 0 65.25 58.56
  Z"
/>
<path fill="#2054a5" d="
  M 244.00 69.94
  C 259.14 59.16 281.82 66.16 285.05 86.00
  C 286.00 91.88 286.47 97.42 286.48 103.78
  Q 286.53 152.42 286.49 201.12
  A 0.37 0.36 90.0 0 1 286.13 201.49
  L 275.34 201.50
  A 0.58 0.57 89.5 0 1 274.76 200.92
  Q 274.77 122.88 274.71 108.07
  Q 274.68 100.54 273.67 90.07
  C 272.39 76.89 255.51 72.49 248.40 83.71
  C 244.74 89.48 245.28 101.68 245.28 108.75
  Q 245.23 154.86 245.25 200.97
  A 0.53 0.53 0.0 0 1 244.72 201.50
  L 234.11 201.50
  A 0.58 0.57 0.0 0 1 233.53 200.93
  Q 233.47 151.69 233.54 102.50
  C 233.56 90.90 233.85 77.16 244.00 69.94
  Z"
/>
<path fill="#2054a5" d="
  M 328.24 71.01
  C 340.48 61.32 360.32 64.20 367.77 78.83
  Q 370.74 84.66 370.90 90.32
  C 371.96 127.17 371.53 164.11 371.48 200.97
  A 0.53 0.52 -90.0 0 1 370.96 201.50
  L 360.10 201.50
  A 0.57 0.57 0.0 0 1 359.53 200.93
  Q 359.48 152.45 359.43 104.01
  C 359.42 95.58 359.54 80.75 349.27 78.01
  C 332.83 73.63 330.29 88.72 330.27 100.81
  Q 330.23 150.89 330.25 200.97
  A 0.53 0.53 0.0 0 1 329.72 201.50
  L 318.60 201.50
  A 0.57 0.57 0.0 0 1 318.03 200.93
  Q 317.97 152.82 318.02 104.76
  C 318.03 93.06 318.11 79.04 328.24 71.01
  Z"
/>
<path fill="#2054a5" d="
  M 102.49 67.07
  C 114.43 67.17 125.95 69.29 127.95 83.51
  C 130.88 104.33 111.56 106.40 95.86 106.08
  A 0.62 0.62 0.0 0 1 95.25 105.46
  L 95.25 95.60
  A 0.53 0.53 0.0 0 1 95.79 95.07
  Q 103.55 95.26 110.98 93.46
  C 119.32 91.44 118.63 80.52 110.75 78.92
  Q 100.64 76.88 87.24 78.00
  A 0.53 0.53 0.0 0 0 86.75 78.53
  L 86.75 200.75
  A 0.75 0.75 0.0 0 1 86.00 201.50
  L 75.50 201.50
  A 0.50 0.50 0.0 0 1 75.00 201.00
  L 75.00 67.53
  A 0.48 0.48 0.0 0 1 75.48 67.05
  Q 89.04 66.95 102.49 67.07
  Z"
/>
<path fill="#2054a5" d="
  M 111.48 117.00
  C 126.11 118.63 136.02 129.82 132.52 144.77
  C 128.95 160.06 108.89 162.93 95.82 161.55
  A 0.64 0.63 3.0 0 1 95.25 160.92
  L 95.25 151.60
  A 0.54 0.54 0.0 0 1 95.80 151.06
  C 103.60 151.10 123.58 150.33 121.00 137.43
  C 118.63 125.61 104.01 126.97 95.75 126.42
  A 0.54 0.53 -88.3 0 1 95.25 125.88
  L 95.25 117.02
  A 0.66 0.65 88.6 0 1 95.87 116.36
  Q 102.41 115.98 111.48 117.00
  Z"
/>
<path fill="#2054a5" d="
  M 43.59 245.28
  C 48.59 247.41 53.24 244.43 54.29 239.14
  A 0.49 0.49 0.0 0 1 54.92 238.77
  L 60.94 240.68
  A 0.65 0.64 -72.4 0 1 61.36 241.50
  Q 56.79 254.93 42.66 251.63
  C 29.17 248.48 27.72 227.87 37.20 219.73
  C 44.23 213.70 58.41 215.36 61.13 226.02
  A 0.61 0.61 0.0 0 1 60.69 226.76
  L 54.85 228.23
  A 0.59 0.58 72.9 0 1 54.16 227.86
  C 51.20 219.22 40.22 221.79 38.84 230.17
  C 38.05 234.95 38.53 243.11 43.59 245.28
  Z"
/>
<path fill="#2054a5" d="
  M 120.7421 237.0041
  A 15.20 15.20 0.0 0 1 105.3837 252.0441
  L 102.5039 252.0139
  A 15.20 15.20 0.0 0 1 87.4639 236.6556
  L 87.5179 231.4959
  A 15.20 15.20 0.0 0 1 102.8763 216.4559
  L 105.7561 216.4861
  A 15.20 15.20 0.0 0 1 120.7961 231.8444
  L 120.7421 237.0041
  Z
  M 110.57 225.13
  C 104.93 220.23 97.12 222.49 95.33 229.77
  Q 93.98 235.28 95.57 239.68
  C 97.43 244.85 102.97 247.50 108.15 245.11
  C 114.45 242.19 114.41 232.23 112.06 227.12
  Q 111.53 225.96 110.57 225.13
  Z"
/>
<path fill="#2054a5" d="
  M 462.19 220.69
  C 467.00 213.01 485.69 214.96 486.23 226.34
  A 0.57 0.57 0.0 0 1 485.69 226.94
  L 479.92 227.33
  A 0.78 0.77 -10.5 0 1 479.13 226.79
  C 477.30 221.18 471.33 221.10 467.42 224.47
  A 0.88 0.87 58.8 0 0 467.18 225.47
  L 467.96 227.37
  A 1.06 1.03 -2.7 0 0 468.64 227.97
  Q 474.43 229.67 480.14 231.60
  C 490.22 235.02 489.34 248.18 480.02 251.29
  C 471.46 254.14 460.15 251.50 459.23 240.70
  A 0.60 0.60 0.0 0 1 459.77 240.05
  L 465.29 239.52
  A 0.79 0.79 0.0 0 1 466.13 240.09
  Q 468.44 247.84 476.75 245.56
  Q 479.27 244.86 479.97 242.35
  Q 480.91 238.93 476.56 237.89
  C 468.54 235.99 454.90 232.32 462.19 220.69
  Z"
/>
<path fill="#2054a5" d="
  M 174.07 226.98
  L 168.00 250.98
  A 0.69 0.69 0.0 0 1 167.33 251.50
  L 161.54 251.50
  A 0.81 0.79 82.4 0 1 160.77 250.90
  C 160.09 248.30 155.15 226.86 154.53 226.41
  Q 154.25 226.20 154.25 226.56
  L 154.25 250.88
  A 0.63 0.62 -0.0 0 1 153.62 251.50
  L 148.37 251.50
  A 0.63 0.62 -90.0 0 1 147.75 250.87
  L 147.75 217.50
  A 0.50 0.50 0.0 0 1 148.25 217.00
  L 157.77 217.00
  A 0.71 0.71 0.0 0 1 158.46 217.53
  L 164.22 239.13
  Q 164.48 240.08 164.73 239.12
  L 170.30 217.53
  A 0.71 0.71 0.0 0 1 170.99 217.00
  L 180.75 217.00
  A 0.50 0.50 0.0 0 1 181.25 217.50
  L 181.25 251.00
  A 0.50 0.50 0.0 0 1 180.75 251.50
  L 175.13 251.50
  A 0.63 0.63 0.0 0 1 174.50 250.87
  L 174.50 227.03
  Q 174.50 225.28 174.07 226.98
  Z"
/>
<path fill="#2054a5" d="
  M 216.50 239.06
  L 216.50 250.87
  A 0.63 0.63 0.0 0 1 215.87 251.50
  L 210.13 251.50
  A 0.63 0.63 0.0 0 1 209.50 250.87
  L 209.50 217.54
  A 0.49 0.49 0.0 0 1 209.99 217.05
  C 215.98 216.99 226.27 216.01 230.80 218.20
  C 239.12 222.22 237.30 236.62 227.75 238.25
  Q 225.49 238.63 217.00 238.57
  A 0.49 0.49 0.0 0 0 216.50 239.06
  Z
  M 228.49 228.79
  C 229.12 222.12 221.41 222.55 217.09 223.11
  A 0.67 0.66 -3.4 0 0 216.50 223.77
  L 216.50 232.06
  A 0.54 0.54 0.0 0 0 217.07 232.60
  L 224.89 232.23
  Q 228.18 232.07 228.49 228.79
  Z"
/>
<path fill="#2054a5" d="
  M 269.70 217.02
  L 276.73 216.99
  A 0.44 0.44 0.0 0 1 277.14 217.27
  L 290.62 250.90
  A 0.44 0.44 0.0 0 1 290.21 251.50
  L 283.30 251.50
  A 0.44 0.44 0.0 0 1 282.89 251.22
  L 280.10 244.03
  A 0.44 0.44 0.0 0 0 279.69 243.75
  L 266.76 243.75
  A 0.44 0.44 0.0 0 0 266.35 244.04
  L 263.82 251.19
  A 0.44 0.44 0.0 0 1 263.41 251.48
  L 256.62 251.51
  A 0.44 0.44 0.0 0 1 256.20 250.91
  L 269.29 217.30
  A 0.44 0.44 0.0 0 1 269.70 217.02
  Z
  M 268.86 237.32
  A 0.32 0.32 0.0 0 0 269.16 237.75
  L 277.20 237.75
  A 0.32 0.32 0.0 0 0 277.50 237.32
  L 273.48 226.28
  A 0.32 0.32 0.0 0 0 272.88 226.28
  L 268.86 237.32
  Z"
/>
<path fill="#2054a5" d="
  M 336.81 238.35
  L 336.72 217.33
  A 0.33 0.33 0.0 0 1 337.05 217.00
  L 343.17 217.00
  A 0.33 0.33 0.0 0 1 343.50 217.33
  L 343.50 251.17
  A 0.33 0.33 0.0 0 1 343.17 251.50
  L 336.36 251.50
  A 0.33 0.33 0.0 0 1 336.08 251.34
  L 323.33 230.59
  A 0.33 0.33 0.0 0 0 322.72 230.76
  L 322.76 251.15
  A 0.33 0.33 0.0 0 1 322.43 251.48
  L 316.33 251.51
  A 0.33 0.33 0.0 0 1 316.00 251.18
  L 316.00 217.33
  A 0.33 0.33 0.0 0 1 316.33 217.00
  L 322.82 217.00
  A 0.33 0.33 0.0 0 1 323.10 217.16
  L 336.19 238.52
  A 0.33 0.33 0.0 0 0 336.81 238.35
  Z"
/>
<rect fill="#2054a5" x="372.01" y="217.00" width="7.24" height="34.50" rx="0.31"/>
<path fill="#2054a5" d="
  M 414.94 245.50
  L 433.06 245.50
  A 0.44 0.44 0.0 0 1 433.50 245.94
  L 433.50 251.06
  A 0.44 0.44 0.0 0 1 433.06 251.50
  L 407.69 251.50
  A 0.44 0.44 0.0 0 1 407.25 251.06
  L 407.25 217.44
  A 0.44 0.44 0.0 0 1 407.69 217.00
  L 432.56 217.00
  A 0.44 0.44 0.0 0 1 433.00 217.44
  L 433.00 222.56
  A 0.44 0.44 0.0 0 1 432.56 223.00
  L 414.94 223.00
  A 0.44 0.44 0.0 0 0 414.50 223.44
  L 414.50 229.81
  A 0.44 0.44 0.0 0 0 414.94 230.25
  L 431.31 230.25
  A 0.44 0.44 0.0 0 1 431.75 230.69
  L 431.75 236.06
  A 0.44 0.44 0.0 0 1 431.31 236.50
  L 414.94 236.50
  A 0.44 0.44 0.0 0 0 414.50 236.94
  L 414.50 245.06
  A 0.44 0.44 0.0 0 0 414.94 245.50
  Z"
/>
</svg>
