<?xml version="1.0" encoding="UTF-8" standalone="no"?>
<!DOCTYPE svg PUBLIC "-//W3C//DTD SVG 1.1//EN" "http://www.w3.org/Graphics/SVG/1.1/DTD/svg11.dtd">
<svg xmlns="http://www.w3.org/2000/svg" version="1.1" viewBox="0 0 1437 396">
<path fill="#4abfaf" d="
  M 209.84 45.04
  Q 210.97 45.07 210.03 45.71
  C 186.98 61.39 157.66 70.44 129.61 66.00
  Q 128.52 65.82 129.48 65.28
  Q 166.69 44.00 209.84 45.04
  Z"
/>
<path fill="#4abfaf" d="
  M 150.05 81.20
  C 179.77 83.12 213.97 69.99 234.44 48.18
  A 0.99 0.97 -60.4 0 1 235.42 47.90
  L 252.51 52.47
  A 0.45 0.44 -62.3 0 1 252.73 53.19
  Q 241.28 66.70 232.46 72.96
  C 213.03 86.75 184.61 96.88 160.24 95.24
  Q 149.42 94.51 131.72 90.90
  Q 115.24 87.54 98.44 89.53
  Q 97.36 89.65 98.18 88.94
  L 112.49 76.49
  Q 113.79 75.36 115.48 75.67
  C 126.85 77.75 138.55 80.47 150.05 81.20
  Z"
/>
<path fill="#4abfaf" d="
  M 286.78 69.45
  C 270.25 84.91 257.29 101.69 237.45 110.93
  C 214.88 121.44 190.42 126.30 166.75 121.51
  C 154.66 119.06 142.47 116.20 131.54 115.98
  C 109.63 115.55 86.73 122.48 68.16 133.62
  Q 67.04 134.29 67.60 133.11
  Q 73.36 120.87 80.97 109.68
  A 1.63 1.60 -82.8 0 1 81.74 109.07
  Q 103.96 100.64 127.27 102.38
  C 138.16 103.19 153.26 107.32 163.81 108.67
  C 184.66 111.33 205.48 106.85 224.47 98.43
  C 244.72 89.45 256.61 75.48 271.02 60.53
  A 0.81 0.80 -53.6 0 1 271.99 60.38
  L 286.68 68.63
  A 0.51 0.51 0.0 0 1 286.78 69.45
  Z"
/>
<path fill="#233746" d="
  M 872.09 79.02
  L 890.14 86.45
  A 0.41 0.41 0.0 0 1 890.23 87.16
  L 869.91 101.92
  A 0.41 0.41 0.0 0 1 869.67 102.00
  L 854.03 102.00
  A 0.41 0.41 0.0 0 1 853.71 101.33
  L 871.62 79.14
  A 0.41 0.41 0.0 0 1 872.09 79.02
  Z"
/>
<path fill="#4abfaf" d="
  M 81.15 163.48
  C 71.00 170.71 63.42 179.49 54.40 187.89
  Q 54.00 188.26 54.03 187.72
  Q 54.90 174.33 57.94 161.27
  A 1.63 1.63 0.0 0 1 58.39 160.48
  C 82.69 136.33 122.83 124.39 156.31 131.19
  Q 167.29 133.42 178.25 135.76
  C 208.54 142.22 251.02 130.77 272.93 108.67
  C 284.37 97.15 292.10 88.80 302.65 81.20
  A 0.76 0.76 0.0 0 1 303.62 81.27
  L 315.50 92.58
  A 0.57 0.57 0.0 0 1 315.45 93.45
  Q 299.89 104.77 287.02 119.02
  Q 283.85 122.53 276.03 128.44
  C 253.38 145.57 220.24 154.64 192.06 150.41
  Q 187.24 149.69 164.69 144.81
  C 138.20 139.08 103.39 147.68 81.15 163.48
  Z"
/>
<path fill="#233746" d="
  M 886.37 196.98
  L 839.23 197.00
  A 0.37 0.37 0.0 0 0 838.90 197.20
  L 831.35 212.30
  A 0.37 0.37 0.0 0 1 831.02 212.50
  L 807.54 212.50
  A 0.37 0.37 0.0 0 1 807.21 211.96
  L 862.54 107.79
  A 0.37 0.37 0.0 0 1 863.20 107.79
  L 918.55 211.96
  A 0.37 0.37 0.0 0 1 918.22 212.50
  L 894.88 212.50
  A 0.37 0.37 0.0 0 1 894.56 212.30
  L 886.69 197.18
  A 0.37 0.37 0.0 0 0 886.37 196.98
  Z
  M 850.20 177.48
  A 0.38 0.38 0.0 0 0 850.54 178.02
  L 875.33 177.98
  A 0.38 0.38 0.0 0 0 875.67 177.43
  L 863.23 152.17
  A 0.38 0.38 0.0 0 0 862.55 152.17
  L 850.20 177.48
  Z"
/>
<path fill="#233746" d="
  M 1019.64 169.00
  L 1020.00 169.00
  A 0.25 0.25 0.0 0 0 1020.25 168.75
  L 1020.25 110.91
  A 0.40 0.40 0.0 0 1 1020.65 110.51
  L 1041.62 110.50
  A 0.63 0.62 -0.0 0 1 1042.25 111.12
  L 1042.25 215.11
  Q 1042.25 215.73 1041.78 215.32
  L 972.45 154.99
  Q 971.53 154.20 971.67 155.40
  Q 972.13 159.40 972.00 163.46
  C 971.55 176.41 971.72 189.42 971.76 202.38
  C 971.77 204.66 972.28 208.74 971.78 212.00
  A 0.59 0.58 3.9 0 1 971.20 212.50
  L 950.63 212.50
  A 0.63 0.62 -0.0 0 1 950.00 211.88
  L 950.00 107.97
  Q 950.00 107.22 950.56 107.72
  Q 984.56 137.84 1018.72 168.02
  Q 1019.07 168.33 1019.24 168.74
  A 0.44 0.43 -11.1 0 0 1019.64 169.00
  Z"
/>
<path fill="#233746" d="
  M 1349.63 196.99
  L 1302.48 196.99
  A 0.37 0.37 0.0 0 0 1302.15 197.19
  L 1294.60 212.30
  A 0.37 0.37 0.0 0 1 1294.27 212.50
  L 1270.77 212.50
  A 0.37 0.37 0.0 0 1 1270.44 211.96
  L 1325.79 107.78
  A 0.37 0.37 0.0 0 1 1326.45 107.79
  L 1381.78 211.96
  A 0.37 0.37 0.0 0 1 1381.45 212.50
  L 1358.12 212.50
  A 0.37 0.37 0.0 0 1 1357.80 212.30
  L 1349.95 197.19
  A 0.37 0.37 0.0 0 0 1349.63 196.99
  Z
  M 1313.40 177.58
  A 0.31 0.31 0.0 0 0 1313.68 178.03
  L 1338.67 177.98
  A 0.31 0.31 0.0 0 0 1338.95 177.53
  L 1326.41 151.98
  A 0.31 0.31 0.0 0 0 1325.85 151.98
  L 1313.40 177.58
  Z"
/>
<path fill="#4abfaf" d="
  M 218.89 165.68
  C 247.35 164.99 276.41 154.68 296.98 134.46
  C 309.43 122.21 316.12 115.45 327.59 108.38
  A 0.74 0.74 0.0 0 1 328.60 108.61
  L 337.18 122.17
  A 0.60 0.60 0.0 0 1 337.00 122.99
  C 325.24 130.53 315.75 140.16 305.65 149.64
  C 281.53 172.26 241.64 184.52 209.07 177.91
  Q 203.66 176.81 185.16 172.66
  C 156.75 166.29 123.04 173.59 98.92 189.82
  C 83.70 200.06 72.67 215.00 57.17 225.30
  A 0.47 0.47 0.0 0 1 56.45 225.01
  Q 54.72 216.35 54.20 207.54
  A 1.20 1.19 67.6 0 1 54.59 206.59
  C 65.73 196.54 77.47 183.85 88.96 176.22
  C 110.95 161.62 138.85 154.50 164.94 156.95
  C 183.31 158.68 200.01 166.13 218.89 165.68
  Z"
/>
<path fill="#233746" d="
  M 533.6497 161.2684
  A 54.88 52.91 -0.2 0 1 478.9547 214.3697
  A 54.88 52.91 -0.2 0 1 423.8903 161.6516
  A 54.88 52.91 -0.2 0 1 478.5853 108.5503
  A 54.88 52.91 -0.2 0 1 533.6497 161.2684
  Z
  M 511.38 161.50
  A 32.71 32.71 0.0 0 0 478.67 128.79
  A 32.71 32.71 0.0 0 0 445.96 161.50
  A 32.71 32.71 0.0 0 0 478.67 194.21
  A 32.71 32.71 0.0 0 0 511.38 161.50
  Z"
/>
<path fill="#233746" d="
  M 565.49 162.08
  C 565.06 133.23 589.38 110.10 617.55 108.91
  C 638.62 108.02 657.12 118.20 668.44 136.16
  A 0.54 0.54 0.0 0 1 668.18 136.95
  L 648.80 144.50
  A 0.73 0.73 0.0 0 1 647.95 144.25
  C 633.26 124.50 605.50 122.84 592.28 145.34
  C 580.81 164.84 592.59 189.41 614.47 193.80
  C 627.57 196.43 640.17 189.43 647.69 178.89
  A 1.10 1.09 28.2 0 1 648.97 178.51
  L 668.24 185.97
  A 0.49 0.49 0.0 0 1 668.48 186.68
  C 656.54 206.29 634.72 217.31 611.92 213.77
  C 586.14 209.76 565.88 188.66 565.49 162.08
  Z"
/>
<path fill="#233746" d="
  M 1152.51 182.45
  C 1135.75 144.31 1167.99 105.83 1207.08 109.05
  C 1225.55 110.57 1240.95 120.27 1250.87 135.98
  A 0.71 0.70 63.1 0 1 1250.53 137.02
  L 1231.24 144.53
  A 0.67 0.66 61.4 0 1 1230.47 144.30
  C 1223.43 134.62 1212.76 128.33 1200.65 128.93
  C 1179.88 129.97 1165.36 152.15 1171.95 171.41
  C 1181.18 198.36 1213.90 202.05 1230.25 178.87
  A 1.05 1.04 -62.0 0 1 1231.48 178.49
  L 1250.80 186.01
  A 0.48 0.48 0.0 0 1 1251.03 186.71
  C 1235.47 212.03 1204.72 221.71 1177.56 208.45
  Q 1160.22 199.98 1152.51 182.45
  Z"
/>
<path fill="#233746" d="
  M 725.87 152.25
  L 773.76 152.25
  A 0.26 0.26 0.0 0 1 774.02 152.51
  L 774.03 171.01
  A 0.73 0.73 0.0 0 1 773.30 171.74
  Q 753.11 171.76 732.51 171.75
  C 731.01 171.75 728.07 171.32 725.81 171.68
  A 0.52 0.51 85.4 0 0 725.38 172.19
  L 725.49 192.75
  A 0.51 0.51 0.0 0 0 726.00 193.25
  L 780.09 193.25
  A 0.40 0.40 0.0 0 1 780.49 193.65
  L 780.50 211.87
  A 0.63 0.62 -90.0 0 1 779.88 212.50
  L 703.75 212.50
  A 0.50 0.50 0.0 0 1 703.25 212.00
  L 703.25 111.00
  A 0.50 0.50 0.0 0 1 703.75 110.50
  L 780.00 110.50
  A 0.50 0.50 0.0 0 1 780.50 111.00
  L 780.50 129.23
  A 0.54 0.54 0.0 0 1 779.96 129.77
  L 726.10 129.70
  A 0.71 0.70 0.0 0 0 725.39 130.40
  L 725.49 151.87
  A 0.39 0.38 89.2 0 0 725.87 152.25
  Z"
/>
<rect fill="#233746" x="1087.26" y="110.50" width="22.24" height="102.00" rx="0.75"/>
<path fill="#4abfaf" d="
  M 241.89 193.81
  C 267.14 192.69 295.05 183.93 313.80 166.79
  C 323.92 157.55 333.66 147.86 345.15 140.25
  A 0.52 0.52 0.0 0 1 345.93 140.51
  L 351.24 156.28
  A 0.78 0.78 0.0 0 1 350.99 157.13
  Q 339.73 166.36 328.93 176.11
  Q 319.19 184.90 313.80 188.45
  C 296.49 199.83 274.45 206.29 254.19 207.66
  C 237.74 208.77 223.80 204.84 205.68 200.33
  C 170.43 191.55 127.73 203.01 101.57 228.32
  C 92.52 237.08 80.13 248.53 66.18 255.37
  A 0.61 0.60 67.1 0 1 65.35 255.03
  L 60.09 240.41
  A 0.71 0.70 65.4 0 1 60.40 239.55
  C 78.06 229.53 89.77 213.71 106.40 202.85
  C 131.57 186.40 165.80 179.14 195.26 186.26
  C 210.66 189.98 225.47 194.53 241.89 193.81
  Z"
/>
<path fill="#4abfaf" d="
  M 238.76 219.97
  C 262.51 225.08 288.55 220.54 310.55 210.76
  C 328.15 202.94 340.60 190.18 354.85 177.77
  Q 355.54 177.16 355.59 178.08
  L 356.69 198.50
  A 1.12 1.11 -22.4 0 1 356.31 199.40
  Q 348.69 206.22 346.41 208.17
  C 319.61 231.04 279.69 241.33 245.36 232.98
  Q 233.30 230.04 221.21 227.19
  C 184.67 218.56 142.91 231.29 115.72 257.20
  C 104.55 267.84 94.33 275.95 80.61 281.94
  A 0.61 0.60 -27.0 0 1 79.84 281.70
  L 71.78 268.52
  A 0.61 0.60 62.1 0 1 72.04 267.65
  C 86.96 260.86 98.14 250.75 110.12 239.87
  C 137.19 215.27 179.84 204.79 214.67 213.89
  Q 233.98 218.94 238.76 219.97
  Z"
/>
<path fill="#4abfaf" d="
  M 255.31 247.19
  C 287.06 255.39 326.73 246.74 353.00 226.49
  Q 353.58 226.04 353.43 226.76
  Q 350.89 238.94 346.51 250.58
  A 1.21 1.19 -2.7 0 1 345.88 251.26
  C 324.45 261.22 299.43 266.24 275.99 263.21
  C 262.18 261.42 247.05 255.16 232.18 252.79
  C 202.44 248.05 166.94 256.79 143.08 275.34
  C 132.28 283.74 117.96 298.00 100.88 305.89
  A 0.84 0.84 0.0 0 1 99.92 305.70
  L 88.98 293.88
  A 0.49 0.49 0.0 0 1 89.13 293.10
  C 104.83 285.91 114.88 277.29 129.19 264.95
  C 151.90 245.36 185.79 235.37 215.47 237.96
  C 229.24 239.16 246.22 244.84 255.31 247.19
  Z"
/>
<path fill="#233746" d="
  M 760.45 285.04
  C 752.02 278.97 753.90 266.56 761.54 261.32
  C 771.71 254.33 788.04 257.69 797.58 264.39
  A 0.81 0.81 0.0 0 1 797.77 265.54
  L 791.98 273.41
  A 0.50 0.50 0.0 0 1 791.31 273.55
  C 784.79 269.64 778.44 266.97 770.92 269.23
  C 767.24 270.34 765.18 273.52 768.53 276.69
  Q 769.74 277.83 771.37 278.12
  C 778.40 279.34 790.03 281.12 795.32 285.21
  C 802.64 290.88 801.98 303.86 795.32 309.26
  C 784.26 318.24 765.06 313.83 754.56 305.86
  A 0.55 0.54 36.3 0 1 754.44 305.12
  L 760.25 296.80
  A 0.49 0.49 0.0 0 1 760.96 296.70
  Q 769.78 303.55 780.98 303.24
  C 784.24 303.16 789.45 300.52 788.62 296.47
  C 787.56 291.29 772.26 290.55 767.29 288.70
  Q 763.65 287.34 760.45 285.04
  Z"
/>
<path fill="#233746" d="
  M 921.59 274.50
  C 915.79 267.38 906.22 266.62 899.54 271.17
  C 885.38 280.80 890.86 301.98 907.80 303.13
  Q 918.59 303.86 924.75 293.77
  Q 925.22 293.00 924.31 293.00
  L 904.90 293.00
  A 0.59 0.59 0.0 0 1 904.31 292.41
  L 904.24 283.51
  A 1.00 1.00 0.0 0 1 905.24 282.50
  L 936.72 282.50
  A 0.66 0.65 87.1 0 1 937.37 283.09
  C 939.67 305.86 917.24 320.43 897.09 311.64
  C 870.75 300.15 875.32 263.38 903.31 258.12
  Q 921.29 254.75 933.39 270.10
  A 0.52 0.51 -34.2 0 1 933.24 270.86
  L 924.21 276.10
  A 0.80 0.79 -44.1 0 1 923.38 276.09
  Q 922.34 275.43 921.59 274.50
  Z"
/>
<path fill="#233746" d="
  M 1149.72 285.71
  A 29.36 28.30 0.0 0 1 1120.36 314.01
  A 29.36 28.30 0.0 0 1 1091.00 285.71
  A 29.36 28.30 0.0 0 1 1120.36 257.41
  A 29.36 28.30 0.0 0 1 1149.72 285.71
  Z
  M 1137.77 285.73
  A 17.48 17.48 0.0 0 0 1120.29 268.25
  A 17.48 17.48 0.0 0 0 1102.81 285.73
  A 17.48 17.48 0.0 0 0 1120.29 303.21
  A 17.48 17.48 0.0 0 0 1137.77 285.73
  Z"
/>
<path fill="#233746" d="
  M 1195.67 292.14
  C 1185.70 290.05 1167.35 288.32 1168.23 273.60
  Q 1169.00 260.82 1182.79 258.33
  Q 1198.51 255.49 1210.90 264.56
  A 0.58 0.58 0.0 0 1 1211.03 265.37
  L 1205.10 273.48
  A 0.52 0.51 -54.7 0 1 1204.39 273.61
  Q 1199.16 270.05 1193.02 268.69
  C 1189.46 267.91 1181.86 268.15 1180.21 272.28
  Q 1179.22 274.77 1181.83 276.72
  Q 1183.44 277.92 1185.42 278.30
  C 1197.00 280.53 1213.61 281.62 1213.79 297.23
  C 1213.89 305.86 1208.14 311.19 1199.88 313.05
  Q 1182.86 316.88 1167.92 306.11
  A 0.84 0.84 0.0 0 1 1167.72 304.95
  L 1173.32 296.82
  A 0.50 0.49 -54.4 0 1 1174.01 296.70
  C 1180.69 301.66 1191.76 305.88 1199.41 301.45
  C 1205.38 298.00 1200.01 293.06 1195.67 292.14
  Z"
/>
<path fill="#233746" d="
  M 592.10 284.47
  C 592.19 276.89 591.83 267.66 592.05 259.34
  A 0.92 0.91 -88.7 0 1 592.97 258.45
  C 611.48 258.66 636.69 254.43 642.20 278.37
  C 645.39 292.26 639.76 306.58 625.62 311.27
  C 616.77 314.21 602.83 313.07 592.39 312.96
  A 0.38 0.37 90.0 0 1 592.02 312.58
  Q 591.94 298.50 592.10 284.47
  Z
  M 630.99 281.99
  C 629.10 267.83 615.76 268.04 604.58 268.88
  A 0.62 0.62 0.0 0 0 604.00 269.50
  L 604.00 302.41
  A 0.39 0.39 0.0 0 0 604.39 302.80
  C 614.47 302.72 627.03 304.45 630.23 292.49
  Q 631.67 287.10 630.99 281.99
  Z"
/>
<path fill="#233746" d="
  M 673.50 302.75
  L 702.00 302.75
  A 0.50 0.50 0.0 0 1 702.50 303.25
  L 702.50 312.50
  A 0.50 0.50 0.0 0 1 702.00 313.00
  L 661.50 313.00
  A 0.50 0.50 0.0 0 1 661.00 312.50
  L 661.00 259.10
  A 0.65 0.65 0.0 0 1 661.65 258.45
  L 702.07 258.45
  A 0.43 0.43 0.0 0 1 702.50 258.88
  L 702.50 268.12
  A 0.63 0.63 0.0 0 1 701.87 268.75
  L 673.50 268.75
  A 0.50 0.50 0.0 0 0 673.00 269.25
  L 673.00 280.25
  A 0.50 0.50 0.0 0 0 673.50 280.75
  L 698.37 280.75
  A 0.63 0.62 -0.0 0 1 699.00 281.37
  L 699.00 290.69
  A 0.44 0.44 0.0 0 1 698.54 291.13
  C 690.51 290.83 682.17 291.85 674.19 290.92
  A 1.07 1.07 0.0 0 0 673.00 291.98
  L 673.00 302.25
  A 0.50 0.50 0.0 0 0 673.50 302.75
  Z"
/>
<path fill="#233746" d="
  M 832.20 302.75
  L 860.84 302.75
  A 0.41 0.41 0.0 0 1 861.25 303.16
  L 861.25 312.59
  A 0.41 0.41 0.0 0 1 860.84 313.00
  L 820.16 313.00
  A 0.41 0.41 0.0 0 1 819.75 312.59
  L 819.75 258.95
  A 0.41 0.41 0.0 0 1 820.16 258.54
  L 860.83 258.41
  A 0.41 0.41 0.0 0 1 861.24 258.82
  L 861.26 268.34
  A 0.41 0.41 0.0 0 1 860.85 268.75
  L 832.08 268.75
  A 0.41 0.41 0.0 0 0 831.67 269.16
  L 831.79 280.34
  A 0.41 0.41 0.0 0 0 832.20 280.75
  L 857.34 280.75
  A 0.41 0.41 0.0 0 1 857.75 281.16
  L 857.75 290.56
  A 0.41 0.41 0.0 0 1 857.34 290.97
  L 832.07 291.28
  A 0.41 0.41 0.0 0 0 831.66 291.69
  L 831.79 302.34
  A 0.41 0.41 0.0 0 0 832.20 302.75
  Z"
/>
<path fill="#233746" d="
  M 1040.69 296.50
  L 1040.77 312.46
  A 0.54 0.54 0.0 0 1 1040.23 313.00
  L 1029.35 313.00
  A 0.45 0.45 0.0 0 1 1028.90 312.55
  L 1029.02 259.22
  A 0.80 0.80 0.0 0 1 1029.83 258.42
  Q 1041.92 258.57 1054.24 258.49
  C 1074.36 258.37 1080.02 286.34 1062.12 294.51
  A 0.29 0.29 0.0 0 0 1062.01 294.95
  L 1075.58 312.55
  Q 1075.92 312.99 1075.36 312.99
  L 1062.11 313.00
  A 1.04 1.03 -18.7 0 1 1061.29 312.60
  L 1048.95 296.46
  A 1.17 1.15 71.1 0 0 1048.03 296.00
  L 1041.19 296.00
  A 0.50 0.50 0.0 0 0 1040.69 296.50
  Z
  M 1057.55 269.96
  C 1054.31 267.80 1045.24 268.73 1041.24 268.79
  A 0.50 0.49 -90.0 0 0 1040.75 269.29
  L 1040.75 285.21
  A 0.51 0.50 1.2 0 0 1041.24 285.71
  C 1045.73 285.84 1054.26 286.70 1057.87 284.03
  C 1062.09 280.90 1062.27 273.09 1057.55 269.96
  Z"
/>
<path fill="#233746" d="
  M 1004.56 299.66
  C 997.67 319.03 964.75 318.94 958.41 298.93
  Q 957.36 295.61 957.29 287.31
  Q 957.18 273.16 957.28 258.98
  A 0.48 0.48 0.0 0 1 957.76 258.50
  L 968.46 258.50
  A 0.52 0.52 0.0 0 1 968.98 259.02
  Q 969.01 273.27 969.00 287.49
  C 969.00 291.68 969.11 295.72 971.58 299.05
  C 976.86 306.18 989.81 304.90 993.08 296.86
  Q 994.27 293.93 994.25 284.96
  Q 994.23 272.00 994.27 259.02
  A 0.52 0.52 0.0 0 1 994.79 258.50
  L 1005.45 258.50
  A 0.60 0.59 -90.0 0 1 1006.04 259.10
  Q 1005.98 272.89 1005.99 286.63
  Q 1006.00 295.63 1004.56 299.66
  Z"
/>
<path fill="#4abfaf" d="
  M 249.91 279.99
  C 223.70 275.87 192.94 281.65 170.18 295.21
  C 155.54 303.93 142.99 317.20 127.79 326.38
  A 0.97 0.97 0.0 0 1 126.73 326.35
  L 112.30 316.40
  A 0.45 0.45 0.0 0 1 112.35 315.63
  C 135.40 303.84 150.64 283.81 175.37 274.22
  C 202.43 263.73 230.01 261.41 257.57 270.20
  C 271.80 274.75 287.32 279.00 304.50 278.32
  Q 319.85 277.72 334.65 273.94
  Q 335.75 273.66 335.11 274.60
  L 323.55 291.22
  A 1.24 1.22 13.9 0 1 322.66 291.75
  Q 309.78 293.20 297.07 291.53
  C 281.86 289.54 265.98 282.51 249.91 279.99
  Z"
/>
<path fill="#4abfaf" d="
  M 253.12 305.67
  C 225.83 305.41 197.57 312.80 175.75 329.76
  Q 168.45 335.43 161.21 341.19
  A 1.06 1.04 -53.4 0 1 160.19 341.35
  L 142.72 334.77
  Q 141.96 334.48 142.61 333.99
  C 154.60 324.86 167.58 313.50 179.85 306.87
  C 205.23 293.16 236.42 288.56 264.25 294.19
  C 276.64 296.70 293.43 303.67 309.03 306.04
  Q 309.84 306.17 309.22 306.70
  L 299.19 315.32
  A 0.87 0.87 0.0 0 1 298.36 315.48
  C 282.72 310.20 268.93 305.83 253.12 305.67
  Z"
/>
<path fill="#4abfaf" d="
  M 264.81 332.63
  C 245.08 333.46 224.86 337.67 207.29 346.98
  C 202.14 349.71 185.77 346.85 179.76 345.75
  Q 179.27 345.66 179.65 345.34
  C 208.20 321.56 252.31 312.67 287.92 322.88
  Q 288.48 323.04 287.99 323.35
  Q 280.32 328.21 272.31 332.32
  C 270.46 333.26 266.65 332.55 264.81 332.63
  Z"
/>
</svg>
