<?xml version="1.0" encoding="utf-8"?>
<!-- Generator: Adobe Illustrator 24.2.3, SVG Export Plug-In . SVG Version: 6.00 Build 0)  -->
<svg version="1.1" class="svg-principal" id="Capa_1" xmlns="http://www.w3.org/2000/svg" xmlns:xlink="http://www.w3.org/1999/xlink" x="0px" y="0px"
	 viewBox="0 0 800 266" style="enable-background:new 0 0 800 266;" xml:space="preserve">
<style type="text/css">
	.svg-principal .st0{fill:#004990;}
	.svg-principal .st1{fill:#BB8D09;}
</style>
<g>
	<path class="st0" style="fill:#004990;" d="M215.1,47v-2.7l8.4,0.5h3.7h1.4c1.4,0,3.7-0.1,6.7-0.2c1.7-0.1,2.8-0.2,3.3-0.2c2.9,0,5.2,0.2,6.6,0.5
		c2.3,0.5,4.1,1.2,5.4,2.2c1.3,1,2.5,2.5,3.5,4.4s1.5,3.7,1.5,5.3c0,4.1-1.3,7.4-3.8,9.9c-2.6,2.5-5.8,3.8-9.7,3.8
		c-1.4,0-2.6-0.2-3.9-0.5c-1.2-0.3-2.4-0.8-3.4-1.5c-0.1-0.7-0.2-1.6-0.2-2.8c0.6,0,1.1,0.1,1.5,0.1c0.5,0,0.9,0,1.2,0
		c2,0,3.7-0.5,5-1.6c1.8-1.4,2.7-3.7,2.7-6.9c0-2.3-0.4-4.2-1.2-5.6c-0.8-1.5-1.7-2.4-2.8-3c-1.5-0.7-3.2-1.1-5-1.1
		c-1.7,0-3,0.3-3.7,0.8c-0.2,0.3-0.3,0.6-0.4,0.9l0.2,16.5l-0.1,1.4l0.1,1.5c0,0.3,0,0.8,0,1.4V73v4.6l-0.1,5.5
		c0,0.8,0.1,1.8,0.2,3.1l7,0.9c0.1,0.6,0.1,1,0.1,1.3s-0.1,0.8-0.2,1.5c-0.6,0.1-1,0.1-1.3,0.1c-0.7,0-2.1-0.1-4.1-0.3
		s-4.3-0.3-6.9-0.3c-2.9,0-5.6,0.2-8.3,0.6c-0.4,0.1-1.1,0.1-2.1,0.2c-0.1-0.7-0.1-1.2-0.1-1.5c0-0.2,0-0.5,0.1-1l2.1-0.7
		c1.5-0.4,2.7-1,3.8-1.6c0.2-0.7,0.3-1.3,0.3-1.9c0-0.2,0-0.5,0-0.8c0-0.7,0-1.7,0-3l-0.1-9.8l-0.4-11.1c-0.2-5.3-0.3-8.1-0.4-8.5
		c-0.2-0.7-0.4-1.2-0.8-1.6c-0.4-0.4-1.1-0.7-2-0.8C217,47.5,215.8,47.2,215.1,47z"/>
	<path class="st0" style="fill:#004990;" d="M251.3,89.9l0.1-2.4c0.4-0.1,1.2-0.3,2.3-0.5c1.8-0.3,2.9-0.7,3.3-0.9c0.4-0.3,0.9-1,1.4-2l7.1-18.5l8.3-21.7
		c0.8,0,1.5,0,2.2,0h1.6l0.3,0.6l6.1,14.4c1.4,3.1,2.6,6,3.7,8.9s2,5.2,2.8,7c0.5,1.1,1.1,2.7,1.9,4.9c0.4,1.2,1.1,2.7,1.9,4.5
		c0.5,1,0.8,1.6,1,1.7c0.4,0.3,1.1,0.6,2,0.7c0.9,0.1,2,0.4,3.1,0.8c0.1,0.8,0.2,1.3,0.2,1.7c0,0.2,0,0.4,0,0.8
		c-1.7,0-3.6-0.1-5.7-0.2c-2.1-0.2-3.9-0.2-5.6-0.2c-1.8,0-3.2,0-4,0.1l-5.9,0.3l-1.7,0.1c0-0.8,0-1.6,0.1-2.3l3.9-0.8
		c1.2-0.3,1.8-0.5,2-0.7s0.3-0.5,0.3-0.8s-0.1-0.6-0.2-0.9l-1.4-3.4l-2.7-6.9h-13.4c-0.5,1.1-1.5,3.9-3.1,8.2
		c-0.4,1.2-0.7,2.1-0.7,2.5c0,0.6,0.2,1,0.5,1.3c0.5,0.4,1.6,0.8,3.1,0.9c0.2,0,1,0.2,2.5,0.4c0,0.8,0,1.4,0,1.7s0,0.5-0.1,0.8
		c-1.4,0-4.9-0.2-10.4-0.6l-1.4,0.2c-1.7,0.3-3.4,0.4-4.9,0.4h-0.5V89.9z M267.8,70.3c5.5,0.1,8.7,0.1,9.6,0.1h0.9
		c-0.7-2.1-1.6-4.5-2.7-7.3s-2-4.9-2.7-6.3L267.8,70.3z"/>
	<path class="st0" style="fill:#004990;" d="M299.6,47.4l-0.1-2.4h3h1c1.4-0.1,2.4-0.1,2.9-0.1c0.3,0,1.1,0,2.4,0.1c0.3,0,0.6,0,0.8,0s0.9,0,2.2-0.1
		c1.3,0,2-0.1,2.1-0.1c0.3,0,0.6,0,1.1,0c3.6,3.3,6.5,6.1,8.8,8.4s10.5,10.6,24.8,24.7v-0.8l-0.1-4.1c-0.1-2.4-0.2-4.3-0.3-5.7
		c-0.1-1.4-0.2-3-0.2-5c0-1.9-0.1-3.7-0.2-5.2c-0.3-3.1-0.4-4.8-0.4-5.3c0-1.5-0.2-2.4-0.5-2.8c-0.5-0.5-1.6-0.9-3.4-1.2
		c-1.3-0.2-2.2-0.5-2.9-0.8v-2.1l0.9-0.1l6.9-0.2l7.7-0.2c0.5,0,1,0,1.5,0v2.3c-0.5,0.3-1.1,0.5-1.6,0.6c-1.5,0.4-2.4,0.6-2.6,0.7
		c-1.2,0.7-1.8,1.1-1.9,1.2c-0.2,0.3-0.3,0.7-0.3,1.3c0,0.1,0,0.6,0.1,1.5c0,0.4,0,1.4,0,2.9c0,3.4,0.1,6.1,0.3,8
		c0,0.6,0.1,1.3,0.1,2.1l0.4,12.3c0,0.9,0,1.5,0,1.8v4.3l0.1,1.8l-0.1,1.9c0.1,1,0.1,1.5,0.1,1.7v1.9l-4,0.1l-4.2-4.3l-8.5-8.4
		l-5.9-5.9l-4.4-4.5c-2.8-2.8-5.4-5.3-7.8-7.4l-5.7-5.1l0.3,13c0,0.8,0,1.6,0,2.4v2.5l0.2,4.6c0.1,1.9,0.2,4,0.4,6.2
		c0,0.6,0.1,1,0.2,1.3c0.1,0.2,0.2,0.6,0.4,1.1c0.9,0.3,2.9,0.6,5.9,0.7c0.2,0,0.5,0.1,0.9,0.2l0.1,2.8h-1.4c-0.7,0-3.1-0.2-7.1-0.5
		c-3.7,0-6.2,0.1-7.4,0.2c-1.2,0.1-1.9,0.1-2,0.1c-0.3,0-0.7,0-1.2-0.1c0-0.5-0.1-1-0.1-1.4c0-0.3,0-0.7,0-1.3
		c0.7-0.1,1.2-0.2,1.6-0.2c0.1,0,0.6,0,1.4,0.1c2,0,3.1-0.1,3.5-0.4c0.4-0.3,0.6-1.1,0.6-2.4c0.2-3.7,0.2-6,0.2-6.8v-1.9l0.1-11.4
		l-0.1-7.1c0-2.7-0.2-4.6-0.5-5.6c-0.1-0.5-0.4-1-0.8-1.4c-0.8-0.8-1.7-1.5-2.7-1.9C303.7,48.1,302.2,47.8,299.6,47.4z"/>
</g>
<g>
	<path class="st0" style="fill:#004990;" d="M232,148.3l0.1-2.4c0.4-0.1,1.2-0.3,2.3-0.5c1.8-0.3,2.9-0.7,3.3-0.9c0.4-0.3,0.9-1,1.4-2l7.1-18.5l8.3-21.7
		c0.8,0,1.5,0,2.2,0h1.6l0.3,0.6l6.1,14.4c1.4,3.1,2.6,6,3.7,8.9s2,5.2,2.8,7c0.5,1.1,1.1,2.7,1.9,4.9c0.4,1.2,1.1,2.7,1.9,4.5
		c0.5,1,0.8,1.6,1,1.7c0.4,0.3,1.1,0.6,2,0.7c0.9,0.1,2,0.4,3.1,0.8c0.1,0.8,0.2,1.3,0.2,1.7c0,0.2,0,0.4,0,0.8
		c-1.7,0-3.6-0.1-5.7-0.2c-2.1-0.2-3.9-0.2-5.6-0.2c-1.8,0-3.2,0-4,0.1l-5.9,0.3l-1.7,0.1c0-0.8,0-1.6,0.1-2.3l3.9-0.8
		c1.2-0.3,1.8-0.5,2-0.7s0.3-0.5,0.3-0.8s-0.1-0.6-0.2-0.9l-1.4-3.4l-2.7-6.9H247c-0.5,1.1-1.5,3.9-3.1,8.2
		c-0.4,1.2-0.7,2.1-0.7,2.5c0,0.6,0.2,1,0.5,1.3c0.5,0.4,1.6,0.8,3.1,0.9c0.2,0,1,0.2,2.5,0.4c0,0.8,0,1.4,0,1.7s0,0.5-0.1,0.8
		c-1.4,0-4.9-0.2-10.4-0.6l-1.4,0.2c-1.7,0.3-3.4,0.4-4.9,0.4H232V148.3z M248.4,128.7c5.5,0.1,8.7,0.1,9.6,0.1h0.9
		c-0.7-2.1-1.6-4.5-2.7-7.3s-2-4.9-2.7-6.3L248.4,128.7z"/>
	<path class="st0" style="fill:#004990;" d="M281.3,148.3l0.1-2.4c2.9-0.4,4.8-1,5.6-1.8c0.5-0.6,0.9-2,1.2-4.4l0.5-12.5l0.5-12.7c0-0.8,0.1-1.2,0.1-1.4
		c0-3.3-0.2-5.2-0.6-5.7s-1.9-1-4.5-1.5c-0.7-0.1-1.2-0.3-1.5-0.4c0-0.6-0.1-1.1-0.1-1.5v-1.1c0.9-0.1,1.9-0.1,3-0.1l10.2,0.4
		c0.2,0,0.6,0,1,0.1l1.6,0.1c0.4,0.5,0.8,1.1,1.2,1.9c0.9,1.7,2,4.2,3.4,7.5l0.4,0.9l5.4,11.9c0.1,0.3,0.3,0.7,0.6,1.2
		c0.4,0.8,0.8,1.6,1.1,2.4c0.4,0.8,0.8,1.6,1.2,2.5c0.4,0.9,0.8,1.7,1.1,2.4c0.3-0.6,0.6-1.2,0.9-1.9c0.9-2.1,1.8-4.1,2.7-5.9
		c1.5-3.2,3.6-8,6.3-14.6c0.4-1,1.1-2.6,2.1-4.7c1-2.1,1.5-3.2,1.6-3.3c0.2-0.2,0.6-0.3,1.3-0.3c0.2,0,0.6,0,1.1,0
		c1.2-0.1,2.7-0.1,4.4-0.2c2.4,0,4.4-0.1,5.9-0.2c1.5-0.1,2.3-0.2,2.5-0.2s0.5,0,0.8,0.1c0,0.3,0,0.6,0,0.8l-0.1,1
		c0,0.2,0,0.5,0,0.9c-2.2,0.3-4,0.8-5.4,1.5c-1,0.5-1.4,1-1.4,1.8v0.5l0.6,10.7c0.1,1,0.3,5.8,0.6,14.6c0.1,2,0.2,4.4,0.5,7.5
		c0,0.4,0.1,0.7,0.1,0.9c0,0.6,0.1,0.9,0.4,1.1c0.2,0.2,2.3,0.8,6.3,2c0,0.4,0,0.7,0,0.8c0,0.5,0,1,0,1.5c-0.6,0-2.2-0.1-4.8-0.4
		c-2.5-0.3-4.9-0.4-7.1-0.4c-3.4,0-6.7,0.1-9.9,0.4c-0.4,0-0.8,0.1-1.2,0.1l0.1-2.4c1-0.4,2.2-0.7,3.8-0.9c1.1-0.2,1.8-0.5,2.1-0.9
		c0.3-0.4,0.5-1.7,0.5-3.7c0-0.8,0-1.4,0-2c-0.1-2.4-0.2-5.9-0.2-10.2l-0.6-12.4c-0.1-1.7-0.2-3-0.2-3.6l-8.7,20
		c-0.2,0.5-0.5,1.1-0.9,2c-0.5,1.1-0.9,1.9-1.1,2.3c-1.8,4.3-3,7.6-3.7,9.9c-0.2,0.6-0.5,1.3-0.8,2.3h-2.7l-1.9-5.4
		c-0.6-1.4-1.5-3.5-2.9-6.4c-0.8-1.7-1.4-3-1.9-4c-0.2-0.4-0.4-0.7-0.5-0.9L301,131c0-0.1-0.1-0.3-0.1-0.4l-5.2-11.2l-3.2-6.8
		l-0.5,16.5l-0.2,10.7c0,1.8,0.3,3,1,3.8s2.1,1.4,4.3,1.9l1.7,0.4v2.6c-1.4,0-2.8-0.1-4.4-0.3s-3.6-0.3-6.2-0.3
		C287.7,148,285.4,148.1,281.3,148.3z"/>
	<path class="st0" style="fill:#004990;" d="M347,103.1c1.3,0.1,2.5,0.2,3.5,0.3c1.8,0.3,4,0.4,6.4,0.4c0.8,0,3-0.1,6.5-0.2c5.2-0.2,9.9-0.3,14.1-0.3
		l6.3-0.1c1.4,0,3.5,0.2,6.3,0.5c0.4,0.5,0.6,1.1,0.6,1.9v7.2l0.1,1.4c0,0.1,0,0.3,0,0.6l-1.4,0.1c-0.2,0-0.6,0-1.2-0.1
		c-0.2-0.5-0.5-1.2-0.8-2.1l-1.4-2.5c-0.5-1-1.3-2.1-2.2-3.2c-0.6-0.2-1.3-0.3-2.2-0.3c-0.2,0-0.9-0.1-2.1-0.2
		c-2.2-0.2-4.5-0.3-7-0.3c-2.8,0-5.4,0-7.6,0.1c-0.1,0.6-0.1,2.9-0.1,6.9v5.9v4.4c0.6,0.1,1.1,0.1,1.5,0.1c4.2,0,7.2-0.1,8.9-0.2
		c1.8-0.2,2.9-0.4,3.3-0.7s0.8-0.8,1.1-1.5c0.2-0.5,0.6-2.2,1.2-5.1h0.5h2c0.1,2.1,0.1,3.7,0.1,4.7c0,2.4,0,4-0.1,4.7
		c0,0.7-0.1,1.2-0.1,1.6c0,0.6,0,1.6,0.1,3s0.1,2.4,0.1,3.1v0.8h-2.5c-0.1-0.4-0.3-1.1-0.5-2.3c-0.5-2.2-0.9-3.5-1.3-4.1
		c-0.3-0.4-0.7-0.7-1.4-0.9c-0.5-0.2-2.2-0.2-5.2-0.2c-3.5,0-6.2,0.1-8,0.3c0,0.6,0,1,0,1.2c0,2.8,0,5.1,0.1,6.9l-0.1,7.6
		c0,0.9,0.3,1.5,0.9,1.8c1,0.5,3.9,0.7,8.8,0.7c3.2,0,6-0.2,8.3-0.7c1.6-0.4,2.9-1.1,4.1-2.3c1.6-1.6,2.9-3.8,4-6.6
		c0.7-0.1,1.3-0.1,1.8-0.1c0.3,0,0.6,0,1.2,0c-0.1,0.6-0.1,1.1-0.2,1.5l-0.2,1l-1.3,6.6l-0.6,4c-1.5,0.1-2.7,0.1-3.6,0.1
		c-1.3,0-4.8-0.1-10.5-0.4c-4-0.2-8.8-0.2-14.4-0.2c-2.8,0-6.2,0.1-10.3,0.3H351l-4.2,0.1v-2.2c0.4-0.1,1.3-0.2,2.7-0.4
		c2.4-0.3,4.1-0.7,5-1.1c0.3-0.7,0.4-1.5,0.4-2.6c0-0.4,0-1.1,0-2v-1.1l-0.1-13.2v-4l-0.2-5.6v-4l-0.3-4.3c0-0.1,0-0.4-0.1-0.7
		c-0.2-0.3-0.6-0.4-1-0.5c-0.3,0-0.6-0.1-1-0.2c-1.3-0.3-2.6-0.4-3.8-0.5c-0.4,0-1-0.1-1.5-0.1L347,103.1z"/>
	<path class="st0" style="fill:#004990;" d="M399.3,146.2c0.6-0.3,1.5-0.6,2.7-0.7s2.3-0.4,3.2-0.8c0.1-0.5,0.2-0.8,0.2-1c0-0.3,0.1-1.4,0.1-3.4v-7.8
		l0.1-4.2l-0.1-3.3l0.1-1.9c0.1-2.5,0.1-4.9,0.1-7.1c0-4.9-0.1-8-0.2-9.3l-2.1-0.4c-1.9-0.1-3.1-0.2-3.8-0.4l-0.1-2.1l0.1-0.4
		c1.2-0.2,2.2-0.3,3.2-0.3c0.5,0,1.6,0,3.3,0c1.7,0.1,2.6,0.2,2.7,0.2l1.9-0.1l4.4-0.2c2.7-0.3,5.6-0.4,8.6-0.4
		c4.8,0,8.6,1.2,11.4,3.7c2.8,2.4,4.2,5.2,4.2,8.4c0,2.4-0.8,4.5-2.3,6.4s-3.9,3.4-7,4.4c0.3,0.5,0.7,1.1,1.1,1.7
		c1,1.4,1.8,2.6,2.4,3.6l5.6,9.1c1.4,2.4,2.3,3.8,2.7,4.2c0.4,0.4,1.3,0.9,2.7,1.3c1,0.4,1.9,0.8,2.4,1.2c0.1,0.4,0.2,0.7,0.2,1
		c0,0.2,0,0.5,0,0.8h-0.9h-0.7l-1.8-0.2h-1.4c-0.7-0.1-1.7-0.2-2.8-0.2H436c-0.3,0-1.1,0.1-2.4,0.2c-0.6,0.1-1.1,0.1-1.5,0.2
		l-1.2-2.3c-1-1.7-1.7-3.1-2.1-3.9c-1-2.3-2.8-5.9-5.3-10.8c-1.2-2.3-2-3.6-2.4-3.9c-0.7-0.5-1.9-0.7-3.6-0.7c-0.5,0-1.3,0-2.4,0.1
		c-0.1,0.7-0.1,1.5-0.1,2.4l0.2,7.8l-0.2,6.6c0.7,0.4,1.5,0.7,2.6,0.9c1.8,0.4,3.4,0.8,4.7,1.3c0,1.1,0,2-0.1,2.6
		c-0.4,0-0.7,0-0.8,0l-1.4,0.1c-5-0.4-8-0.7-8.9-0.7c-0.6,0-1,0-1.3,0l-4.8,0.3c-1.5,0.2-2.8,0.2-4,0.2h-1.5c0-0.6-0.1-1-0.1-1.1
		C399.2,147,399.2,146.7,399.3,146.2z M415.1,123.6c1.1,0,1.9,0.1,2.4,0.1c4,0,6.8-0.7,8.4-2.1c1.7-1.4,2.5-3.3,2.5-5.7
		c0-1.5-0.2-2.9-0.6-4.1c-0.4-1.3-0.9-2.3-1.5-2.9c-0.9-0.9-2-1.6-3.4-2.1c-1-0.4-2.7-0.5-4.9-0.5c-1.1,0-2,0.1-2.8,0.2l-0.1,0.7
		l0.1,4.7l-0.1,2.9v3.8c0,1.1-0.1,2.5-0.1,4.2v0.8H415.1z"/>
	<path class="st0" style="fill:#004990;" d="M449.2,148.4v-2.5c0.5-0.1,1.2-0.3,2.3-0.6c1.5-0.4,2.6-0.8,3.4-1.2c0.4-0.7,0.6-1.7,0.6-3V137l0.1-8v-1.9
		c0.2-4.6,0.3-7,0.3-7.1l-0.1-4.7l0.1-1.9l-0.2-4l-0.1-1.5c0-0.2-0.1-0.6-0.2-1.1c-1-0.4-2.5-0.7-4.7-0.8c-0.5,0-0.9-0.1-1.2-0.1
		l-0.1-3.1l10,0.4c1.2,0,2,0.1,2.3,0.1c1.4,0,3.6-0.1,6.6-0.3c1.7-0.1,2.8-0.2,3.2-0.2c0,0.4,0,0.8,0,1.1c0,0.4,0,0.9-0.1,1.5
		c-0.9,0.3-2,0.6-3.2,0.9c-1.2,0.3-2.2,0.6-2.9,0.9c-0.1,0.6-0.2,1.5-0.2,2.6c0,1,0,1.8,0.1,2.4c-0.1,3.9-0.1,7-0.1,9.1v9.2
		l-0.2,4.7l0.1,7l-0.1,1.3c0,0.2,0.1,0.5,0.2,0.8c1.4,0.3,2.7,0.5,3.9,0.6c0.2,0,0.9,0.1,2.1,0.3c0.1,0.7,0.1,1.3,0.1,1.7
		c0,0.3,0,0.7,0,1.2c-0.3,0-0.5,0-0.7,0c-0.7,0-1.2,0.1-1.3,0.1c-0.2,0-0.5,0-0.9-0.1c-0.3,0-1.9-0.2-4.6-0.5l-6.2-0.1
		c-1.2,0-3,0.1-5.4,0.4C450.7,148.3,449.7,148.3,449.2,148.4z"/>
	<path class="st0" style="fill:#004990;" d="M517.7,103.8c0.3,0.7,0.9,2.7,1.9,6c0.4,1.5,0.6,3.1,0.7,4.8H517c-2.2-3.2-4.5-5.5-6.9-6.8
		c-2.4-1.4-5-2.1-8-2.1c-3.6,0-6.5,1.4-8.7,4.2c-3,3.8-4.5,9.2-4.5,16c0,4,0.3,6.8,0.8,8.5c0.8,2.7,1.9,5,3.2,6.7
		c1,1.3,2.3,2.3,3.8,3.1c2.1,1,4.2,1.6,6.6,1.6c2.6,0,5-0.8,7.4-2.4c2.4-1.6,4.7-4,6.9-7.1c0.9-0.2,2-0.3,3.4-0.3
		c-0.1,0.9-0.2,1.8-0.5,2.8c-0.1,0.4-0.3,1.8-0.8,4.4l-0.3,1l-0.5,1.6c-1.4,1.1-3.4,1.9-6,2.5c-2.6,0.5-5.7,0.8-9.5,0.8
		c-2.9,0-5.6-0.3-8.1-0.8c-2.6-0.5-4.7-1.4-6.6-2.6c-2.7-1.7-4.7-3.5-6.3-5.5c-1.5-2-2.6-4.1-3.4-6.4c-0.7-2.3-1.1-4.9-1.1-7.8
		c0-6.9,2.3-12.7,6.9-17.2s10.4-6.8,17.5-6.8c2.9,0,5.6,0.1,8.2,0.4C513.1,102.8,515.5,103.2,517.7,103.8z"/>
	<path class="st0" style="fill:#004990;" d="M522.3,148.3l0.1-2.4c0.4-0.1,1.2-0.3,2.3-0.5c1.8-0.3,2.9-0.7,3.3-0.9c0.4-0.3,0.9-1,1.4-2l7.1-18.5l8.3-21.7
		c0.8,0,1.5,0,2.2,0h1.6l0.3,0.6l6.1,14.4c1.4,3.1,2.6,6,3.7,8.9c1.1,2.9,2,5.2,2.8,7c0.5,1.1,1.1,2.7,1.9,4.9
		c0.4,1.2,1.1,2.7,1.9,4.5c0.5,1,0.8,1.6,1,1.7c0.4,0.3,1.1,0.6,2,0.7c0.9,0.1,2,0.4,3.1,0.8c0.1,0.8,0.2,1.3,0.2,1.7
		c0,0.2,0,0.4,0,0.8c-1.7,0-3.6-0.1-5.7-0.2c-2.1-0.2-3.9-0.2-5.6-0.2c-1.8,0-3.2,0-4,0.1l-5.9,0.3l-1.7,0.1c0-0.8,0-1.6,0.1-2.3
		l3.9-0.8c1.2-0.3,1.8-0.5,2-0.7s0.4-0.5,0.4-0.8s-0.1-0.6-0.2-0.9l-1.4-3.4l-2.7-6.9h-13.4c-0.5,1.1-1.5,3.9-3.1,8.2
		c-0.4,1.2-0.7,2.1-0.7,2.5c0,0.6,0.2,1,0.5,1.3c0.5,0.4,1.6,0.8,3.1,0.9c0.2,0,1,0.2,2.5,0.4c0,0.8,0,1.4,0,1.7s0,0.5-0.1,0.8
		c-1.4,0-4.9-0.2-10.4-0.6l-1.4,0.2c-1.7,0.3-3.4,0.4-4.9,0.4h-0.6V148.3z M538.8,128.7c5.5,0.1,8.7,0.1,9.6,0.1h0.9
		c-0.7-2.1-1.6-4.5-2.7-7.3c-1.1-2.8-2-4.9-2.7-6.3L538.8,128.7z"/>
	<path class="st0" style="fill:#004990;" d="M570.6,105.8l-0.1-2.4h3h1c1.4-0.1,2.4-0.1,2.9-0.1c0.3,0,1.1,0,2.4,0.1c0.3,0,0.6,0,0.8,0s0.9,0,2.2-0.1
		c1.3,0,2-0.1,2.1-0.1c0.3,0,0.6,0,1.1,0c3.6,3.3,6.5,6.1,8.8,8.4c2.3,2.4,10.5,10.6,24.8,24.7v-0.9l-0.1-4.1
		c-0.1-2.4-0.2-4.3-0.3-5.6c-0.1-1.4-0.2-3-0.2-5c0-1.9-0.1-3.7-0.2-5.2c-0.3-3.1-0.4-4.8-0.4-5.3c0-1.5-0.2-2.4-0.5-2.8
		c-0.5-0.5-1.6-0.9-3.4-1.2c-1.3-0.2-2.2-0.5-2.9-0.8v-2.1l0.9-0.1l6.9-0.2l7.7-0.2c0.5,0,1,0,1.5,0v2.3c-0.5,0.3-1.1,0.5-1.6,0.6
		c-1.5,0.4-2.4,0.6-2.6,0.7c-1.2,0.7-1.8,1.1-1.9,1.2c-0.2,0.3-0.3,0.7-0.3,1.3c0,0.1,0,0.6,0.1,1.5c0,0.4,0,1.4,0,2.9
		c0,3.4,0.1,6.1,0.3,8c0,0.6,0.1,1.3,0.1,2.1l0.4,12.3c0,0.9,0,1.5,0,1.8v4.3l0.1,1.8l-0.1,1.9c0.1,1,0.1,1.5,0.1,1.7v1.9l-4,0.1
		l-4.2-4.3l-8.5-8.4l-5.9-5.9l-4.4-4.5c-2.8-2.8-5.4-5.3-7.8-7.4l-5.7-5.1l0.3,13c0,0.8,0,1.6,0,2.4v2.5l0.2,4.6
		c0.1,1.9,0.2,4,0.4,6.2c0,0.6,0.1,1,0.2,1.3c0.1,0.2,0.2,0.6,0.4,1.1c0.9,0.3,2.9,0.6,5.9,0.7c0.2,0,0.5,0.1,0.9,0.2l0.1,2.8h-1.4
		c-0.7,0-3.1-0.2-7.1-0.5c-3.7,0-6.2,0.1-7.4,0.2c-1.2,0.1-1.9,0.1-2,0.1c-0.3,0-0.7,0-1.2-0.1c0-0.5-0.1-1-0.1-1.4
		c0-0.3,0-0.7,0-1.3c0.7-0.1,1.2-0.2,1.6-0.2c0.1,0,0.6,0,1.4,0.1c2,0,3.1-0.1,3.5-0.4c0.4-0.3,0.6-1.1,0.6-2.4
		c0.2-3.7,0.2-6,0.2-6.8v-1.9l0.1-11.4l-0.1-7.1c0-2.7-0.2-4.6-0.5-5.6c-0.1-0.5-0.4-1-0.8-1.4c-0.8-0.8-1.7-1.5-2.7-1.9
		C574.8,106.5,573.2,106.2,570.6,105.8z"/>
</g>
<g>
	<path class="st1" style="fill:#BB8D09;" d="M385.1,218.9c-0.2,0-0.4,0-0.6-0.1s-0.3-0.2-0.3-0.4c0-0.4,0.3-0.7,0.9-0.9c1.1-0.2,1.8-0.5,2.2-0.9
		c0.4-0.3,0.6-1,0.6-1.9v-18.9c0-0.9-0.2-1.5-0.5-1.9c-0.4-0.4-1.1-0.7-2.2-0.9c-0.6-0.1-0.9-0.4-0.9-0.9c0-0.2,0.1-0.3,0.3-0.5
		c0.2-0.1,0.4-0.2,0.6-0.2c0.6,0,1.3,0,2,0s1.4,0.1,2.1,0.1s1.3,0.1,1.9,0.1s1.2,0,1.9,0c0.7,0,1.4-0.1,2.2-0.1c0.7,0,1.4,0,2,0
		c0.3,0,0.4,0,0.6,0.1s0.2,0.2,0.2,0.4c0,0.3-0.1,0.5-0.2,0.6c-0.2,0.1-0.4,0.2-0.7,0.3c-1.1,0.3-1.9,0.6-2.2,1
		c-0.4,0.4-0.5,1-0.5,1.9v18.8c0,0.8,0.2,1.4,0.6,1.8s1.1,0.7,2.2,1c0.3,0.1,0.5,0.2,0.6,0.3c0.2,0.1,0.2,0.3,0.2,0.5
		s-0.1,0.3-0.2,0.5c-0.1,0.1-0.3,0.2-0.6,0.2c-0.6,0-1.3,0-2-0.1c-0.8,0-1.5-0.1-2.2-0.1s-1.4,0-1.9,0c-0.6,0-1.2,0-1.9,0
		c-0.7,0-1.4,0.1-2.1,0.1C386.4,218.9,385.8,218.9,385.1,218.9z"/>
	<path class="st1" style="fill:#BB8D09;" d="M427.3,219.6c-0.4,0-0.9-0.2-1.8-0.6c-0.8-0.4-1.6-1.2-2.5-2.3c-0.7-0.7-1.4-1.4-2.1-2.2
		c-0.7-0.8-1.5-1.6-2.3-2.5s-1.6-1.7-2.4-2.6s-1.6-1.8-2.4-2.6c-0.8-0.9-1.6-1.7-2.4-2.6s-1.6-1.7-2.3-2.5c-0.7-0.8-1.4-1.6-2.1-2.2
		c-0.1-0.1-0.1-0.2-0.3-0.3c-0.1-0.1-0.2-0.1-0.3-0.1c-0.1,0-0.2,0.1-0.2,0.3c0,0.2-0.1,0.4-0.1,0.5c0,1.3,0,2.8,0,4.5
		s0.1,3.5,0.1,5.2c0,1.8,0.1,3.4,0.1,4.8c0,0.9,0.3,1.6,0.8,2.1c0.6,0.5,1.4,0.9,2.5,1.2c0.3,0.1,0.6,0.1,0.8,0.3
		c0.2,0.1,0.4,0.3,0.4,0.6c0,0.2-0.1,0.3-0.3,0.5c-0.2,0.1-0.5,0.2-0.7,0.2c-0.8,0-1.4,0-1.8-0.1c-0.5,0-0.9-0.1-1.3-0.1
		s-0.9,0-1.5,0s-1.2,0-1.7,0s-1,0.1-1.4,0.1s-0.6,0-0.8,0c-0.2,0-0.4,0-0.6-0.1s-0.4-0.2-0.4-0.4c0-0.2,0.1-0.4,0.3-0.5
		c0.2-0.1,0.5-0.2,0.8-0.3c0.7-0.3,1.2-0.7,1.5-1.2c0.3-0.6,0.6-1.3,0.6-2.2c0.1-1,0.2-2.4,0.4-4.1c0.1-1.7,0.2-3.6,0.4-5.7
		c0.1-2.1,0.2-4.3,0.2-6.6c0-1.4-0.4-2.5-1.1-3.1s-1.6-1.2-2.7-1.5c-0.2-0.1-0.5-0.2-0.8-0.3c-0.3-0.2-0.4-0.4-0.4-0.6
		c0-0.3,0.1-0.4,0.3-0.5s0.5-0.1,0.8-0.1c0.5,0,1.1,0,1.7,0s1.3,0,2,0.1c0.7,0,1.4,0,2.2,0.1c0.8,0,1.5,0,2.3,0c0.2,0,0.4,0,0.5,0.1
		s0.2,0.2,0.4,0.3c0.6,0.7,1.3,1.4,2,2.2s1.5,1.6,2.2,2.5c0.8,0.9,1.6,1.8,2.4,2.7c0.8,0.9,1.6,1.8,2.4,2.7c0.8,0.9,1.6,1.8,2.3,2.7
		c0.8,0.9,1.5,1.7,2.2,2.5s1.4,1.6,2,2.2c0.1,0.1,0.2,0.2,0.3,0.4c0.1,0.1,0.2,0.2,0.4,0.2c0.2,0,0.3-0.2,0.3-0.6c0-0.9,0-1.9,0-3
		s0-2.3,0-3.6c0-1.3,0-2.5,0-3.8c0-1.2,0-2.4-0.1-3.5c0-0.7-0.3-1.3-0.9-1.7c-0.5-0.4-1.3-0.7-2.2-0.9c-0.3-0.1-0.6-0.2-0.8-0.3
		c-0.2-0.1-0.3-0.3-0.3-0.6c0-0.2,0.1-0.3,0.3-0.4c0.2-0.1,0.5-0.1,0.7-0.1c0.6,0,1.2,0,1.6,0s0.8,0,1.2,0c0.4,0,0.8,0,1.2,0
		c0.6,0,1,0,1.4,0s0.8,0,1.3-0.1c0.5,0,1.1,0,1.8,0c0.3,0,0.6,0.1,0.8,0.2c0.2,0.1,0.3,0.3,0.3,0.5c0,0.4-0.4,0.7-1.1,0.8
		c-1,0.2-1.7,0.5-2.1,0.8c-0.4,0.4-0.6,0.9-0.7,1.7c0,1,0,2.1,0,3.2s0,2.3-0.1,3.5s-0.1,2.4-0.1,3.6s-0.1,2.3-0.1,3.4s0,2.1,0,3
		c0,0.6,0,1.3,0.1,2.1c0.1,0.8,0.2,1.5,0.2,2.1c0.1,0.6,0.1,1.1,0.1,1.3c0,0.7-0.1,1.2-0.3,1.5C427.9,219.5,427.6,219.6,427.3,219.6
		z"/>
	<path class="st1" style="fill:#BB8D09;" d="M441.8,219.4c-1.2,0-2.4-0.1-3.5-0.4s-2.2-0.7-3.1-1.3c-0.2-0.1-0.3-0.3-0.5-0.5s-0.3-0.3-0.4-0.5
		c-0.3-0.7-0.5-1.7-0.6-2.7c-0.1-1.1-0.1-2.2-0.1-3.3c0-0.2,0.1-0.3,0.3-0.4c0.2-0.1,0.4-0.1,0.6-0.1c0.3,0,0.5,0,0.6,0.1
		s0.2,0.2,0.3,0.4c0.6,2.1,1.5,3.8,2.7,5c1.2,1.3,2.6,1.9,4.2,1.9c0.9,0,1.6-0.2,2.2-0.6s1-0.9,1.3-1.5s0.5-1.3,0.5-1.9
		c0-0.9-0.2-1.6-0.5-2.2s-0.9-1.2-1.6-1.7s-1.6-1-2.7-1.6c-1.2-0.7-2.3-1.4-3.4-2.1s-2-1.6-2.7-2.7s-1-2.4-1-4s0.4-3.1,1.3-4.2
		c0.8-1.2,2-2.1,3.5-2.8c1.5-0.7,3.1-1,5-1c1.1,0,2.1,0.1,3,0.3c1,0.2,1.7,0.4,2.3,0.7c0.3,0.1,0.6,0.3,0.7,0.5
		c0.2,0.2,0.3,0.5,0.4,0.9c0.1,0.6,0.3,1.3,0.4,2.1c0.1,0.8,0.1,1.7,0.1,2.7c0,0.4-0.3,0.5-0.8,0.5c-0.3,0-0.5-0.1-0.7-0.2
		s-0.3-0.3-0.4-0.5c-0.5-1.7-1.2-2.9-2.1-3.8s-2.1-1.3-3.4-1.3c-0.8,0-1.5,0.1-2.1,0.4s-1,0.7-1.3,1.2s-0.4,1.2-0.4,2.1
		c0,0.7,0.2,1.3,0.7,1.9s1.1,1.1,2,1.7s1.9,1.2,3,1.9c1.5,0.9,2.7,1.8,3.6,2.6c0.9,0.9,1.5,1.8,1.9,2.7c0.4,1,0.6,2.1,0.6,3.3
		c0,1.9-0.4,3.5-1.2,4.7c-0.8,1.2-2,2.2-3.5,2.8C445.6,219.1,443.8,219.4,441.8,219.4z"/>
	<path class="st1" style="fill:#BB8D09;" d="M471.3,219.4c-2.6,0-4.8-0.5-6.6-1.4c-1.8-0.9-3.1-2.2-4-3.9c-0.9-1.7-1.3-3.6-1.3-5.8v-11.9
		c0-0.8-0.2-1.5-0.5-2.1c-0.4-0.6-0.9-1-1.6-1.2c-0.8-0.2-1.2-0.5-1.2-0.9c0-0.2,0.1-0.3,0.3-0.5c0.2-0.1,0.5-0.2,0.8-0.2
		c0.9,0,1.8,0,2.8,0.1s1.8,0.1,2.7,0.1c0.8,0,1.7,0,2.8-0.1c1.1-0.1,2-0.1,2.8-0.1c0.3,0,0.6,0,0.8,0.1c0.2,0.1,0.3,0.3,0.3,0.5
		c0,0.3-0.2,0.5-0.6,0.7c-0.4,0.1-0.9,0.3-1.3,0.5s-0.8,0.5-1.1,1c-0.3,0.5-0.5,1.2-0.5,2.2v10.9c0,1.9,0.3,3.4,0.9,4.7
		c0.6,1.2,1.4,2.1,2.4,2.7s2.2,0.9,3.4,0.9c2.5,0,4.4-0.7,5.7-2.2c1.2-1.5,1.9-3.8,1.9-6.9c0-0.7,0-1.5,0-2.4s0-1.8,0-2.8
		s0-1.9,0-2.7c0-1.2-0.1-2.2-0.3-2.9c-0.2-0.7-0.4-1.2-0.7-1.6c-0.3-0.4-0.7-0.7-1.3-1c-0.3-0.2-0.7-0.3-1.1-0.4s-0.6-0.3-0.6-0.6
		c0-0.2,0.1-0.4,0.3-0.5c0.2-0.1,0.5-0.1,0.9-0.1c1,0,1.8,0,2.3,0s1.1,0,1.7,0c0.5,0,1,0,1.3,0s0.7-0.1,1.1-0.1s0.8,0,1.4,0
		c0.3,0,0.6,0,0.8,0.1c0.2,0.1,0.3,0.3,0.3,0.5c0,0.4-0.4,0.7-1.1,0.9c-0.9,0.2-1.6,0.7-1.9,1.3c-0.4,0.6-0.6,1.4-0.6,2.4
		c-0.1,2.1-0.1,4-0.2,5.8c0,1.8,0,3.6,0,5.4c0,2.2-0.5,4.2-1.5,6c-1,1.7-2.3,3.1-4,4.1C475.3,218.9,473.4,219.4,471.3,219.4z"/>
	<path class="st1" style="fill:#BB8D09;" d="M513.8,219.7c-1.4,0-2.6-0.2-3.6-0.5s-1.8-0.8-2.5-1.4s-1.3-1.2-1.8-1.9c-0.6-0.8-1.2-1.6-1.8-2.4
		c-0.6-0.8-1.1-1.7-1.7-2.6s-1.1-2-1.8-3.2c-0.3-0.6-0.7-1-1.1-1.3c-0.3-0.2-0.5-0.3-0.8-0.3c-0.3-0.1-0.5-0.1-0.7-0.1
		c-0.1,0-0.3,0.1-0.3,0.2c-0.1,0.2-0.1,0.4-0.1,0.6v8c0,0.9,0.2,1.5,0.7,1.9s1.3,0.7,2.5,1c0.3,0.1,0.5,0.1,0.7,0.3
		c0.2,0.1,0.2,0.3,0.2,0.6c0,0.2-0.1,0.3-0.2,0.5s-0.3,0.2-0.6,0.2c-0.6,0-1.3,0-2.1-0.1c-0.8,0-1.6-0.1-2.4-0.1s-1.5,0-2,0
		c-0.6,0-1.2,0-1.9,0c-0.7,0-1.4,0.1-2.2,0.1c-0.7,0-1.4,0.1-2,0.1c-0.2,0-0.4,0-0.6-0.1s-0.3-0.2-0.3-0.4c0-0.4,0.3-0.7,0.9-0.9
		c1.1-0.2,1.8-0.5,2.2-0.9c0.4-0.3,0.6-1,0.6-1.9v-18.7c0-0.7-0.1-1.2-0.2-1.6s-0.4-0.7-0.7-0.9c-0.4-0.2-0.9-0.4-1.6-0.5
		c-0.4-0.1-0.6-0.2-0.8-0.4c-0.1-0.2-0.2-0.3-0.2-0.5s0.1-0.3,0.3-0.4c0.2-0.1,0.4-0.2,0.7-0.2c0.9,0,1.6,0,2.2,0.1s1.1,0.1,1.6,0.1
		s1.1,0.1,1.8,0.1c0.6,0,1.2,0,1.7-0.1s1-0.1,1.7-0.2c0.6-0.1,1.4-0.1,2.4-0.1c3.3,0,5.8,0.6,7.5,1.7c1.8,1.1,2.6,2.8,2.6,5
		c0,1.2-0.3,2.3-0.8,3.1c-0.5,0.8-1.2,1.5-2,2.1c-0.8,0.5-1.7,1-2.5,1.2c-0.1,0-0.2,0.1-0.1,0.2c0,0.1,0,0.2,0.1,0.3
		c0.8,1.2,1.7,2.4,2.4,3.6c0.8,1.2,1.6,2.2,2.4,3.2s1.7,1.9,2.6,2.7c0.9,0.9,1.9,1.4,2.9,1.6s2,0.2,2.9,0.2c0.4,0,0.6,0.3,0.6,0.8
		c0,0.6-0.2,1.1-0.6,1.5c-0.4,0.4-1,0.6-1.8,0.8C515.7,219.6,514.8,219.7,513.8,219.7z M499.3,204.5c1.1,0,1.9-0.2,2.6-0.7
		s1.2-1.1,1.6-1.9s0.5-1.8,0.5-2.8c0-1.3-0.2-2.3-0.5-3.2c-0.3-0.9-0.8-1.5-1.5-1.9s-1.5-0.6-2.6-0.6c-0.6,0-1.1,0.2-1.3,0.7
		c-0.3,0.5-0.4,1.5-0.4,3.1c0,0.6,0,1.4,0,2.4s0,2.1,0,3.5c0,0.6,0.1,1,0.4,1.2C498.4,204.4,498.8,204.5,499.3,204.5z"/>
	<path class="st1" style="fill:#BB8D09;" d="M519.9,219c-0.3,0-0.6,0-0.8-0.1s-0.3-0.3-0.3-0.5c0-0.3,0.1-0.5,0.3-0.6s0.4-0.2,0.7-0.3
		c0.8-0.2,1.5-0.6,2.1-1c0.6-0.5,1.1-1.1,1.4-1.7c0.7-1.6,1.4-3.1,2-4.6s1.2-3,1.8-4.5s1.2-3,1.8-4.5s1.2-3.1,1.8-4.7
		c0.4-1.1,0.7-2,0.8-2.5s0.2-0.8,0.3-0.9c0.5-0.1,1-0.3,1.4-0.4s0.9-0.3,1.4-0.5s0.9-0.4,1.3-0.7c0.3-0.3,0.6-0.5,0.8-0.7
		c0.1-0.1,0.2-0.1,0.3-0.1s0.2,0.1,0.3,0.3c0.1,0.2,0.2,0.3,0.2,0.5c0.1,0.2,0.1,0.4,0.2,0.6c0.6,1.9,1.2,3.8,1.8,5.7
		c0.6,1.9,1.2,3.9,1.9,5.8c0.6,1.9,1.2,3.8,1.9,5.7c0.6,1.9,1.2,3.7,1.8,5.5c0.2,0.6,0.4,1,0.8,1.4c0.3,0.4,0.7,0.7,1.2,0.9
		c0.4,0.2,0.9,0.4,1.5,0.6c0.3,0.1,0.6,0.2,0.7,0.3c0.2,0.1,0.3,0.3,0.3,0.6c0,0.2-0.1,0.3-0.3,0.5c-0.2,0.1-0.4,0.2-0.6,0.2
		c-0.6,0-1.2,0-2.1-0.1c-0.8,0-1.7-0.1-2.5-0.1s-1.6,0-2.2,0c-0.5,0-1.2,0-1.9,0c-0.8,0-1.5,0.1-2.3,0.1s-1.5,0-2,0
		c-0.3,0-0.5,0-0.6-0.1c-0.2-0.1-0.3-0.2-0.3-0.4c0-0.2,0.1-0.4,0.3-0.6c0.2-0.1,0.4-0.2,0.7-0.3c1-0.2,1.8-0.5,2.3-0.9
		s0.6-0.9,0.5-1.6c-0.1-0.5-0.3-1.1-0.4-1.7c-0.2-0.6-0.3-1.2-0.5-1.8c-0.2-0.6-0.3-1.2-0.5-1.7c-0.1-0.2-0.1-0.4-0.2-0.5
		c-0.1-0.1-0.3-0.2-0.5-0.2h-7.4c-0.2,0-0.3,0.1-0.5,0.2c-0.1,0.1-0.2,0.3-0.3,0.5c-0.1,0.4-0.2,0.8-0.4,1.2
		c-0.1,0.4-0.3,0.8-0.4,1.2c-0.1,0.4-0.2,0.8-0.4,1.2c-0.1,0.4-0.2,0.8-0.3,1.1c-0.2,0.8-0.1,1.5,0.3,1.9c0.4,0.4,1.1,0.8,2.3,1.1
		c0.7,0.1,1,0.4,1,0.9c0,0.2-0.1,0.3-0.2,0.4c-0.2,0.1-0.4,0.1-0.7,0.1c-0.8,0-1.6,0-2.3-0.1c-0.7,0-1.5-0.1-2.3-0.1s-1.6,0-2.4,0.1
		C521.5,219,520.7,219,519.9,219z M529.9,206.9h5.4c0.4,0,0.6-0.1,0.6-0.3c0-0.1,0-0.2,0-0.2c0-0.1,0-0.1-0.1-0.2l-2.8-9.4
		c-0.1-0.3-0.2-0.5-0.3-0.5s-0.2,0.2-0.3,0.5l-3.3,9.4c-0.1,0.1-0.1,0.2-0.1,0.3c0,0.1,0.1,0.2,0.2,0.3
		C529.6,206.8,529.7,206.9,529.9,206.9z"/>
	<path class="st1" style="fill:#BB8D09;" d="M577,219.6c-0.4,0-0.9-0.2-1.8-0.6c-0.8-0.4-1.6-1.2-2.5-2.3c-0.7-0.7-1.4-1.4-2.1-2.2
		c-0.7-0.8-1.5-1.6-2.3-2.5s-1.6-1.7-2.4-2.6c-0.8-0.9-1.6-1.8-2.4-2.6c-0.8-0.9-1.6-1.7-2.4-2.6c-0.8-0.9-1.6-1.7-2.3-2.5
		s-1.4-1.6-2.1-2.2c-0.1-0.1-0.1-0.2-0.3-0.3c-0.1-0.1-0.2-0.1-0.3-0.1s-0.2,0.1-0.2,0.3c0,0.2-0.1,0.4-0.1,0.5c0,1.3,0,2.8,0,4.5
		s0.1,3.5,0.1,5.2c0,1.8,0.1,3.4,0.1,4.8c0,0.9,0.3,1.6,0.8,2.1s1.4,0.9,2.5,1.2c0.3,0.1,0.6,0.1,0.8,0.3c0.2,0.1,0.4,0.3,0.4,0.6
		c0,0.2-0.1,0.3-0.3,0.5c-0.2,0.1-0.5,0.2-0.7,0.2c-0.8,0-1.4,0-1.8-0.1c-0.5,0-0.9-0.1-1.3-0.1c-0.4,0-0.9,0-1.5,0s-1.2,0-1.7,0
		s-1,0.1-1.4,0.1s-0.6,0-0.8,0s-0.4,0-0.6-0.1c-0.2-0.1-0.4-0.2-0.4-0.4c0-0.2,0.1-0.4,0.3-0.5s0.5-0.2,0.8-0.3
		c0.7-0.3,1.2-0.7,1.5-1.2c0.3-0.6,0.6-1.3,0.6-2.2c0.1-1,0.2-2.4,0.4-4.1c0.1-1.7,0.2-3.6,0.4-5.7c0.1-2.1,0.2-4.3,0.2-6.6
		c0-1.4-0.4-2.5-1.1-3.1c-0.7-0.6-1.6-1.2-2.7-1.5c-0.2-0.1-0.5-0.2-0.8-0.3c-0.3-0.2-0.4-0.4-0.4-0.6c0-0.3,0.1-0.4,0.3-0.5
		s0.5-0.1,0.8-0.1c0.5,0,1.1,0,1.7,0c0.6,0,1.3,0,2,0.1s1.4,0,2.2,0.1c0.8,0,1.5,0,2.3,0c0.2,0,0.4,0,0.5,0.1s0.2,0.2,0.4,0.3
		c0.6,0.7,1.3,1.4,2,2.2s1.5,1.6,2.2,2.5c0.8,0.9,1.6,1.8,2.4,2.7c0.8,0.9,1.6,1.8,2.4,2.7c0.8,0.9,1.6,1.8,2.3,2.7
		c0.8,0.9,1.5,1.7,2.2,2.5s1.4,1.6,2,2.2c0.1,0.1,0.2,0.2,0.3,0.4c0.1,0.1,0.2,0.2,0.4,0.2s0.3-0.2,0.3-0.6c0-0.9,0-1.9,0-3
		s0-2.3,0-3.6c0-1.3,0-2.5,0-3.8c0-1.2,0-2.4-0.1-3.5c0-0.7-0.3-1.3-0.9-1.7c-0.5-0.4-1.3-0.7-2.2-0.9c-0.3-0.1-0.6-0.2-0.8-0.3
		c-0.2-0.1-0.3-0.3-0.3-0.6c0-0.2,0.1-0.3,0.3-0.4s0.5-0.1,0.7-0.1c0.6,0,1.2,0,1.6,0c0.4,0,0.8,0,1.2,0s0.8,0,1.2,0
		c0.6,0,1,0,1.4,0s0.8,0,1.3-0.1c0.5,0,1.1,0,1.8,0c0.3,0,0.6,0.1,0.8,0.2s0.3,0.3,0.3,0.5c0,0.4-0.4,0.7-1.1,0.8
		c-1,0.2-1.7,0.5-2.1,0.8c-0.4,0.4-0.6,0.9-0.7,1.7c0,1,0,2.1,0,3.2s0,2.3-0.1,3.5s-0.1,2.4-0.1,3.6s-0.1,2.3-0.1,3.4s0,2.1,0,3
		c0,0.6,0,1.3,0.1,2.1c0.1,0.8,0.2,1.5,0.2,2.1c0.1,0.6,0.1,1.1,0.1,1.3c0,0.7-0.1,1.2-0.3,1.5C577.6,219.5,577.3,219.6,577,219.6z"
		/>
	<path class="st1" style="fill:#BB8D09;" d="M599.3,219.4c-2.2,0-4.2-0.3-6.1-1c-1.9-0.7-3.6-1.6-5-2.8c-1.5-1.2-2.6-2.7-3.4-4.3c-0.8-1.7-1.2-3.6-1.2-5.6
		c0-1.9,0.4-3.7,1.1-5.5c0.8-1.7,1.9-3.3,3.4-4.6c1.5-1.3,3.3-2.4,5.3-3.2c2.1-0.8,4.4-1.2,7-1.2c0.9,0,1.8,0.1,2.7,0.2
		s1.8,0.3,2.6,0.5s1.6,0.5,2.3,0.7c0.3,0.1,0.5,0.3,0.6,0.4c0.2,0.2,0.3,0.4,0.3,0.8c0.1,0.9,0.2,1.8,0.3,2.7
		c0.1,0.9,0.1,1.6,0.1,2.3c0,0.3-0.1,0.5-0.3,0.6s-0.5,0.1-0.7,0c-0.3-0.1-0.5-0.3-0.6-0.6c-0.2-0.6-0.4-1.3-0.7-1.9
		s-0.7-1.2-1.2-1.7c-0.6-0.6-1.3-1-2.3-1.4s-2.2-0.5-3.6-0.5c-1.4,0-2.7,0.3-3.9,0.9s-2.1,1.4-3,2.5c-0.8,1.1-1.5,2.2-1.9,3.6
		c-0.4,1.3-0.7,2.7-0.7,4.2c0,1.8,0.2,3.5,0.6,5.1c0.4,1.6,1,2.9,1.8,4.1c0.8,1.1,1.8,2,3,2.7s2.6,1,4.1,1c2.1,0,3.7-0.4,5-1.3
		s2.4-2.2,3.2-4c0.2-0.5,0.5-0.7,0.9-0.7s0.6,0.3,0.6,0.7c0,0.4,0,0.8-0.1,1.3s-0.2,1.1-0.3,1.6c-0.1,0.6-0.3,1.2-0.5,1.8
		c-0.1,0.3-0.3,0.6-0.4,0.8c-0.2,0.2-0.4,0.3-0.7,0.5c-1.1,0.4-2.3,0.8-3.8,1.1C602.6,219.3,601,219.4,599.3,219.4z"/>
	<path class="st1" style="fill:#BB8D09;" d="M613.7,219c-0.3,0-0.5-0.1-0.6-0.2c-0.2-0.1-0.2-0.3-0.2-0.4c0-0.4,0.3-0.7,0.9-0.9c0.9-0.2,1.6-0.5,2-0.9
		c0.4-0.3,0.6-0.9,0.6-1.8v-18.9c0-0.9-0.2-1.5-0.5-1.9c-0.4-0.4-1-0.7-2-0.9c-0.4-0.1-0.6-0.2-0.8-0.4c-0.1-0.2-0.2-0.3-0.2-0.5
		s0.1-0.3,0.3-0.4s0.4-0.2,0.7-0.2c0.7,0,1.4,0,2.1,0c0.7,0,1.4,0.1,2.1,0.1c0.7,0,1.4,0.1,2,0.1c1.4,0,3,0,4.6,0s3.1-0.1,4.4-0.1
		c0.9,0,1.6,0,2.2-0.1c0.6-0.1,0.9-0.1,1-0.1c0.2,0,0.4,0.1,0.6,0.2c0.2,0.1,0.4,0.3,0.4,0.6c0.1,1,0.3,2,0.4,2.9
		c0.2,0.9,0.3,1.8,0.3,2.5c0,0.3-0.1,0.4-0.2,0.6c-0.1,0.1-0.2,0.2-0.4,0.2c-0.1,0-0.3-0.1-0.4-0.2c-0.2-0.1-0.3-0.3-0.4-0.5
		c-0.3-0.7-0.5-1.3-0.8-1.8s-0.5-0.9-0.8-1.2c-0.3-0.3-0.7-0.6-1.2-0.9s-1.1-0.4-1.8-0.4h-3.1c-0.6,0-1.1,0.2-1.6,0.5
		c-0.4,0.3-0.7,0.8-0.7,1.4v7.9c0,0.3,0.1,0.6,0.3,0.7c0.2,0.2,0.4,0.3,0.8,0.3h3.7c0.7,0,1.2-0.2,1.6-0.7s0.6-1.1,0.9-1.8
		c0.2-0.5,0.5-0.8,0.8-0.8c0.1,0,0.3,0.1,0.4,0.2c0.1,0.2,0.2,0.4,0.1,0.7c0,0.3-0.1,0.7-0.1,1.1s0,0.8-0.1,1.2c0,0.4,0,0.8,0,1.1
		c0,0.3,0,0.7,0,1.1s0,0.8,0,1.2s0,0.8,0.1,1.1c0.1,0.4,0,0.7,0,0.9c-0.1,0.2-0.2,0.3-0.4,0.3c-0.4,0-0.8-0.4-1-1.1
		c-0.3-0.8-0.5-1.5-0.8-1.9s-0.7-0.7-1.3-0.7h-3.9c-0.3,0-0.6,0.1-0.8,0.2c-0.2,0.2-0.3,0.4-0.3,0.7v7.9c0,0.8,0.2,1.4,0.5,1.7
		c0.4,0.3,0.9,0.5,1.7,0.5h3.6c0.6,0,1.2-0.1,1.8-0.2s1-0.4,1.4-0.7c0.5-0.4,0.9-0.9,1.3-1.5c0.4-0.6,0.8-1.2,1.1-1.9
		c0.1-0.2,0.2-0.3,0.4-0.4c0.1-0.1,0.3-0.1,0.4-0.1c0.1,0,0.2,0.1,0.3,0.2s0.1,0.3,0.1,0.5c0,0.5-0.1,1-0.2,1.6
		c-0.1,0.6-0.3,1.2-0.5,1.9c-0.2,0.7-0.4,1.3-0.6,1.9c-0.1,0.2-0.2,0.3-0.4,0.4s-0.4,0.1-0.6,0.1c-0.4,0-1,0-2,0s-2.2,0-3.5-0.1
		c-1.3,0-2.7,0-4.1-0.1c-1.4,0-2.7,0-4,0c-0.6,0-1.2,0-1.8,0c-0.7,0-1.3,0.1-2,0.1S614.3,219,613.7,219z"/>
	<path class="st1" style="fill:#BB8D09;" d="M663.9,219.4c-2,0-3.9-0.3-5.7-1s-3.3-1.6-4.7-2.8c-1.4-1.2-2.4-2.7-3.2-4.3c-0.8-1.7-1.1-3.5-1.1-5.5
		c0-1.9,0.4-3.7,1.1-5.5c0.7-1.7,1.8-3.3,3.2-4.7c1.4-1.4,3-2.4,5-3.2c2-0.8,4.1-1.2,6.5-1.2c0.6,0,1.3,0,2,0.1
		c0.8,0.1,1.6,0.2,2.4,0.3c0.8,0.1,1.6,0.3,2.3,0.5s1.3,0.4,1.7,0.6c0.3,0.1,0.4,0.2,0.6,0.4c0.1,0.2,0.2,0.4,0.3,0.6
		c0.1,1,0.3,1.9,0.4,2.7c0.1,0.9,0.1,1.6,0.1,2.2c0,0.3-0.1,0.5-0.2,0.6c-0.1,0.1-0.3,0.2-0.5,0.2c-0.3,0-0.6-0.1-0.7-0.3
		c-0.2-0.2-0.3-0.4-0.4-0.6c-0.3-0.5-0.5-1.1-0.9-1.6c-0.3-0.6-0.7-1.1-1.1-1.6c-0.3-0.3-0.7-0.7-1.2-1s-1-0.6-1.7-0.7
		s-1.5-0.3-2.4-0.3c-1.5,0-2.8,0.3-4,0.9s-2.2,1.5-2.9,2.5c-0.8,1.1-1.4,2.3-1.8,3.6c-0.4,1.3-0.6,2.8-0.6,4.3
		c0,1.9,0.2,3.6,0.5,5.1s0.9,2.9,1.6,4c0.7,1.1,1.6,2,2.6,2.6s2.2,0.9,3.6,0.9c0.7,0,1.3-0.1,1.8-0.4c0.5-0.2,0.8-0.5,1.1-0.7
		s0.5-0.6,0.7-1.1s0.3-1,0.3-1.6c0-0.2,0-0.6,0-1s0-0.9,0-1.3s0-0.8,0-1c0-0.3-0.1-0.6-0.2-0.9c-0.1-0.3-0.4-0.5-0.7-0.6
		c-0.3-0.2-0.5-0.3-0.9-0.4c-0.3-0.1-0.6-0.2-1-0.3c-0.3-0.1-0.6-0.1-0.9-0.2c-0.2,0-0.4-0.1-0.7-0.3c-0.2-0.2-0.3-0.4-0.3-0.6
		s0.1-0.3,0.3-0.5c0.2-0.1,0.4-0.2,0.6-0.2c0.6,0,1.3,0,2.1,0s1.5,0.1,2.3,0.1s1.4,0.1,2,0.1c0.8,0,1.7,0,2.6-0.1
		c0.9-0.1,1.8-0.1,2.6-0.1c0.2,0,0.4,0,0.5,0.1s0.2,0.3,0.2,0.5c0,0.3-0.1,0.5-0.2,0.6c-0.2,0.1-0.4,0.2-0.6,0.3
		c-0.8,0.2-1.3,0.4-1.6,0.8c-0.3,0.3-0.5,0.7-0.6,1.3c-0.1,0.6-0.2,1.1-0.2,1.6s-0.1,1-0.1,1.5v1.3c0,0.1,0.1,0.3,0.2,0.4
		c0.1,0.1,0.2,0.3,0.4,0.4c0.1,0.1,0.2,0.3,0.3,0.4s0.1,0.3,0.1,0.5s-0.1,0.3-0.2,0.5c-0.1,0.2-0.3,0.3-0.6,0.4
		c-0.2,0-0.6,0.2-1.2,0.4c-0.6,0.3-1.3,0.6-2.1,0.9s-1.8,0.6-3,0.9C666.5,219.3,665.3,219.4,663.9,219.4z"/>
	<path class="st1" style="fill:#BB8D09;" d="M705.1,219.7c-1.4,0-2.6-0.2-3.6-0.5s-1.8-0.8-2.5-1.4s-1.3-1.2-1.8-1.9c-0.6-0.8-1.2-1.6-1.8-2.4
		s-1.1-1.7-1.7-2.6c-0.6-0.9-1.1-2-1.8-3.2c-0.3-0.6-0.7-1-1.1-1.3c-0.3-0.2-0.5-0.3-0.8-0.3c-0.3-0.1-0.5-0.1-0.7-0.1
		c-0.1,0-0.3,0.1-0.3,0.2c-0.1,0.2-0.1,0.4-0.1,0.6v8c0,0.9,0.2,1.5,0.7,1.9s1.3,0.7,2.5,1c0.3,0.1,0.5,0.1,0.7,0.3
		c0.2,0.1,0.2,0.3,0.2,0.6c0,0.2-0.1,0.3-0.2,0.5s-0.3,0.2-0.6,0.2c-0.6,0-1.3,0-2.1-0.1c-0.8,0-1.6-0.1-2.4-0.1c-0.8,0-1.5,0-2,0
		c-0.6,0-1.2,0-1.9,0s-1.4,0.1-2.2,0.1c-0.7,0-1.4,0.1-2,0.1c-0.2,0-0.4,0-0.6-0.1c-0.2-0.1-0.3-0.2-0.3-0.4c0-0.4,0.3-0.7,0.9-0.9
		c1.1-0.2,1.8-0.5,2.2-0.9c0.4-0.3,0.6-1,0.6-1.9v-18.7c0-0.7-0.1-1.2-0.2-1.6c-0.1-0.4-0.4-0.7-0.7-0.9c-0.4-0.2-0.9-0.4-1.6-0.5
		c-0.4-0.1-0.6-0.2-0.8-0.4c-0.1-0.2-0.2-0.3-0.2-0.5s0.1-0.3,0.3-0.4s0.4-0.2,0.7-0.2c0.9,0,1.6,0,2.2,0.1c0.6,0.1,1.1,0.1,1.6,0.1
		s1.1,0.1,1.8,0.1c0.6,0,1.2,0,1.7-0.1s1-0.1,1.7-0.2c0.6-0.1,1.4-0.1,2.4-0.1c3.3,0,5.8,0.6,7.5,1.7c1.8,1.1,2.6,2.8,2.6,5
		c0,1.2-0.3,2.3-0.8,3.1c-0.5,0.8-1.2,1.5-2,2.1c-0.8,0.5-1.7,1-2.5,1.2c-0.1,0-0.2,0.1-0.1,0.2c0,0.1,0,0.2,0.1,0.3
		c0.8,1.2,1.7,2.4,2.4,3.6c0.8,1.2,1.6,2.2,2.4,3.2c0.8,1,1.7,1.9,2.6,2.7c0.9,0.9,1.9,1.4,2.9,1.6s2,0.2,2.9,0.2
		c0.4,0,0.6,0.3,0.6,0.8c0,0.6-0.2,1.1-0.6,1.5c-0.4,0.4-1,0.6-1.8,0.8C706.9,219.6,706.1,219.7,705.1,219.7z M690.5,204.5
		c1.1,0,1.9-0.2,2.6-0.7c0.7-0.5,1.2-1.1,1.6-1.9c0.4-0.8,0.5-1.8,0.5-2.8c0-1.3-0.2-2.3-0.5-3.2c-0.3-0.9-0.8-1.5-1.5-1.9
		s-1.5-0.6-2.6-0.6c-0.6,0-1.1,0.2-1.3,0.7c-0.3,0.5-0.4,1.5-0.4,3.1c0,0.6,0,1.4,0,2.4s0,2.1,0,3.5c0,0.6,0.1,1,0.4,1.2
		C689.7,204.4,690,204.5,690.5,204.5z"/>
	<path class="st1" style="fill:#BB8D09;" d="M724.4,219.4c-1.9,0-3.8-0.3-5.5-1s-3.3-1.6-4.6-2.8c-1.4-1.2-2.4-2.6-3.2-4.3c-0.8-1.7-1.1-3.5-1.1-5.6
		c0-1.9,0.3-3.7,0.9-5.4c0.6-1.7,1.6-3.3,2.8-4.6c1.3-1.4,2.8-2.4,4.7-3.2c1.9-0.8,4-1.2,6.4-1.2c2,0,3.8,0.3,5.5,1s3.3,1.6,4.6,2.8
		c1.3,1.2,2.4,2.7,3.2,4.3c0.8,1.7,1.2,3.5,1.2,5.6c0,1.9-0.3,3.7-1,5.4c-0.6,1.7-1.6,3.3-2.8,4.7c-1.3,1.4-2.8,2.4-4.7,3.2
		C728.9,219,726.8,219.4,724.4,219.4z M725.1,217.5c1.6,0,2.9-0.4,4-1.3s1.9-2.1,2.4-3.7s0.8-3.4,0.8-5.5c0-1.7-0.2-3.4-0.5-5
		c-0.3-1.7-0.8-3.1-1.5-4.5c-0.7-1.3-1.6-2.4-2.6-3.2c-1.1-0.8-2.3-1.2-3.8-1.2c-1.6,0-2.9,0.4-4,1.3s-1.9,2.1-2.4,3.7
		s-0.8,3.4-0.8,5.4c0,1.7,0.2,3.4,0.5,5.1s0.8,3.1,1.5,4.5c0.7,1.3,1.5,2.4,2.6,3.2C722.4,217.1,723.7,217.5,725.1,217.5z"/>
	<path class="st1" style="fill:#BB8D09;" d="M758.1,219.4c-2.6,0-4.8-0.5-6.6-1.4s-3.1-2.2-4-3.9c-0.9-1.7-1.3-3.6-1.3-5.8v-11.9c0-0.8-0.2-1.5-0.5-2.1
		c-0.4-0.6-0.9-1-1.6-1.2c-0.8-0.2-1.2-0.5-1.2-0.9c0-0.2,0.1-0.3,0.3-0.5c0.2-0.1,0.5-0.2,0.8-0.2c0.9,0,1.8,0,2.8,0.1
		c0.9,0.1,1.8,0.1,2.7,0.1c0.8,0,1.7,0,2.8-0.1s2-0.1,2.8-0.1c0.3,0,0.6,0,0.8,0.1s0.3,0.3,0.3,0.5c0,0.3-0.2,0.5-0.6,0.7
		c-0.4,0.1-0.9,0.3-1.3,0.5c-0.4,0.2-0.8,0.5-1.1,1s-0.5,1.2-0.5,2.2v10.9c0,1.9,0.3,3.4,0.9,4.7c0.6,1.2,1.4,2.1,2.4,2.7
		s2.2,0.9,3.4,0.9c2.5,0,4.4-0.7,5.7-2.2c1.2-1.5,1.9-3.8,1.9-6.9c0-0.7,0-1.5,0-2.4s0-1.8,0-2.8s0-1.9,0-2.7c0-1.2-0.1-2.2-0.3-2.9
		s-0.4-1.2-0.7-1.6s-0.7-0.7-1.3-1c-0.3-0.2-0.7-0.3-1.1-0.4c-0.4-0.1-0.6-0.3-0.6-0.6c0-0.2,0.1-0.4,0.3-0.5s0.5-0.1,0.9-0.1
		c1,0,1.8,0,2.3,0s1.1,0,1.7,0c0.5,0,1,0,1.3,0s0.7-0.1,1.1-0.1c0.4,0,0.8,0,1.4,0c0.3,0,0.6,0,0.8,0.1s0.3,0.3,0.3,0.5
		c0,0.4-0.4,0.7-1.1,0.9c-0.9,0.2-1.6,0.7-1.9,1.3c-0.4,0.6-0.6,1.4-0.6,2.4c-0.1,2.1-0.1,4-0.2,5.8c0,1.8,0,3.6,0,5.4
		c0,2.2-0.5,4.2-1.5,6c-1,1.7-2.3,3.1-4,4.1C762.1,218.9,760.2,219.4,758.1,219.4z"/>
	<path class="st1" style="fill:#BB8D09;" d="M775.2,218.9c-0.2,0-0.4,0-0.6-0.1c-0.2-0.1-0.3-0.2-0.3-0.4c0-0.4,0.3-0.7,0.9-0.9c1.1-0.2,1.8-0.5,2.2-0.9
		c0.4-0.3,0.6-1,0.6-1.9v-18.6c0-0.9-0.2-1.6-0.5-2.1c-0.3-0.4-1-0.8-2-1c-0.4-0.1-0.6-0.2-0.8-0.4c-0.1-0.2-0.2-0.3-0.2-0.5
		s0.1-0.3,0.3-0.4s0.4-0.2,0.7-0.2c0.6,0,1.3,0,1.9,0c0.7,0,1.3,0.1,1.9,0.1c0.6,0,1.2,0.1,1.8,0.1c0.7,0,1.3,0,1.8-0.1
		s1.1-0.1,1.7-0.2c0.6-0.1,1.4-0.1,2.3-0.1c3.4,0,6.1,0.7,8.1,2.1s3,3.4,3,5.9c0,1.7-0.4,3.4-1.1,4.8c-0.7,1.5-1.9,2.7-3.3,3.6
		c-1.5,0.9-3.4,1.4-5.7,1.4c-0.7,0-1.3-0.1-1.7-0.3c-0.4-0.2-0.6-0.5-0.6-0.8c0-0.2,0.1-0.4,0.3-0.5s0.3-0.2,0.5-0.2
		c0.3,0,0.6,0,0.8,0.1s0.5,0.1,0.9,0.1c1.2,0,2.1-0.7,2.7-2c0.6-1.3,0.9-3,0.9-5.2c0-2.6-0.4-4.4-1.3-5.5c-0.8-1.1-2-1.7-3.5-1.7
		c-0.8,0-1.4,0.2-1.8,0.5c-0.4,0.3-0.6,0.9-0.6,1.6v19.4c0,0.9,0.2,1.5,0.7,1.9s1.3,0.7,2.5,0.9c0.3,0.1,0.5,0.1,0.7,0.3
		c0.2,0.1,0.2,0.3,0.2,0.6c0,0.2-0.1,0.3-0.2,0.5s-0.3,0.2-0.6,0.2c-0.6,0-1.3,0-2.1-0.1c-0.8,0-1.6-0.1-2.4-0.1c-0.8,0-1.5,0-2,0
		c-0.6,0-1.2,0-1.9,0s-1.4,0.1-2.2,0.1C776.5,218.9,775.8,218.9,775.2,218.9z"/>
</g>
<g>
	<path class="st0" style="fill:#004990;" d="M215,205.4c0.7-0.2,1.7-0.4,3.1-0.6s2.1-0.3,2.3-0.3c0.9,0,1.5-0.2,1.8-0.4c0.1-0.6,0.2-1,0.2-1.4l-0.1-4.5
		l0.2-4.6v-2.9v-3.4l-0.1-3.6l0.1-7.8v-3.5v-0.5c-0.2-2.5-0.3-3.8-0.5-4s-0.8-0.6-2-0.9c-0.1,0-0.6-0.2-1.3-0.5
		c-0.6-0.2-1.1-0.4-1.6-0.5c-0.8-0.2-1.4-0.5-1.7-0.7c0-0.6-0.1-1.1-0.1-1.4c0-0.2,0-0.5,0-0.8c0.2-0.1,0.4-0.2,0.7-0.2
		c0.6,0,2.6,0.1,6.1,0.3h5l3.7,0.1c1.6,0,3.7-0.1,6.2-0.3c0.7-0.1,1.2-0.1,1.3-0.1c0.4,0,0.6,0.1,0.7,0.3c0.2,0.3,0.3,0.7,0.3,1.4
		c0,0.5-0.1,0.9-0.4,1.2c-0.1,0.2-0.7,0.3-1.5,0.4l-4.3,1c-0.1,0-0.3,0.1-0.6,0.3c-0.1,0.2-0.2,0.3-0.2,0.4v1l-0.1,2.2v0.6v0.4
		c0,0.1,0,0.8-0.1,1.9c0,0.3,0,0.6,0,0.9c0,0.4,0,1,0.1,1.9c0.1,1.4,0.1,2.6,0.1,3.7c0,1.2,0,2.6-0.1,4.2c0,0.6,0,1.3,0,2.3
		l-0.1,16.6c0,0.7,0.1,1.2,0.4,1.4l3.3,0.1h2.1h2.2c3.8,0,6.7-0.4,8.9-1.3c1.6-0.7,2.7-1.3,3.1-2c0.8-0.7,1.4-1.5,1.9-2.3
		s1.1-2.2,1.7-4h1.1c0.6,0,1.2,0,1.9,0.1v1c0,1.7-0.2,4.6-0.6,8.8c-0.2,1.7-0.3,2.7-0.5,3.1c-0.5,0.1-0.9,0.1-1,0.1h-1.3h-1.8
		c-0.2,0-1.6-0.1-4.2-0.3c-0.5,0-2.7-0.1-6.7-0.2s-7.9-0.2-11.7-0.2l-7.1,0.2c-2.8,0.1-5.3,0.2-7.7,0.4h-0.5c-0.1,0-0.4,0-0.7,0
		c0-0.3-0.1-0.5-0.1-0.7C214.8,206.6,214.9,205.9,215,205.4z"/>
	<path class="st0" style="fill:#004990;" d="M261.8,208.3v-2.5c0.5-0.1,1.2-0.3,2.3-0.6c1.5-0.4,2.6-0.8,3.4-1.2c0.4-0.7,0.6-1.7,0.6-3v-4.1l0.1-8V187
		c0.2-4.6,0.3-7,0.3-7.1l-0.1-4.7l0.1-1.9l-0.2-4l-0.1-1.5c0-0.2-0.1-0.6-0.2-1.1c-1-0.4-2.5-0.7-4.7-0.8c-0.5,0-0.9-0.1-1.2-0.1
		l-0.1-3.1l10,0.4c1.2,0,2,0.1,2.3,0.1c1.4,0,3.6-0.1,6.6-0.3c1.7-0.1,2.8-0.2,3.2-0.2c0,0.4,0,0.8,0,1.1c0,0.4,0,0.9-0.1,1.5
		c-0.9,0.3-2,0.6-3.2,0.9c-1.2,0.3-2.2,0.6-2.9,0.9c-0.1,0.6-0.2,1.5-0.2,2.6c0,1,0,1.8,0.1,2.4c-0.1,3.9-0.1,7-0.1,9.1v9.2
		l-0.2,4.7l0.1,7l-0.1,1.3c0,0.2,0.1,0.5,0.2,0.8c1.4,0.3,2.7,0.5,3.9,0.6c0.2,0,0.9,0.1,2.1,0.3c0.1,0.7,0.1,1.3,0.1,1.7
		c0,0.3,0,0.7,0,1.2c-0.3,0-0.5,0-0.7,0c-0.7,0-1.2,0.1-1.3,0.1c-0.2,0-0.5,0-0.9-0.1c-0.3,0-1.9-0.2-4.6-0.5l-6.2-0.1
		c-1.2,0-3,0.1-5.4,0.4C263.3,208.2,262.3,208.3,261.8,208.3z"/>
	<path class="st0" style="fill:#004990;" d="M289.4,208.5l0.1-2.6c0.5-0.1,1.4-0.3,2.6-0.5s2.4-0.5,3.6-0.8l0.7-0.4c0.2-0.9,0.3-1.9,0.3-2.9v-0.2l-0.1-8.1
		v-3.4l-0.1-5l0.1-5.9l-0.6-11.6c-0.4-0.3-1.5-0.7-3.4-1c-0.5-0.1-1.1-0.3-2-0.6l-0.8-0.2v-2.4l4.6,0.2c2.8,0.3,6.9,0.4,12.3,0.4
		c2.7,0,5.6-0.1,8.5-0.2h0.7h1.7h0.7h1.5l6.3-0.2c0.3,0,0.6,0,1.1-0.1c0.5,0,0.9-0.1,1.3-0.1c0.1,0.7,0.2,1.4,0.3,2.1l0.5,6.6
		c0,0.7-0.1,1.2-0.2,1.6c-0.8,0.1-1.5,0.2-1.9,0.2c-0.5,0-0.8-0.1-1.1-0.3c-0.1-0.1-0.4-0.7-0.8-1.6c-1-2.4-1.8-3.7-2.5-4.2
		c-0.7-0.4-2.6-0.6-5.7-0.6l-4.8,0.1c-2,0-3.7,0.1-4.9,0.4c-0.3,0-0.6,0.2-1.1,0.4c-0.3,0.5-0.5,1.2-0.5,2.1l0.1,4.2l-0.1,4.8
		c0,2.4,0.1,3.9,0.2,4.5c0.2,0.1,0.4,0.2,0.5,0.2h2.5h4.2c0.9,0,2.4-0.1,4.3-0.3c1.3-0.2,2.1-0.4,2.4-0.6c0.6-0.4,1-0.8,1.2-1.4
		c0.2-0.6,0.4-2,0.5-4.2c0.1,0,0.4,0,0.9,0c0.3,0,0.5,0,0.7,0c0.3,0,0.8,0,1.5,0.1l-0.2,5.6c0,1.2-0.1,2.2-0.1,3.1l0.1,0.8
		c0,0.2,0,2,0,5.2c0,0.2,0,0.6,0,1c-0.4,0.1-0.8,0.1-1.1,0.1c-0.2,0-0.6-0.1-1.4-0.2c-0.2-0.4-0.4-1.1-0.7-1.9
		c-0.5-1.8-1.1-2.9-1.7-3.2c-1.1-0.6-4.6-0.8-10.5-0.8c-0.9,0-1.9,0.1-3,0.2c-0.2,1-0.2,2.1-0.2,3.4l0.2,10.5c0,1.9,0.2,3.1,0.6,3.6
		c0.3,0.3,1.1,0.6,2.6,0.8l0.7,0.1c1,0.1,2,0.2,2.8,0.5l0.9,0.2c0.1,0.6,0.1,1.1,0.1,1.4c0,0.4,0,0.8-0.1,1.3H313h-1.1l-5-0.3
		c-0.6,0-3.2,0-7.8,0c-1.3,0-2.5,0.1-3.7,0.2c-1.8,0.2-2.8,0.3-3,0.3C291,208.6,290,208.6,289.4,208.5z"/>
	<path class="st0" style="fill:#004990;" d="M332.8,163c1.3,0.1,2.5,0.2,3.5,0.3c1.8,0.3,4,0.4,6.4,0.4c0.8,0,3-0.1,6.5-0.2c5.2-0.2,9.9-0.3,14.1-0.3
		l6.3-0.1c1.4,0,3.5,0.2,6.3,0.5c0.4,0.5,0.6,1.1,0.6,1.9v7.2l0.1,1.4c0,0.1,0,0.3,0,0.6l-1.4,0.1c-0.2,0-0.6,0-1.2-0.1
		c-0.2-0.5-0.5-1.2-0.8-2.1l-1.4-2.5c-0.5-1-1.3-2.1-2.2-3.2c-0.6-0.2-1.3-0.3-2.2-0.3c-0.2,0-0.9-0.1-2.1-0.2
		c-2.2-0.2-4.5-0.3-7-0.3c-2.8,0-5.4,0-7.6,0.1c-0.1,0.6-0.1,2.9-0.1,6.9v5.9v4.4c0.6,0.1,1.1,0.1,1.5,0.1c4.2,0,7.2-0.1,8.9-0.2
		c1.8-0.2,2.9-0.4,3.3-0.7s0.8-0.8,1.1-1.5c0.2-0.5,0.6-2.2,1.2-5.1h0.5h2c0.1,2.1,0.1,3.7,0.1,4.7c0,2.4,0,4-0.1,4.7
		c0,0.7-0.1,1.2-0.1,1.6c0,0.6,0,1.6,0.1,3s0.1,2.4,0.1,3.1v0.8h-2.5c-0.1-0.4-0.3-1.1-0.5-2.3c-0.5-2.2-0.9-3.5-1.3-4.1
		c-0.3-0.4-0.7-0.7-1.4-0.9c-0.5-0.2-2.2-0.2-5.2-0.2c-3.5,0-6.2,0.1-8,0.3c0,0.6,0,1,0,1.2c0,2.8,0,5.1,0.1,6.9l-0.1,7.6
		c0,0.9,0.3,1.5,0.9,1.8c1,0.5,3.9,0.7,8.8,0.7c3.2,0,6-0.2,8.3-0.7c1.6-0.4,2.9-1.1,4.1-2.3c1.6-1.6,2.9-3.8,4-6.6
		c0.7-0.1,1.3-0.1,1.8-0.1c0.3,0,0.6,0,1.2,0c-0.1,0.6-0.1,1.1-0.2,1.5l-0.2,1l-1.3,6.6l-0.6,4c-1.5,0.1-2.7,0.1-3.6,0.1
		c-1.3,0-4.8-0.1-10.5-0.4c-4-0.2-8.8-0.2-14.4-0.2c-2.8,0-6.2,0.1-10.3,0.3h-1.5l-4.2,0.1v-2.1c0.4-0.1,1.3-0.2,2.7-0.4
		c2.4-0.3,4.1-0.7,5-1.1c0.3-0.7,0.4-1.5,0.4-2.6c0-0.4,0-1.1,0-2v-1.1l-0.1-13.2v-4l-0.2-5.6v-4l-0.3-4.3c0-0.1,0-0.4-0.1-0.7
		c-0.2-0.3-0.6-0.4-1-0.5c-0.3,0-0.6-0.1-1-0.2c-1.3-0.3-2.6-0.4-3.8-0.5c-0.4,0-1-0.1-1.5-0.1L332.8,163z"/>
</g>
<g>
	<g>
		<path class="st1" style="fill:#BB8D09;" d="M377.4,218.7c-98.1,0.1-187.9,0.3-286-0.3C59.6,218.2,32.7,206,14.1,179c-6-8.7-8.8-18.6-11.7-28.5
			c0-8.7,0-17.5,0-26.2c2.5-8.4,4.9-16.7,9.4-24.4C27.2,73.7,50.7,58,79.2,49c10.1-3.2,20.7-4,31-5.8c8,0,16,0,24,0
			c14.6,2.4,28.9,5.6,42,12.9c22,12.3,36.5,29.9,40.3,55.2c1.4,9.2,0.9,18.5-2.7,27.3c0.6-6.5,0.6-13,0.6-19.4c0-4-1.5-5.8-5.7-5.7
			c-6.2,0.2-12.4,0.2-18.6,0.2c-4.3,0-5.5,1.7-4.8,5.9c2.5,14.8,2.7,29.6-0.5,44.4c-0.8,3.7,0.1,5.7,4.2,5.7c1.3,0,2.6,0.7,5.7,1.6
			c-5.6,0.7-10.9-3.2-13.1,3.8c-0.4-3.2-1.8-4.9-4.7-5.1c-8-0.5-15.9-0.7-23.9,0.7c-2,0.3-3.3,1.5-3.7,3.4c-2,11.3-5.7,22.2-10,33.7
			c10.1-1.9,18.1-6.9,27.1-10.7c-3.4,3.8-10,7.2-20.2,11.2c-7,2.7-15.9,5.3-23,8.1c7.2,0,14.3,0,21.5,0
			c75.1,0.1,150.2,0.4,225.3,0.5c2.4,0,4.8,0,7.2-0.1 M10.6,160.2c1,4.5,3.2,8.5,5.5,12.5c6.5,11.6,15.5,21,26.6,28.4
			c2.1,1.4,4.1,1.5,5.9-0.4c1.9-2,0-3.2-1-4.5c-8.6-11.3-15.5-23.5-19.8-37.1c-1.3-4.1-3.3-4.9-7-3.1c-2.5,1.2-4.9,2.8-7.7,3
			c2.1-2.9,5.5-3.9,8.4-5.5c2-1.2,3.8-2.4,3.3-5.1c-1.1-6-1.1-12.6-3.7-18c-4.9-10.5-3.4-20.3,0.4-30.4c0.7-2,1.9-4,0.5-6.2
			C7.2,105.2,1.5,138.9,10.6,160.2z M166,168.1v0.1c3.6,0,7.2-0.1,10.8,0c3.8,0.2,5.8-1.2,6.4-5.2c2.1-14.3,1.5-28.4-1-42.6
			c-0.8-4.6-3.2-6-7.4-5.5c-6.3,0.8-12.6,1.8-19,2.1c-5.4,0.3-6,3-5.5,7.5c1.2,10,2.2,20,1.2,30.2c-1.4,13.3-1,13.3,12.2,13.3
			C164.4,168.1,165.2,168.1,166,168.1z M103,77.9c1.5,13.3,2.9,25.7,4.3,38.1c0.4,4,1.7,6,6.5,4.8c8.5-2,17.2-3.5,25.8-4.9
			c3.7-0.6,4.8-1.9,3.9-5.4c-2.9-12.6-7.1-24.8-13.3-36.2c-2-3.7-4.4-5.2-8.7-4.1c-4,1-8.2,1.5-12.4,1.8
			C104.7,72.3,101.7,73.5,103,77.9z M53.5,144.4c-8-0.5-13.6,3.9-19.9,6c-3.7,1.2-4.5,3.1-3.1,6.7c4.9,13.3,11.7,25.6,20.3,36.8
			c2.1,2.8,4.2,3,7.1,1.3c4.6-2.7,9.4-5.2,14.3-7.3c4-1.8,4.8-3.9,3-7.9c-3.7-8.3-7.1-16.7-8.8-25.8
			C64.9,146.7,60.7,144.1,53.5,144.4z M148.5,68.3c-4,0.4-7.9,0.9-11.9,1c-3.7,0.1-4,1.6-2.4,4.5c6.3,11.4,10.8,23.4,13.6,36.1
			c0.7,3,2,4.3,5.4,3.8c7.1-1.1,14.2-2,21.4-2.6c4.2-0.3,5.2-1.7,3.8-5.6c-3.2-9.2-7.3-18-11.8-26.7
			C162.7,71.2,157.4,67.1,148.5,68.3z M198.1,109.7c3.2,0,6.4-0.2,9.5,0c4.8,0.4,5.3-1.7,4-5.7c-2.3-7-5.9-13.3-9.5-19.7
			c-6.9-12.2-17.7-15.2-30.6-14.7c-3.8,0.1-4.6,1.1-2.6,4.5c4.1,7.2,7.7,14.7,10.5,22.6C184.7,112.1,180.4,109.8,198.1,109.7z
			 M66.1,124.8c0-0.6,0,0.4,0,1.4c0.4,6.9,0.9,7.2,7.4,5.3c8.6-2.5,17.2-4.9,25.8-7.3c2.4-0.7,4.6-1.2,4.2-4.6
			c-0.8-7.1-1.5-14.2-2.3-21.2c-0.3-2.9-1.6-4-5-4.3c-9.4-0.8-14.9,5.6-21.5,10.1C68.1,108.7,65.6,115.3,66.1,124.8z M147.2,147.1
			c0.1-7.5,0-15-1-22.5c-0.6-4.2-1.8-6.1-6.4-5.1c-6.8,1.4-13.7,2.3-20.6,3.6c-11.6,2.2-11.5,2.3-9.8,13.6c0.5,3.4,1.9,5,5.7,5.5
			c7,1,13.9,2.6,21.2,2.6c7.7,0,10.5,6.1,6.9,12.9c-1,1.9-2.4,3.7-3.3,5.6c-0.8,1.8-3.6,4.2-1,5.5c2.5,1.2,6,0.3,7.6-2.8
			c0.7-1.3,0.7-3.1,0.7-4.6C147.3,156.6,147.2,151.8,147.2,147.1z M141.9,171.6c-1.6,0.7-4.5-0.2-5.7,1.7c-2.5,3.9-6.7,5.5-9.9,8.4
			c-8,7.1-11.8,15.8-9.5,26.5c0.4,1.7,0.3,3.7,2.1,4.7c2.8,1.5,16.3-3,17.7-6.1c4.6-10.2,7.1-21,9-31.9
			C146.1,172.4,145.1,171,141.9,171.6z M97.6,215.4c-6.9-7.6-12.1-15.3-16.7-23.3c-1.4-2.4-3.1-2.8-5.4-1.5
			c-5.2,2.8-10.5,5.6-15.7,8.5c-1.4,0.8-3.2,1.9-1.4,3.6c3.8,3.7,6.7,8.4,12.4,9.8C79.2,214.5,87.8,214.9,97.6,215.4z M141.5,65.9
			c0-0.1,0-0.1,0-0.2c3.4,0,6.8,0,10.2,0c1.3,0,3,0.5,3.8-0.9c0.9-1.6-0.7-2.5-1.5-3.5c-2.4-2.9-4.8-5.8-7.5-8.5
			c-5.6-5.5-17.9-4.2-22.3,2.3c-0.7,1.1-1.4,2.2-0.5,3.2c2.9,3.8,4.6,9.2,11.3,7.7C137.1,65.5,139.4,65.9,141.5,65.9z M105.3,136.4
			c-0.3-9.2-1.6-10.3-9.9-7.9c-7.9,2.3-15.7,4.7-23.4,7.2c-2.2,0.7-5,1.2-4,4.7c1.2,3.7,3.9,2.1,5.9,1.2c8.6-3.7,17.1-4.9,26.1-1.2
			C104,142,106.1,140.6,105.3,136.4z M56.5,137.2c2-0.9,4.8-0.4,5.9-3.1c0.4-1.1,0-3.3-0.7-3.2c-4.3,0.5-4.1-2.6-4.7-5.2
			c-0.4-1.8-2-2.4-3.7-2.3c-3.2,0.2-6.4,0.4-9.5,0.8c-2.7,0.3-4.4,2-4.7,4.7s1,4.7,3.7,5.3C47.3,135.3,51.8,136.2,56.5,137.2z
			 M76.2,66.3c2.5,0.7,5.5,1.3,7.7,3.2c3.6,3,7.4,2,11.3,1c2.5-0.7,3.1-2.1,2.2-4.4C95.1,60.6,86,56.3,80.3,58
			c-1.2,0.4-3.5,1.2-1.8,2.5C85.2,65.9,76,63.7,76.2,66.3z M182.7,66c-8.5-6.4-17.5-11.3-28.1-13.7C159.8,66.4,170.7,67.4,182.7,66z
			"/>
	</g>
</g>
</svg>
