<?xml version="1.0" encoding="UTF-8" standalone="no"?>
<!DOCTYPE svg PUBLIC "-//W3C//DTD SVG 1.1//EN" "http://www.w3.org/Graphics/SVG/1.1/DTD/svg11.dtd">
<svg xmlns="http://www.w3.org/2000/svg" version="1.1" viewBox="0 0 1363 482">
<g stroke-width="2.00" fill="none" stroke-linecap="butt">
<path stroke="#c584be" vector-effect="non-scaling-stroke" d="
  M 409.25 45.52
  A 0.27 0.27 0.0 0 0 408.98 45.25
  L 44.02 45.25
  A 0.27 0.27 0.0 0 0 43.75 45.52
  L 43.75 410.48
  A 0.27 0.27 0.0 0 0 44.02 410.75
  L 408.98 410.75
  A 0.27 0.27 0.0 0 0 409.25 410.48
  L 409.25 45.52"
/>
<path stroke="#80ced2" vector-effect="non-scaling-stroke" d="
  M 846.85 103.75
  A 0.31 0.31 0.0 0 0 846.57 103.93
  L 829.06 142.80
  A 0.31 0.31 0.0 0 0 829.34 143.24
  L 843.35 143.58
  A 0.31 0.31 0.0 0 0 843.61 143.45
  L 873.20 104.25
  A 0.31 0.31 0.0 0 0 872.95 103.75
  L 846.85 103.75"
/>
<path stroke="#80ced2" vector-effect="non-scaling-stroke" d="
  M 641.01 176.75
  C 628.97 120.44 569.75 94.77 517.30 107.02
  C 483.54 114.91 455.26 141.04 447.39 175.59
  C 435.26 228.85 466.19 280.14 520.01 290.96
  Q 522.32 291.42 524.18 292.74
  C 549.67 310.77 580.38 327.31 612.37 328.53
  A 1.24 1.23 23.4 0 0 613.29 328.17
  L 638.31 303.73
  Q 638.89 303.17 638.13 303.43
  Q 621.67 309.03 603.67 303.84
  Q 582.47 297.72 568.15 291.71
  Q 567.69 291.52 568.16 291.36
  Q 572.29 289.92 576.53 288.74
  C 625.27 275.11 651.31 224.99 641.01 176.75"
/>
<path stroke="#80ced2" vector-effect="non-scaling-stroke" d="
  M 938.75 107.02
  A 0.27 0.27 0.0 0 0 938.48 106.75
  L 915.02 106.75
  A 0.27 0.27 0.0 0 0 914.75 107.02
  L 914.75 291.00
  A 0.27 0.27 0.0 0 0 915.02 291.27
  L 938.48 291.27
  A 0.27 0.27 0.0 0 0 938.75 291.00
  L 938.75 107.02"
/>
<path stroke="#80ced2" vector-effect="non-scaling-stroke" d="
  M 1003.15 132.85
  A 14.16 14.16 0.0 0 0 988.99 118.69
  A 14.16 14.16 0.0 0 0 974.83 132.85
  A 14.16 14.16 0.0 0 0 988.99 147.01
  A 14.16 14.16 0.0 0 0 1003.15 132.85"
/>
<path stroke="#80ced2" vector-effect="non-scaling-stroke" d="
  M 1039.69 192.00
  Q 1039.81 219.50 1039.89 247.00
  C 1039.94 261.98 1040.14 276.24 1053.57 285.98
  C 1069.15 297.28 1091.96 294.60 1108.11 285.91
  A 0.79 0.78 76.0 0 0 1108.52 285.22
  L 1108.49 263.80
  Q 1108.49 263.12 1107.91 263.48
  C 1092.33 273.22 1064.41 280.15 1064.12 251.37
  Q 1063.82 221.76 1064.10 192.00
  A 0.51 0.51 0.0 0 1 1064.61 191.50
  L 1102.00 191.50
  A 0.50 0.50 0.0 0 0 1102.50 191.00
  L 1102.50 170.25
  A 0.50 0.50 0.0 0 0 1102.00 169.75
  L 1064.75 169.75
  A 0.75 0.75 0.0 0 1 1064.00 169.00
  L 1064.00 146.21
  Q 1064.00 144.46 1062.75 145.69
  Q 1040.76 167.41 1019.04 188.79
  Q 1017.98 189.84 1018.75 191.09
  A 0.87 0.85 -15.3 0 0 1019.49 191.50
  L 1039.19 191.50
  A 0.50 0.50 0.0 0 1 1039.69 192.00"
/>
<path stroke="#80ced2" vector-effect="non-scaling-stroke" d="
  M 855.71 281.90
  C 859.75 296.44 878.32 295.15 888.74 289.43
  C 890.97 288.20 894.27 286.43 896.83 284.60
  A 1.00 0.99 -18.0 0 0 897.25 283.79
  L 897.25 270.28
  Q 897.25 269.74 896.81 270.05
  C 891.46 273.94 879.34 282.24 879.47 268.50
  Q 879.67 246.07 879.40 212.90
  Q 879.29 199.89 877.70 194.24
  C 868.07 160.05 816.32 160.61 796.08 183.37
  A 1.31 1.30 66.1 0 0 795.75 184.24
  L 795.75 209.48
  Q 795.75 210.05 796.15 209.64
  C 807.96 197.52 822.71 187.02 840.73 190.56
  C 854.31 193.23 856.87 205.46 855.58 217.82
  A 0.78 0.78 0.0 0 1 855.05 218.48
  Q 839.79 223.73 824.50 228.87
  Q 809.51 233.90 800.95 243.93
  C 788.00 259.10 792.05 282.49 810.51 290.65
  C 824.86 296.99 843.33 290.77 855.02 281.67
  A 0.44 0.44 0.0 0 1 855.71 281.90"
/>
<path stroke="#80ced2" vector-effect="non-scaling-stroke" d="
  M 1182.91 281.98
  Q 1186.37 291.93 1197.02 293.14
  C 1207.46 294.33 1215.86 290.38 1224.28 284.57
  A 1.11 1.07 -18.0 0 0 1224.75 283.68
  L 1224.75 270.52
  Q 1224.75 269.77 1224.14 270.20
  C 1219.98 273.13 1206.99 282.07 1206.90 269.83
  Q 1206.71 242.83 1206.73 215.81
  Q 1206.74 201.01 1205.55 195.88
  C 1199.32 169.04 1169.16 163.80 1146.49 169.52
  Q 1132.81 172.97 1123.36 183.53
  A 1.29 1.28 -23.9 0 0 1123.02 184.40
  L 1122.99 208.72
  Q 1122.99 210.37 1124.10 209.15
  C 1135.06 197.14 1151.60 186.94 1168.25 190.55
  C 1181.95 193.51 1184.29 205.75 1183.07 217.79
  A 0.78 0.77 83.6 0 1 1182.55 218.45
  Q 1168.67 223.24 1154.75 227.88
  C 1144.22 231.40 1132.50 237.58 1126.11 246.84
  C 1118.39 258.01 1119.07 273.89 1128.43 283.98
  C 1142.91 299.57 1167.70 293.03 1182.35 281.81
  A 0.36 0.36 0.0 0 1 1182.91 281.98"
/>
<path stroke="#80ced2" vector-effect="non-scaling-stroke" d="
  M 1236.84 282.77
  C 1251.79 290.09 1265.82 294.78 1283.30 293.05
  C 1303.96 291.01 1322.96 276.05 1317.98 253.16
  C 1313.63 233.10 1289.26 221.97 1273.17 212.26
  Q 1266.46 208.20 1264.78 205.70
  C 1256.94 194.03 1269.50 187.42 1279.26 188.25
  C 1290.99 189.26 1302.34 195.00 1312.51 200.99
  Q 1313.00 201.28 1313.00 200.72
  L 1313.00 178.32
  A 0.98 0.97 -75.0 0 0 1312.52 177.48
  Q 1292.29 165.81 1269.38 167.93
  C 1256.31 169.15 1243.16 176.63 1238.92 189.56
  C 1229.56 218.06 1261.21 233.54 1280.10 244.37
  C 1285.31 247.36 1291.47 251.07 1293.21 256.86
  Q 1295.38 264.09 1288.46 268.73
  C 1273.11 279.03 1249.74 266.03 1236.97 256.96
  Q 1236.50 256.63 1236.50 257.20
  L 1236.50 282.22
  A 0.62 0.61 13.3 0 0 1236.84 282.77"
/>
<path stroke="#80ced2" vector-effect="non-scaling-stroke" d="
  M 742.50 276.77
  L 742.50 290.76
  A 0.51 0.51 0.0 0 0 743.01 291.27
  L 765.74 291.27
  A 0.52 0.51 0.0 0 0 766.26 290.76
  L 766.25 170.41
  A 0.66 0.66 0.0 0 0 765.59 169.75
  L 743.00 169.75
  A 0.50 0.50 0.0 0 0 742.50 170.25
  L 742.50 255.55
  A 2.07 2.05 62.2 0 1 742.15 256.70
  C 733.83 269.02 720.34 275.77 705.40 272.59
  C 688.22 268.94 688.34 249.70 688.30 235.50
  Q 688.22 202.90 688.24 170.27
  A 0.52 0.52 0.0 0 0 687.72 169.75
  L 665.04 169.75
  A 0.51 0.51 0.0 0 0 664.53 170.26
  Q 664.44 207.85 664.70 245.44
  Q 664.76 253.50 666.06 261.44
  C 668.87 278.52 682.91 291.25 699.95 293.13
  C 715.55 294.86 730.92 287.96 741.63 276.43
  Q 742.50 275.48 742.50 276.77"
/>
<path stroke="#80ced2" vector-effect="non-scaling-stroke" d="
  M 1001.00 170.01
  A 0.26 0.26 0.0 0 0 1000.74 169.75
  L 977.02 169.75
  A 0.26 0.26 0.0 0 0 976.76 170.01
  L 976.76 291.11
  A 0.26 0.26 0.0 0 0 977.02 291.37
  L 1000.74 291.37
  A 0.26 0.26 0.0 0 0 1001.00 291.11
  L 1001.00 170.01"
/>
<path stroke="#80ced2" vector-effect="non-scaling-stroke" d="
  M 773.69 352.33
  A 1.71 1.71 0.0 0 0 772.10 353.34
  L 768.49 361.53
  A 0.45 0.44 -69.5 0 0 768.76 362.13
  C 772.41 363.36 775.69 357.17 778.72 352.92
  Q 779.09 352.41 778.46 352.40
  L 773.69 352.33"
/>
<path stroke="#80ced2" vector-effect="non-scaling-stroke" d="
  M 737.23 354.90
  A 1.75 1.74 -69.9 0 1 735.00 355.94
  C 729.46 353.93 720.73 349.89 720.79 360.55
  A 0.68 0.68 0.0 0 0 721.43 361.23
  Q 723.32 361.35 723.84 359.38
  A 1.69 1.68 16.8 0 1 726.01 358.22
  L 733.76 360.84
  Q 736.63 361.81 738.43 359.36
  Q 740.29 356.84 740.28 353.64
  A 0.65 0.65 0.0 0 0 739.63 353.00
  L 738.47 353.00
  A 0.79 0.79 0.0 0 0 737.73 353.52
  L 737.23 354.90"
/>
<path stroke="#80ced2" vector-effect="non-scaling-stroke" d="
  M 455.87 371.39
  C 442.25 383.41 447.70 407.33 466.04 411.41
  C 473.31 413.03 482.09 411.90 489.06 408.52
  A 0.78 0.77 77.3 0 0 489.50 407.82
  L 489.50 401.79
  Q 489.50 401.08 488.90 401.46
  C 475.79 409.63 452.89 407.09 455.22 386.62
  C 457.14 369.72 476.58 368.23 488.30 375.58
  Q 489.26 376.18 489.26 375.05
  L 489.25 369.53
  A 0.78 0.77 -77.3 0 0 488.81 368.83
  C 478.12 363.49 465.01 363.33 455.87 371.39"
/>
<path stroke="#80ced2" vector-effect="non-scaling-stroke" d="
  M 550.9645 388.0287
  A 24.89 23.76 -1.2 0 0 525.5824 364.7952
  A 24.89 23.76 -1.2 0 0 501.1955 389.0713
  A 24.89 23.76 -1.2 0 0 526.5776 412.3048
  A 24.89 23.76 -1.2 0 0 550.9645 388.0287"
/>
<path stroke="#80ced2" vector-effect="non-scaling-stroke" d="
  M 982.40 379.40
  C 983.85 388.64 996.07 390.01 1000.69 396.79
  C 1004.22 401.98 998.88 407.08 993.75 406.50
  Q 987.39 405.77 983.12 400.41
  Q 982.98 400.24 982.82 400.17
  Q 982.65 400.09 982.49 400.08
  A 0.37 0.37 0.0 0 0 982.10 400.47
  L 982.31 407.57
  A 0.95 0.93 -73.9 0 0 982.72 408.33
  Q 988.44 412.22 994.73 412.18
  C 1008.59 412.10 1012.69 396.19 1001.75 388.51
  Q 997.29 385.39 992.50 382.64
  Q 990.57 381.53 989.33 379.69
  C 986.52 375.50 989.02 372.18 993.27 371.19
  C 998.22 370.03 1001.89 372.32 1005.78 375.21
  Q 1006.25 375.57 1006.25 374.98
  L 1006.25 368.77
  A 0.92 0.91 -73.7 0 0 1005.83 368.00
  C 996.12 361.95 980.16 365.20 982.40 379.40"
/>
<path stroke="#80ced2" vector-effect="non-scaling-stroke" d="
  M 1067.19 406.81
  C 1076.43 414.09 1089.59 413.09 1100.07 408.80
  A 1.07 1.07 0.0 0 0 1100.72 407.80
  L 1100.47 389.26
  A 0.52 0.52 0.0 0 0 1099.95 388.75
  L 1085.88 388.75
  A 0.63 0.62 -0.0 0 0 1085.25 389.37
  L 1085.25 394.25
  A 0.50 0.50 0.0 0 0 1085.75 394.75
  L 1093.75 394.75
  A 0.50 0.50 0.0 0 1 1094.25 395.25
  L 1094.25 403.71
  A 0.85 0.84 80.3 0 1 1093.69 404.51
  C 1083.74 408.19 1072.46 406.84 1067.49 396.95
  C 1061.01 384.06 1071.09 369.38 1085.45 370.84
  Q 1092.52 371.56 1099.11 375.28
  A 0.43 0.43 0.0 0 0 1099.75 374.91
  L 1099.75 369.62
  A 0.92 0.92 0.0 0 0 1099.23 368.79
  C 1088.60 363.69 1075.14 363.12 1066.22 371.44
  C 1055.96 381.02 1056.01 398.01 1067.19 406.81"
/>
<path stroke="#80ced2" vector-effect="non-scaling-stroke" d="
  M 1259.3654 388.0816
  A 24.92 23.76 -1.1 0 0 1233.9939 364.8044
  A 24.92 23.76 -1.1 0 0 1209.5346 389.0384
  A 24.92 23.76 -1.1 0 0 1234.9061 412.3156
  A 24.92 23.76 -1.1 0 0 1259.3654 388.0816"
/>
<path stroke="#80ced2" vector-effect="non-scaling-stroke" d="
  M 1275.39 386.37
  C 1279.57 389.49 1296.21 397.14 1288.53 404.49
  C 1283.50 409.30 1274.93 404.62 1271.22 400.11
  Q 1270.76 399.54 1270.75 400.28
  L 1270.74 405.88
  Q 1270.73 408.23 1272.83 409.26
  Q 1279.30 412.46 1285.18 411.97
  C 1296.38 411.03 1300.19 398.29 1293.13 390.68
  C 1289.74 387.03 1282.25 384.12 1278.95 380.85
  C 1275.59 377.52 1276.12 373.40 1280.43 371.56
  C 1285.07 369.59 1290.63 371.92 1294.48 375.19
  Q 1295.01 375.65 1295.01 374.95
  L 1294.98 368.75
  A 0.86 0.85 15.7 0 0 1294.57 368.02
  Q 1286.79 363.17 1279.23 365.72
  C 1269.94 368.85 1267.54 380.49 1275.39 386.37"
/>
<path stroke="#80ced2" vector-effect="non-scaling-stroke" d="
  M 600.14 376.68
  A 0.34 0.34 0.0 0 1 600.75 376.89
  L 600.75 411.16
  A 0.34 0.34 0.0 0 0 601.09 411.50
  L 607.06 411.50
  A 0.34 0.34 0.0 0 0 607.40 411.16
  L 607.44 366.09
  A 0.34 0.34 0.0 0 0 607.10 365.75
  L 601.28 365.75
  A 0.34 0.34 0.0 0 0 601.02 365.88
  L 586.29 384.16
  A 0.34 0.34 0.0 0 1 585.77 384.16
  L 571.09 365.92
  A 0.34 0.34 0.0 0 0 570.83 365.80
  L 564.85 365.65
  A 0.34 0.34 0.0 0 0 564.50 365.99
  L 564.50 411.16
  A 0.34 0.34 0.0 0 0 564.84 411.50
  L 570.92 411.50
  A 0.34 0.34 0.0 0 0 571.26 411.16
  L 571.22 376.93
  A 0.34 0.34 0.0 0 1 571.83 376.72
  L 585.77 393.98
  A 0.34 0.34 0.0 0 0 586.30 393.98
  L 600.14 376.68"
/>
<path stroke="#80ced2" vector-effect="non-scaling-stroke" d="
  M 651.43 380.29
  C 653.82 363.02 633.32 365.29 623.27 365.54
  A 0.55 0.55 0.0 0 0 622.74 366.09
  L 622.76 411.00
  A 0.50 0.49 90.0 0 0 623.25 411.50
  L 628.75 411.50
  A 0.50 0.50 0.0 0 0 629.25 411.00
  L 629.25 392.09
  A 0.49 0.48 0.0 0 1 629.74 391.61
  C 639.37 391.58 649.79 392.12 651.43 380.29"
/>
<path stroke="#80ced2" vector-effect="non-scaling-stroke" d="
  M 684.60 398.02
  A 0.34 0.34 0.0 0 1 684.91 398.22
  L 690.76 411.30
  A 0.34 0.34 0.0 0 0 691.07 411.50
  L 697.07 411.51
  A 0.34 0.34 0.0 0 0 697.38 411.03
  L 677.19 365.70
  A 0.34 0.34 0.0 0 0 676.88 365.50
  L 672.54 365.49
  A 0.34 0.34 0.0 0 0 672.22 365.70
  L 652.86 411.03
  A 0.34 0.34 0.0 0 0 653.17 411.50
  L 659.20 411.50
  A 0.34 0.34 0.0 0 0 659.52 411.29
  L 664.99 398.20
  A 0.34 0.34 0.0 0 1 665.31 397.99
  L 684.60 398.02"
/>
<path stroke="#80ced2" vector-effect="non-scaling-stroke" d="
  M 745.18 365.75
  A 0.43 0.43 0.0 0 0 744.75 366.18
  L 744.93 400.17
  A 0.43 0.43 0.0 0 1 744.18 400.45
  L 714.25 365.96
  A 0.43 0.43 0.0 0 0 713.94 365.81
  L 709.18 365.64
  A 0.43 0.43 0.0 0 0 708.73 366.07
  L 708.74 411.15
  A 0.43 0.43 0.0 0 0 709.18 411.58
  L 714.09 411.47
  A 0.43 0.43 0.0 0 0 714.51 411.04
  L 714.50 377.05
  A 0.43 0.43 0.0 0 1 715.26 376.77
  L 745.28 411.35
  A 0.43 0.43 0.0 0 0 745.61 411.50
  L 750.82 411.50
  A 0.43 0.43 0.0 0 0 751.25 411.07
  L 751.26 366.18
  A 0.43 0.43 0.0 0 0 750.83 365.75
  L 745.18 365.75"
/>
<path stroke="#80ced2" vector-effect="non-scaling-stroke" d="
  M 816.16 398.00
  A 0.32 0.32 0.0 0 1 816.45 398.19
  L 822.30 411.31
  A 0.32 0.32 0.0 0 0 822.59 411.50
  L 828.65 411.50
  A 0.32 0.32 0.0 0 0 828.94 411.05
  L 808.72 365.69
  A 0.32 0.32 0.0 0 0 808.43 365.50
  L 804.07 365.50
  A 0.32 0.32 0.0 0 0 803.78 365.69
  L 784.43 411.05
  A 0.32 0.32 0.0 0 0 784.72 411.50
  L 790.75 411.50
  A 0.32 0.32 0.0 0 0 791.04 411.30
  L 796.57 398.20
  A 0.32 0.32 0.0 0 1 796.86 398.00
  L 816.16 398.00"
/>
<path stroke="#80ced2" vector-effect="non-scaling-stroke" d="
  M 884.68 411.44
  C 914.05 409.79 913.71 365.98 883.72 365.81
  Q 874.41 365.76 864.87 365.69
  A 0.54 0.53 0.0 0 0 864.33 366.22
  L 864.25 410.98
  A 0.48 0.48 0.0 0 0 864.72 411.46
  Q 880.86 411.66 884.68 411.44"
/>
<path stroke="#80ced2" vector-effect="non-scaling-stroke" d="
  M 927.25 391.59
  A 0.32 0.32 0.0 0 1 927.57 391.27
  L 945.70 391.24
  A 0.32 0.32 0.0 0 0 946.02 390.92
  L 946.02 386.07
  A 0.32 0.32 0.0 0 0 945.70 385.75
  L 927.57 385.75
  A 0.32 0.32 0.0 0 1 927.25 385.43
  L 927.25 371.82
  A 0.32 0.32 0.0 0 1 927.57 371.50
  L 946.26 371.50
  A 0.32 0.32 0.0 0 0 946.58 371.18
  L 946.62 366.08
  A 0.32 0.32 0.0 0 0 946.30 365.76
  L 921.04 365.74
  A 0.32 0.32 0.0 0 0 920.72 366.06
  L 920.47 411.18
  A 0.32 0.32 0.0 0 0 920.79 411.50
  L 947.04 411.50
  A 0.32 0.32 0.0 0 0 947.36 411.17
  L 947.21 406.06
  A 0.32 0.32 0.0 0 0 946.89 405.75
  L 927.57 405.75
  A 0.32 0.32 0.0 0 1 927.25 405.43
  L 927.25 391.59"
/>
<path stroke="#80ced2" vector-effect="non-scaling-stroke" d="
  M 773.27 366.01
  A 0.26 0.26 0.0 0 0 773.01 365.75
  L 767.01 365.75
  A 0.26 0.26 0.0 0 0 766.75 366.01
  L 766.75 411.25
  A 0.26 0.26 0.0 0 0 767.01 411.51
  L 773.01 411.51
  A 0.26 0.26 0.0 0 0 773.27 411.25
  L 773.27 366.01"
/>
<path stroke="#80ced2" vector-effect="non-scaling-stroke" d="
  M 1027.50 391.57
  A 0.30 0.30 0.0 0 1 1027.80 391.27
  L 1045.95 391.30
  A 0.30 0.30 0.0 0 0 1046.25 391.00
  L 1046.25 386.05
  A 0.30 0.30 0.0 0 0 1045.95 385.75
  L 1027.80 385.75
  A 0.30 0.30 0.0 0 1 1027.50 385.45
  L 1027.50 371.80
  A 0.30 0.30 0.0 0 1 1027.80 371.50
  L 1046.95 371.50
  A 0.30 0.30 0.0 0 0 1047.25 371.20
  L 1047.25 366.05
  A 0.30 0.30 0.0 0 0 1046.95 365.75
  L 1021.05 365.75
  A 0.30 0.30 0.0 0 0 1020.75 366.05
  L 1020.75 411.20
  A 0.30 0.30 0.0 0 0 1021.05 411.50
  L 1047.20 411.50
  A 0.30 0.30 0.0 0 0 1047.50 411.20
  L 1047.50 406.05
  A 0.30 0.30 0.0 0 0 1047.20 405.75
  L 1027.80 405.75
  A 0.30 0.30 0.0 0 1 1027.50 405.45
  L 1027.50 391.57"
/>
<path stroke="#80ced2" vector-effect="non-scaling-stroke" d="
  M 1116.13 401.15
  C 1121.22 415.77 1146.87 415.83 1152.94 402.01
  Q 1154.46 398.55 1154.47 389.64
  Q 1154.49 377.99 1154.58 366.33
  A 0.57 0.57 0.0 0 0 1154.01 365.75
  L 1148.33 365.75
  A 0.46 0.46 0.0 0 0 1147.87 366.22
  Q 1148.22 379.92 1147.86 393.62
  Q 1147.73 398.41 1146.48 400.63
  C 1143.66 405.60 1136.53 407.25 1131.23 406.03
  Q 1121.60 403.80 1121.54 393.73
  Q 1121.46 380.01 1121.50 366.27
  A 0.52 0.52 0.0 0 0 1120.98 365.75
  L 1115.54 365.75
  A 0.50 0.50 0.0 0 0 1115.04 366.26
  Q 1115.31 379.95 1115.29 393.60
  Q 1115.29 398.73 1116.13 401.15"
/>
<path stroke="#80ced2" vector-effect="non-scaling-stroke" d="
  M 1176.73 391.55
  C 1186.89 391.26 1192.11 403.72 1196.89 411.09
  A 0.89 0.88 -16.0 0 0 1197.64 411.50
  L 1204.20 411.51
  Q 1204.90 411.51 1204.51 410.93
  C 1200.06 404.37 1195.35 394.90 1189.05 390.13
  A 0.38 0.38 0.0 0 1 1189.13 389.48
  C 1198.72 385.30 1198.70 371.64 1189.47 367.29
  C 1184.45 364.93 1176.25 365.66 1170.17 365.79
  A 0.41 0.40 -90.0 0 0 1169.78 366.19
  L 1169.61 410.80
  A 0.74 0.74 0.0 0 0 1170.36 411.54
  L 1175.40 411.49
  A 0.65 0.65 0.0 0 0 1176.04 410.85
  L 1176.27 392.02
  A 0.47 0.47 0.0 0 1 1176.73 391.55"
/>
<path stroke="#80ced2" vector-effect="non-scaling-stroke" d="
  M 1317.70 420.99
  A 9.63 9.63 0.0 0 0 1308.07 411.36
  A 9.63 9.63 0.0 0 0 1298.44 420.99
  A 9.63 9.63 0.0 0 0 1308.07 430.62
  A 9.63 9.63 0.0 0 0 1317.70 420.99"
/>
<path stroke="#c584be" vector-effect="non-scaling-stroke" d="
  M 55.4801 422.7998
  A 0.31 0.31 0.0 0 0 55.1695 422.4903
  L 44.0495 422.5097
  A 0.31 0.31 0.0 0 0 43.7401 422.8203
  L 43.7599 434.2002
  A 0.31 0.31 0.0 0 0 44.0705 434.5097
  L 55.1905 434.4903
  A 0.31 0.31 0.0 0 0 55.4999 434.1797
  L 55.4801 422.7998"
/>
<path stroke="#c584be" vector-effect="non-scaling-stroke" d="
  M 85.2212 422.9986
  A 0.51 0.51 0.0 0 0 84.7086 422.4912
  L 73.6887 422.5489
  A 0.51 0.51 0.0 0 0 73.1814 423.0616
  L 73.2388 434.0214
  A 0.51 0.51 0.0 0 0 73.7514 434.5288
  L 84.7713 434.4711
  A 0.51 0.51 0.0 0 0 85.2786 433.9584
  L 85.2212 422.9986"
/>
<path stroke="#c584be" vector-effect="non-scaling-stroke" d="
  M 114.4900 422.7497
  A 0.26 0.26 0.0 0 0 114.2295 422.4902
  L 102.9495 422.5099
  A 0.26 0.26 0.0 0 0 102.6900 422.7703
  L 102.7100 434.2503
  A 0.26 0.26 0.0 0 0 102.9705 434.5098
  L 114.2505 434.4901
  A 0.26 0.26 0.0 0 0 114.5100 434.2297
  L 114.4900 422.7497"
/>
<path stroke="#c584be" vector-effect="non-scaling-stroke" d="
  M 144.2197 422.9506
  A 0.44 0.44 0.0 0 0 143.7805 422.5098
  L 132.5805 422.4902
  A 0.44 0.44 0.0 0 0 132.1397 422.9295
  L 132.1203 434.0494
  A 0.44 0.44 0.0 0 0 132.5595 434.4902
  L 143.7595 434.5098
  A 0.44 0.44 0.0 0 0 144.2003 434.0705
  L 144.2197 422.9506"
/>
<path stroke="#c584be" vector-effect="non-scaling-stroke" d="
  M 173.4900 422.7497
  A 0.26 0.26 0.0 0 0 173.2295 422.4902
  L 161.9495 422.5099
  A 0.26 0.26 0.0 0 0 161.6900 422.7703
  L 161.7100 434.2503
  A 0.26 0.26 0.0 0 0 161.9705 434.5098
  L 173.2505 434.4901
  A 0.26 0.26 0.0 0 0 173.5100 434.2297
  L 173.4900 422.7497"
/>
<path stroke="#c584be" vector-effect="non-scaling-stroke" d="
  M 203.1104 423.0094
  A 0.48 0.48 0.0 0 0 202.6296 422.5303
  L 191.4696 422.5497
  A 0.48 0.48 0.0 0 0 190.9904 423.0306
  L 191.0096 434.0306
  A 0.48 0.48 0.0 0 0 191.4904 434.5097
  L 202.6504 434.4903
  A 0.48 0.48 0.0 0 0 203.1296 434.0094
  L 203.1104 423.0094"
/>
<path stroke="#c584be" vector-effect="non-scaling-stroke" d="
  M 232.4901 422.9095
  A 0.30 0.30 0.0 0 0 232.1896 422.6101
  L 220.7896 422.6300
  A 0.30 0.30 0.0 0 0 220.4902 422.9305
  L 220.5099 434.2105
  A 0.30 0.30 0.0 0 0 220.8104 434.5099
  L 232.2104 434.4900
  A 0.30 0.30 0.0 0 0 232.5098 434.1895
  L 232.4901 422.9095"
/>
<path stroke="#c584be" vector-effect="non-scaling-stroke" d="
  M 262.0499 422.8606
  A 0.34 0.34 0.0 0 0 261.7104 422.5200
  L 250.3105 422.5001
  A 0.34 0.34 0.0 0 0 249.9699 422.8395
  L 249.9501 434.1394
  A 0.34 0.34 0.0 0 0 250.2896 434.4800
  L 261.6895 434.4999
  A 0.34 0.34 0.0 0 0 262.0301 434.1605
  L 262.0499 422.8606"
/>
<path stroke="#c584be" vector-effect="non-scaling-stroke" d="
  M 291.3000 422.7906
  A 0.27 0.27 0.0 0 0 291.0309 422.5197
  L 279.7910 422.4804
  A 0.27 0.27 0.0 0 0 279.5200 422.7495
  L 279.4800 434.2094
  A 0.27 0.27 0.0 0 0 279.7491 434.4803
  L 290.9890 434.5196
  A 0.27 0.27 0.0 0 0 291.2600 434.2505
  L 291.3000 422.7906"
/>
<path stroke="#c584be" vector-effect="non-scaling-stroke" d="
  M 320.7301 422.7898
  A 0.30 0.30 0.0 0 0 320.4295 422.4903
  L 309.2896 422.5097
  A 0.30 0.30 0.0 0 0 308.9901 422.8103
  L 309.0099 434.1902
  A 0.30 0.30 0.0 0 0 309.3105 434.4897
  L 320.4504 434.4703
  A 0.30 0.30 0.0 0 0 320.7499 434.1697
  L 320.7301 422.7898"
/>
<path stroke="#c584be" vector-effect="non-scaling-stroke" d="
  M 350.2700 422.7803
  A 0.27 0.27 0.0 0 0 350.0005 422.5098
  L 338.7805 422.4902
  A 0.27 0.27 0.0 0 0 338.5100 422.7597
  L 338.4900 434.2197
  A 0.27 0.27 0.0 0 0 338.7595 434.4902
  L 349.9795 434.5098
  A 0.27 0.27 0.0 0 0 350.2500 434.2403
  L 350.2700 422.7803"
/>
<path stroke="#c584be" vector-effect="non-scaling-stroke" d="
  M 379.7692 423.0009
  A 0.48 0.48 0.0 0 0 379.2909 422.5192
  L 368.2910 422.4808
  A 0.48 0.48 0.0 0 0 367.8093 422.9592
  L 367.7708 433.9991
  A 0.48 0.48 0.0 0 0 368.2491 434.4808
  L 379.2490 434.5192
  A 0.48 0.48 0.0 0 0 379.7307 434.0408
  L 379.7692 423.0009"
/>
<path stroke="#c584be" vector-effect="non-scaling-stroke" d="
  M 409.2700 422.7803
  A 0.27 0.27 0.0 0 0 409.0005 422.5098
  L 397.7805 422.4902
  A 0.27 0.27 0.0 0 0 397.5100 422.7597
  L 397.4900 434.2197
  A 0.27 0.27 0.0 0 0 397.7595 434.4902
  L 408.9795 434.5098
  A 0.27 0.27 0.0 0 0 409.2500 434.2403
  L 409.2700 422.7803"
/>
<path stroke="#c584be" vector-effect="non-scaling-stroke" d="
  M 397.50 57.51
  A 0.26 0.26 0.0 0 0 397.24 57.25
  L 55.76 57.25
  A 0.26 0.26 0.0 0 0 55.50 57.51
  L 55.50 398.49
  A 0.26 0.26 0.0 0 0 55.76 398.75
  L 397.24 398.75
  A 0.26 0.26 0.0 0 0 397.50 398.49
  L 397.50 57.51"
/>
<path stroke="#c584be" vector-effect="non-scaling-stroke" d="
  M 254.31 75.94
  C 196.55 67.87 127.10 86.53 107.56 148.08
  C 101.07 168.52 101.76 190.78 108.06 211.24
  C 128.17 276.59 206.56 293.25 264.93 281.41
  C 312.11 271.84 351.08 239.02 353.66 188.25
  C 356.88 124.93 314.77 84.38 254.31 75.94"
/>
<path stroke="#c584be" vector-effect="non-scaling-stroke" d="
  M 349.22 319.31
  C 353.21 315.63 360.81 309.64 355.02 304.19
  C 351.96 301.31 346.34 303.48 342.98 304.96
  C 327.70 311.69 309.00 318.88 291.45 320.40
  Q 243.37 324.57 199.02 305.72
  C 166.77 292.01 134.49 278.50 102.47 264.21
  A 0.45 0.44 21.0 0 0 101.86 264.48
  L 96.14 282.80
  A 0.55 0.54 -71.0 0 0 96.47 283.48
  Q 142.23 301.22 183.34 327.84
  C 206.95 343.13 230.75 358.13 254.47 373.25
  Q 258.40 375.75 266.43 379.53
  C 276.51 384.26 283.49 380.02 290.58 373.11
  Q 315.76 348.57 331.22 335.22
  Q 343.30 324.80 349.22 319.31"
/>
<path stroke="#c584be" vector-effect="non-scaling-stroke" d="
  M 284.24 125.53
  C 271.63 98.46 240.59 90.05 212.74 95.78
  C 162.40 106.12 157.54 171.49 165.65 210.82
  C 172.02 241.74 191.19 261.83 222.87 264.37
  C 249.38 266.49 273.02 256.84 284.66 231.66
  C 292.10 215.56 293.67 197.79 293.66 179.49
  C 293.65 161.29 291.90 141.98 284.24 125.53"
/>
<path stroke="#80ced2" vector-effect="non-scaling-stroke" d="
  M 501.24 256.24
  Q 512.04 264.07 524.33 266.90
  C 554.72 273.91 585.34 264.65 603.76 238.98
  C 621.76 213.90 620.19 176.69 599.61 153.37
  C 560.48 109.02 479.83 127.58 472.79 189.98
  Q 468.03 232.14 501.24 256.24"
/>
<path stroke="#80ced2" vector-effect="non-scaling-stroke" d="
  M 823.94 273.31
  C 833.85 280.49 847.68 275.29 855.41 267.54
  A 1.16 1.16 0.0 0 0 855.75 266.72
  L 855.75 232.02
  A 0.39 0.38 -9.4 0 0 855.24 231.66
  C 842.76 236.00 817.35 242.78 817.34 259.75
  Q 817.33 268.53 823.94 273.31"
/>
<path stroke="#80ced2" vector-effect="non-scaling-stroke" d="
  M 1150.19 272.31
  C 1159.82 281.14 1174.86 275.36 1182.82 267.54
  A 1.47 1.47 0.0 0 0 1183.25 266.50
  L 1183.25 232.02
  A 0.40 0.40 0.0 0 0 1182.73 231.64
  C 1173.47 234.82 1157.07 240.19 1150.66 246.43
  C 1143.38 253.53 1142.01 264.82 1150.19 272.31"
/>
<path stroke="#80ced2" vector-effect="non-scaling-stroke" d="
  M 544.1254 388.2112
  A 18.02 17.51 -1.3 0 0 525.7127 371.1145
  A 18.02 17.51 -1.3 0 0 508.0946 389.0288
  A 18.02 17.51 -1.3 0 0 526.5073 406.1255
  A 18.02 17.51 -1.3 0 0 544.1254 388.2112"
/>
<path stroke="#80ced2" vector-effect="non-scaling-stroke" d="
  M 1252.5078 388.3368
  A 18.03 17.50 -0.9 0 0 1234.2051 371.1222
  A 18.03 17.50 -0.9 0 0 1216.4522 388.9032
  A 18.03 17.50 -0.9 0 0 1234.7549 406.1178
  A 18.03 17.50 -0.9 0 0 1252.5078 388.3368"
/>
<path stroke="#80ced2" vector-effect="non-scaling-stroke" d="
  M 640.95 372.31
  Q 639.26 371.47 637.38 371.41
  L 629.79 371.18
  A 0.53 0.53 0.0 0 0 629.25 371.71
  L 629.25 385.23
  A 0.49 0.48 -88.8 0 0 629.71 385.72
  C 636.01 385.97 646.16 386.81 644.64 376.83
  Q 644.19 373.92 640.95 372.31"
/>
<path stroke="#80ced2" vector-effect="non-scaling-stroke" d="
  M 668.11 391.44
  A 0.47 0.47 0.0 0 0 668.56 392.09
  L 681.26 391.91
  A 0.47 0.47 0.0 0 0 681.68 391.25
  L 675.12 376.53
  A 0.47 0.47 0.0 0 0 674.26 376.54
  L 668.11 391.44"
/>
<path stroke="#80ced2" vector-effect="non-scaling-stroke" d="
  M 799.51 391.61
  A 0.33 0.33 0.0 0 0 799.81 392.07
  L 813.00 391.93
  A 0.33 0.33 0.0 0 0 813.30 391.47
  L 806.55 376.23
  A 0.33 0.33 0.0 0 0 805.94 376.24
  L 799.51 391.61"
/>
<path stroke="#80ced2" vector-effect="non-scaling-stroke" d="
  M 871.32 405.55
  C 879.44 406.05 889.58 406.63 895.50 400.07
  C 899.79 395.32 901.19 387.11 898.51 381.25
  C 893.60 370.51 882.30 371.20 871.59 371.62
  A 0.61 0.61 0.0 0 0 871.00 372.23
  L 871.00 405.22
  A 0.33 0.33 0.0 0 0 871.32 405.55"
/>
<path stroke="#80ced2" vector-effect="non-scaling-stroke" d="
  M 1186.35 372.45
  Q 1181.71 370.62 1176.75 371.37
  A 0.65 0.64 -4.5 0 0 1176.19 372.02
  L 1176.28 385.24
  A 0.48 0.48 0.0 0 0 1176.76 385.72
  C 1183.62 385.80 1191.03 385.13 1189.22 375.90
  Q 1188.73 373.39 1186.35 372.45"
/>
<path stroke="#80ced2" vector-effect="non-scaling-stroke" d="
  M 1316.08 420.99
  A 8.00 8.00 0.0 0 0 1308.08 412.99
  A 8.00 8.00 0.0 0 0 1300.08 420.99
  A 8.00 8.00 0.0 0 0 1308.08 428.99
  A 8.00 8.00 0.0 0 0 1316.08 420.99"
/>
<path stroke="#80ced2" vector-effect="non-scaling-stroke" d="
  M 1309.82 421.46
  Q 1311.66 420.78 1311.79 418.71
  Q 1311.95 416.12 1309.35 416.07
  L 1304.57 415.97
  A 0.67 0.67 0.0 0 0 1303.88 416.60
  C 1303.73 418.66 1303.27 426.23 1304.57 426.39
  A 0.54 0.53 -82.5 0 0 1305.17 425.92
  C 1305.28 425.08 1305.04 423.09 1305.44 422.47
  C 1306.96 420.14 1309.83 424.86 1310.29 425.92
  A 0.71 0.68 73.3 0 0 1311.04 426.34
  L 1311.85 426.20
  A 0.48 0.47 66.2 0 0 1312.14 425.44
  L 1309.62 422.19
  A 0.47 0.47 0.0 0 1 1309.82 421.46"
/>
<path stroke="#80ced2" vector-effect="non-scaling-stroke" d="
  M 1309.8657 418.6675
  A 1.19 1.19 0.0 0 0 1308.6592 417.4942
  L 1306.3794 417.5261
  A 1.19 1.19 0.0 0 0 1305.2062 418.7326
  L 1305.2143 419.3125
  A 1.19 1.19 0.0 0 0 1306.4208 420.4858
  L 1308.7006 420.4539
  A 1.19 1.19 0.0 0 0 1309.8738 419.2474
  L 1309.8657 418.6675"
/>
</g>
<path fill="#fffffe" d="
  M 0.00 0.00
  L 1363.00 0.00
  L 1363.00 482.00
  L 0.00 482.00
  L 0.00 0.00
  Z
  M 409.25 45.52
  A 0.27 0.27 0.0 0 0 408.98 45.25
  L 44.02 45.25
  A 0.27 0.27 0.0 0 0 43.75 45.52
  L 43.75 410.48
  A 0.27 0.27 0.0 0 0 44.02 410.75
  L 408.98 410.75
  A 0.27 0.27 0.0 0 0 409.25 410.48
  L 409.25 45.52
  Z
  M 846.85 103.75
  A 0.31 0.31 0.0 0 0 846.57 103.93
  L 829.06 142.80
  A 0.31 0.31 0.0 0 0 829.34 143.24
  L 843.35 143.58
  A 0.31 0.31 0.0 0 0 843.61 143.45
  L 873.20 104.25
  A 0.31 0.31 0.0 0 0 872.95 103.75
  L 846.85 103.75
  Z
  M 641.01 176.75
  C 628.97 120.44 569.75 94.77 517.30 107.02
  C 483.54 114.91 455.26 141.04 447.39 175.59
  C 435.26 228.85 466.19 280.14 520.01 290.96
  Q 522.32 291.42 524.18 292.74
  C 549.67 310.77 580.38 327.31 612.37 328.53
  A 1.24 1.23 23.4 0 0 613.29 328.17
  L 638.31 303.73
  Q 638.89 303.17 638.13 303.43
  Q 621.67 309.03 603.67 303.84
  Q 582.47 297.72 568.15 291.71
  Q 567.69 291.52 568.16 291.36
  Q 572.29 289.92 576.53 288.74
  C 625.27 275.11 651.31 224.99 641.01 176.75
  Z
  M 938.75 107.02
  A 0.27 0.27 0.0 0 0 938.48 106.75
  L 915.02 106.75
  A 0.27 0.27 0.0 0 0 914.75 107.02
  L 914.75 291.00
  A 0.27 0.27 0.0 0 0 915.02 291.27
  L 938.48 291.27
  A 0.27 0.27 0.0 0 0 938.75 291.00
  L 938.75 107.02
  Z
  M 1003.15 132.85
  A 14.16 14.16 0.0 0 0 988.99 118.69
  A 14.16 14.16 0.0 0 0 974.83 132.85
  A 14.16 14.16 0.0 0 0 988.99 147.01
  A 14.16 14.16 0.0 0 0 1003.15 132.85
  Z
  M 1039.69 192.00
  Q 1039.81 219.50 1039.89 247.00
  C 1039.94 261.98 1040.14 276.24 1053.57 285.98
  C 1069.15 297.28 1091.96 294.60 1108.11 285.91
  A 0.79 0.78 76.0 0 0 1108.52 285.22
  L 1108.49 263.80
  Q 1108.49 263.12 1107.91 263.48
  C 1092.33 273.22 1064.41 280.15 1064.12 251.37
  Q 1063.82 221.76 1064.10 192.00
  A 0.51 0.51 0.0 0 1 1064.61 191.50
  L 1102.00 191.50
  A 0.50 0.50 0.0 0 0 1102.50 191.00
  L 1102.50 170.25
  A 0.50 0.50 0.0 0 0 1102.00 169.75
  L 1064.75 169.75
  A 0.75 0.75 0.0 0 1 1064.00 169.00
  L 1064.00 146.21
  Q 1064.00 144.46 1062.75 145.69
  Q 1040.76 167.41 1019.04 188.79
  Q 1017.98 189.84 1018.75 191.09
  A 0.87 0.85 -15.3 0 0 1019.49 191.50
  L 1039.19 191.50
  A 0.50 0.50 0.0 0 1 1039.69 192.00
  Z
  M 855.71 281.90
  C 859.75 296.44 878.32 295.15 888.74 289.43
  C 890.97 288.20 894.27 286.43 896.83 284.60
  A 1.00 0.99 -18.0 0 0 897.25 283.79
  L 897.25 270.28
  Q 897.25 269.74 896.81 270.05
  C 891.46 273.94 879.34 282.24 879.47 268.50
  Q 879.67 246.07 879.40 212.90
  Q 879.29 199.89 877.70 194.24
  C 868.07 160.05 816.32 160.61 796.08 183.37
  A 1.31 1.30 66.1 0 0 795.75 184.24
  L 795.75 209.48
  Q 795.75 210.05 796.15 209.64
  C 807.96 197.52 822.71 187.02 840.73 190.56
  C 854.31 193.23 856.87 205.46 855.58 217.82
  A 0.78 0.78 0.0 0 1 855.05 218.48
  Q 839.79 223.73 824.50 228.87
  Q 809.51 233.90 800.95 243.93
  C 788.00 259.10 792.05 282.49 810.51 290.65
  C 824.86 296.99 843.33 290.77 855.02 281.67
  A 0.44 0.44 0.0 0 1 855.71 281.90
  Z
  M 1182.91 281.98
  Q 1186.37 291.93 1197.02 293.14
  C 1207.46 294.33 1215.86 290.38 1224.28 284.57
  A 1.11 1.07 -18.0 0 0 1224.75 283.68
  L 1224.75 270.52
  Q 1224.75 269.77 1224.14 270.20
  C 1219.98 273.13 1206.99 282.07 1206.90 269.83
  Q 1206.71 242.83 1206.73 215.81
  Q 1206.74 201.01 1205.55 195.88
  C 1199.32 169.04 1169.16 163.80 1146.49 169.52
  Q 1132.81 172.97 1123.36 183.53
  A 1.29 1.28 -23.9 0 0 1123.02 184.40
  L 1122.99 208.72
  Q 1122.99 210.37 1124.10 209.15
  C 1135.06 197.14 1151.60 186.94 1168.25 190.55
  C 1181.95 193.51 1184.29 205.75 1183.07 217.79
  A 0.78 0.77 83.6 0 1 1182.55 218.45
  Q 1168.67 223.24 1154.75 227.88
  C 1144.22 231.40 1132.50 237.58 1126.11 246.84
  C 1118.39 258.01 1119.07 273.89 1128.43 283.98
  C 1142.91 299.57 1167.70 293.03 1182.35 281.81
  A 0.36 0.36 0.0 0 1 1182.91 281.98
  Z
  M 1236.84 282.77
  C 1251.79 290.09 1265.82 294.78 1283.30 293.05
  C 1303.96 291.01 1322.96 276.05 1317.98 253.16
  C 1313.63 233.10 1289.26 221.97 1273.17 212.26
  Q 1266.46 208.20 1264.78 205.70
  C 1256.94 194.03 1269.50 187.42 1279.26 188.25
  C 1290.99 189.26 1302.34 195.00 1312.51 200.99
  Q 1313.00 201.28 1313.00 200.72
  L 1313.00 178.32
  A 0.98 0.97 -75.0 0 0 1312.52 177.48
  Q 1292.29 165.81 1269.38 167.93
  C 1256.31 169.15 1243.16 176.63 1238.92 189.56
  C 1229.56 218.06 1261.21 233.54 1280.10 244.37
  C 1285.31 247.36 1291.47 251.07 1293.21 256.86
  Q 1295.38 264.09 1288.46 268.73
  C 1273.11 279.03 1249.74 266.03 1236.97 256.96
  Q 1236.50 256.63 1236.50 257.20
  L 1236.50 282.22
  A 0.62 0.61 13.3 0 0 1236.84 282.77
  Z
  M 742.50 276.77
  L 742.50 290.76
  A 0.51 0.51 0.0 0 0 743.01 291.27
  L 765.74 291.27
  A 0.52 0.51 0.0 0 0 766.26 290.76
  L 766.25 170.41
  A 0.66 0.66 0.0 0 0 765.59 169.75
  L 743.00 169.75
  A 0.50 0.50 0.0 0 0 742.50 170.25
  L 742.50 255.55
  A 2.07 2.05 62.2 0 1 742.15 256.70
  C 733.83 269.02 720.34 275.77 705.40 272.59
  C 688.22 268.94 688.34 249.70 688.30 235.50
  Q 688.22 202.90 688.24 170.27
  A 0.52 0.52 0.0 0 0 687.72 169.75
  L 665.04 169.75
  A 0.51 0.51 0.0 0 0 664.53 170.26
  Q 664.44 207.85 664.70 245.44
  Q 664.76 253.50 666.06 261.44
  C 668.87 278.52 682.91 291.25 699.95 293.13
  C 715.55 294.86 730.92 287.96 741.63 276.43
  Q 742.50 275.48 742.50 276.77
  Z
  M 1001.00 170.01
  A 0.26 0.26 0.0 0 0 1000.74 169.75
  L 977.02 169.75
  A 0.26 0.26 0.0 0 0 976.76 170.01
  L 976.76 291.11
  A 0.26 0.26 0.0 0 0 977.02 291.37
  L 1000.74 291.37
  A 0.26 0.26 0.0 0 0 1001.00 291.11
  L 1001.00 170.01
  Z
  M 773.69 352.33
  A 1.71 1.71 0.0 0 0 772.10 353.34
  L 768.49 361.53
  A 0.45 0.44 -69.5 0 0 768.76 362.13
  C 772.41 363.36 775.69 357.17 778.72 352.92
  Q 779.09 352.41 778.46 352.40
  L 773.69 352.33
  Z
  M 737.23 354.90
  A 1.75 1.74 -69.9 0 1 735.00 355.94
  C 729.46 353.93 720.73 349.89 720.79 360.55
  A 0.68 0.68 0.0 0 0 721.43 361.23
  Q 723.32 361.35 723.84 359.38
  A 1.69 1.68 16.8 0 1 726.01 358.22
  L 733.76 360.84
  Q 736.63 361.81 738.43 359.36
  Q 740.29 356.84 740.28 353.64
  A 0.65 0.65 0.0 0 0 739.63 353.00
  L 738.47 353.00
  A 0.79 0.79 0.0 0 0 737.73 353.52
  L 737.23 354.90
  Z
  M 455.87 371.39
  C 442.25 383.41 447.70 407.33 466.04 411.41
  C 473.31 413.03 482.09 411.90 489.06 408.52
  A 0.78 0.77 77.3 0 0 489.50 407.82
  L 489.50 401.79
  Q 489.50 401.08 488.90 401.46
  C 475.79 409.63 452.89 407.09 455.22 386.62
  C 457.14 369.72 476.58 368.23 488.30 375.58
  Q 489.26 376.18 489.26 375.05
  L 489.25 369.53
  A 0.78 0.77 -77.3 0 0 488.81 368.83
  C 478.12 363.49 465.01 363.33 455.87 371.39
  Z
  M 550.9645 388.0287
  A 24.89 23.76 -1.2 0 0 525.5824 364.7952
  A 24.89 23.76 -1.2 0 0 501.1955 389.0713
  A 24.89 23.76 -1.2 0 0 526.5776 412.3048
  A 24.89 23.76 -1.2 0 0 550.9645 388.0287
  Z
  M 982.40 379.40
  C 983.85 388.64 996.07 390.01 1000.69 396.79
  C 1004.22 401.98 998.88 407.08 993.75 406.50
  Q 987.39 405.77 983.12 400.41
  Q 982.98 400.24 982.82 400.17
  Q 982.65 400.09 982.49 400.08
  A 0.37 0.37 0.0 0 0 982.10 400.47
  L 982.31 407.57
  A 0.95 0.93 -73.9 0 0 982.72 408.33
  Q 988.44 412.22 994.73 412.18
  C 1008.59 412.10 1012.69 396.19 1001.75 388.51
  Q 997.29 385.39 992.50 382.64
  Q 990.57 381.53 989.33 379.69
  C 986.52 375.50 989.02 372.18 993.27 371.19
  C 998.22 370.03 1001.89 372.32 1005.78 375.21
  Q 1006.25 375.57 1006.25 374.98
  L 1006.25 368.77
  A 0.92 0.91 -73.7 0 0 1005.83 368.00
  C 996.12 361.95 980.16 365.20 982.40 379.40
  Z
  M 1067.19 406.81
  C 1076.43 414.09 1089.59 413.09 1100.07 408.80
  A 1.07 1.07 0.0 0 0 1100.72 407.80
  L 1100.47 389.26
  A 0.52 0.52 0.0 0 0 1099.95 388.75
  L 1085.88 388.75
  A 0.63 0.62 -0.0 0 0 1085.25 389.37
  L 1085.25 394.25
  A 0.50 0.50 0.0 0 0 1085.75 394.75
  L 1093.75 394.75
  A 0.50 0.50 0.0 0 1 1094.25 395.25
  L 1094.25 403.71
  A 0.85 0.84 80.3 0 1 1093.69 404.51
  C 1083.74 408.19 1072.46 406.84 1067.49 396.95
  C 1061.01 384.06 1071.09 369.38 1085.45 370.84
  Q 1092.52 371.56 1099.11 375.28
  A 0.43 0.43 0.0 0 0 1099.75 374.91
  L 1099.75 369.62
  A 0.92 0.92 0.0 0 0 1099.23 368.79
  C 1088.60 363.69 1075.14 363.12 1066.22 371.44
  C 1055.96 381.02 1056.01 398.01 1067.19 406.81
  Z
  M 1259.3654 388.0816
  A 24.92 23.76 -1.1 0 0 1233.9939 364.8044
  A 24.92 23.76 -1.1 0 0 1209.5346 389.0384
  A 24.92 23.76 -1.1 0 0 1234.9061 412.3156
  A 24.92 23.76 -1.1 0 0 1259.3654 388.0816
  Z
  M 1275.39 386.37
  C 1279.57 389.49 1296.21 397.14 1288.53 404.49
  C 1283.50 409.30 1274.93 404.62 1271.22 400.11
  Q 1270.76 399.54 1270.75 400.28
  L 1270.74 405.88
  Q 1270.73 408.23 1272.83 409.26
  Q 1279.30 412.46 1285.18 411.97
  C 1296.38 411.03 1300.19 398.29 1293.13 390.68
  C 1289.74 387.03 1282.25 384.12 1278.95 380.85
  C 1275.59 377.52 1276.12 373.40 1280.43 371.56
  C 1285.07 369.59 1290.63 371.92 1294.48 375.19
  Q 1295.01 375.65 1295.01 374.95
  L 1294.98 368.75
  A 0.86 0.85 15.7 0 0 1294.57 368.02
  Q 1286.79 363.17 1279.23 365.72
  C 1269.94 368.85 1267.54 380.49 1275.39 386.37
  Z
  M 600.14 376.68
  A 0.34 0.34 0.0 0 1 600.75 376.89
  L 600.75 411.16
  A 0.34 0.34 0.0 0 0 601.09 411.50
  L 607.06 411.50
  A 0.34 0.34 0.0 0 0 607.40 411.16
  L 607.44 366.09
  A 0.34 0.34 0.0 0 0 607.10 365.75
  L 601.28 365.75
  A 0.34 0.34 0.0 0 0 601.02 365.88
  L 586.29 384.16
  A 0.34 0.34 0.0 0 1 585.77 384.16
  L 571.09 365.92
  A 0.34 0.34 0.0 0 0 570.83 365.80
  L 564.85 365.65
  A 0.34 0.34 0.0 0 0 564.50 365.99
  L 564.50 411.16
  A 0.34 0.34 0.0 0 0 564.84 411.50
  L 570.92 411.50
  A 0.34 0.34 0.0 0 0 571.26 411.16
  L 571.22 376.93
  A 0.34 0.34 0.0 0 1 571.83 376.72
  L 585.77 393.98
  A 0.34 0.34 0.0 0 0 586.30 393.98
  L 600.14 376.68
  Z
  M 651.43 380.29
  C 653.82 363.02 633.32 365.29 623.27 365.54
  A 0.55 0.55 0.0 0 0 622.74 366.09
  L 622.76 411.00
  A 0.50 0.49 90.0 0 0 623.25 411.50
  L 628.75 411.50
  A 0.50 0.50 0.0 0 0 629.25 411.00
  L 629.25 392.09
  A 0.49 0.48 0.0 0 1 629.74 391.61
  C 639.37 391.58 649.79 392.12 651.43 380.29
  Z
  M 684.60 398.02
  A 0.34 0.34 0.0 0 1 684.91 398.22
  L 690.76 411.30
  A 0.34 0.34 0.0 0 0 691.07 411.50
  L 697.07 411.51
  A 0.34 0.34 0.0 0 0 697.38 411.03
  L 677.19 365.70
  A 0.34 0.34 0.0 0 0 676.88 365.50
  L 672.54 365.49
  A 0.34 0.34 0.0 0 0 672.22 365.70
  L 652.86 411.03
  A 0.34 0.34 0.0 0 0 653.17 411.50
  L 659.20 411.50
  A 0.34 0.34 0.0 0 0 659.52 411.29
  L 664.99 398.20
  A 0.34 0.34 0.0 0 1 665.31 397.99
  L 684.60 398.02
  Z
  M 745.18 365.75
  A 0.43 0.43 0.0 0 0 744.75 366.18
  L 744.93 400.17
  A 0.43 0.43 0.0 0 1 744.18 400.45
  L 714.25 365.96
  A 0.43 0.43 0.0 0 0 713.94 365.81
  L 709.18 365.64
  A 0.43 0.43 0.0 0 0 708.73 366.07
  L 708.74 411.15
  A 0.43 0.43 0.0 0 0 709.18 411.58
  L 714.09 411.47
  A 0.43 0.43 0.0 0 0 714.51 411.04
  L 714.50 377.05
  A 0.43 0.43 0.0 0 1 715.26 376.77
  L 745.28 411.35
  A 0.43 0.43 0.0 0 0 745.61 411.50
  L 750.82 411.50
  A 0.43 0.43 0.0 0 0 751.25 411.07
  L 751.26 366.18
  A 0.43 0.43 0.0 0 0 750.83 365.75
  L 745.18 365.75
  Z
  M 816.16 398.00
  A 0.32 0.32 0.0 0 1 816.45 398.19
  L 822.30 411.31
  A 0.32 0.32 0.0 0 0 822.59 411.50
  L 828.65 411.50
  A 0.32 0.32 0.0 0 0 828.94 411.05
  L 808.72 365.69
  A 0.32 0.32 0.0 0 0 808.43 365.50
  L 804.07 365.50
  A 0.32 0.32 0.0 0 0 803.78 365.69
  L 784.43 411.05
  A 0.32 0.32 0.0 0 0 784.72 411.50
  L 790.75 411.50
  A 0.32 0.32 0.0 0 0 791.04 411.30
  L 796.57 398.20
  A 0.32 0.32 0.0 0 1 796.86 398.00
  L 816.16 398.00
  Z
  M 884.68 411.44
  C 914.05 409.79 913.71 365.98 883.72 365.81
  Q 874.41 365.76 864.87 365.69
  A 0.54 0.53 0.0 0 0 864.33 366.22
  L 864.25 410.98
  A 0.48 0.48 0.0 0 0 864.72 411.46
  Q 880.86 411.66 884.68 411.44
  Z
  M 927.25 391.59
  A 0.32 0.32 0.0 0 1 927.57 391.27
  L 945.70 391.24
  A 0.32 0.32 0.0 0 0 946.02 390.92
  L 946.02 386.07
  A 0.32 0.32 0.0 0 0 945.70 385.75
  L 927.57 385.75
  A 0.32 0.32 0.0 0 1 927.25 385.43
  L 927.25 371.82
  A 0.32 0.32 0.0 0 1 927.57 371.50
  L 946.26 371.50
  A 0.32 0.32 0.0 0 0 946.58 371.18
  L 946.62 366.08
  A 0.32 0.32 0.0 0 0 946.30 365.76
  L 921.04 365.74
  A 0.32 0.32 0.0 0 0 920.72 366.06
  L 920.47 411.18
  A 0.32 0.32 0.0 0 0 920.79 411.50
  L 947.04 411.50
  A 0.32 0.32 0.0 0 0 947.36 411.17
  L 947.21 406.06
  A 0.32 0.32 0.0 0 0 946.89 405.75
  L 927.57 405.75
  A 0.32 0.32 0.0 0 1 927.25 405.43
  L 927.25 391.59
  Z
  M 773.27 366.01
  A 0.26 0.26 0.0 0 0 773.01 365.75
  L 767.01 365.75
  A 0.26 0.26 0.0 0 0 766.75 366.01
  L 766.75 411.25
  A 0.26 0.26 0.0 0 0 767.01 411.51
  L 773.01 411.51
  A 0.26 0.26 0.0 0 0 773.27 411.25
  L 773.27 366.01
  Z
  M 1027.50 391.57
  A 0.30 0.30 0.0 0 1 1027.80 391.27
  L 1045.95 391.30
  A 0.30 0.30 0.0 0 0 1046.25 391.00
  L 1046.25 386.05
  A 0.30 0.30 0.0 0 0 1045.95 385.75
  L 1027.80 385.75
  A 0.30 0.30 0.0 0 1 1027.50 385.45
  L 1027.50 371.80
  A 0.30 0.30 0.0 0 1 1027.80 371.50
  L 1046.95 371.50
  A 0.30 0.30 0.0 0 0 1047.25 371.20
  L 1047.25 366.05
  A 0.30 0.30 0.0 0 0 1046.95 365.75
  L 1021.05 365.75
  A 0.30 0.30 0.0 0 0 1020.75 366.05
  L 1020.75 411.20
  A 0.30 0.30 0.0 0 0 1021.05 411.50
  L 1047.20 411.50
  A 0.30 0.30 0.0 0 0 1047.50 411.20
  L 1047.50 406.05
  A 0.30 0.30 0.0 0 0 1047.20 405.75
  L 1027.80 405.75
  A 0.30 0.30 0.0 0 1 1027.50 405.45
  L 1027.50 391.57
  Z
  M 1116.13 401.15
  C 1121.22 415.77 1146.87 415.83 1152.94 402.01
  Q 1154.46 398.55 1154.47 389.64
  Q 1154.49 377.99 1154.58 366.33
  A 0.57 0.57 0.0 0 0 1154.01 365.75
  L 1148.33 365.75
  A 0.46 0.46 0.0 0 0 1147.87 366.22
  Q 1148.22 379.92 1147.86 393.62
  Q 1147.73 398.41 1146.48 400.63
  C 1143.66 405.60 1136.53 407.25 1131.23 406.03
  Q 1121.60 403.80 1121.54 393.73
  Q 1121.46 380.01 1121.50 366.27
  A 0.52 0.52 0.0 0 0 1120.98 365.75
  L 1115.54 365.75
  A 0.50 0.50 0.0 0 0 1115.04 366.26
  Q 1115.31 379.95 1115.29 393.60
  Q 1115.29 398.73 1116.13 401.15
  Z
  M 1176.73 391.55
  C 1186.89 391.26 1192.11 403.72 1196.89 411.09
  A 0.89 0.88 -16.0 0 0 1197.64 411.50
  L 1204.20 411.51
  Q 1204.90 411.51 1204.51 410.93
  C 1200.06 404.37 1195.35 394.90 1189.05 390.13
  A 0.38 0.38 0.0 0 1 1189.13 389.48
  C 1198.72 385.30 1198.70 371.64 1189.47 367.29
  C 1184.45 364.93 1176.25 365.66 1170.17 365.79
  A 0.41 0.40 -90.0 0 0 1169.78 366.19
  L 1169.61 410.80
  A 0.74 0.74 0.0 0 0 1170.36 411.54
  L 1175.40 411.49
  A 0.65 0.65 0.0 0 0 1176.04 410.85
  L 1176.27 392.02
  A 0.47 0.47 0.0 0 1 1176.73 391.55
  Z
  M 1317.70 420.99
  A 9.63 9.63 0.0 0 0 1308.07 411.36
  A 9.63 9.63 0.0 0 0 1298.44 420.99
  A 9.63 9.63 0.0 0 0 1308.07 430.62
  A 9.63 9.63 0.0 0 0 1317.70 420.99
  Z
  M 55.4801 422.7998
  A 0.31 0.31 0.0 0 0 55.1695 422.4903
  L 44.0495 422.5097
  A 0.31 0.31 0.0 0 0 43.7401 422.8203
  L 43.7599 434.2002
  A 0.31 0.31 0.0 0 0 44.0705 434.5097
  L 55.1905 434.4903
  A 0.31 0.31 0.0 0 0 55.4999 434.1797
  L 55.4801 422.7998
  Z
  M 85.2212 422.9986
  A 0.51 0.51 0.0 0 0 84.7086 422.4912
  L 73.6887 422.5489
  A 0.51 0.51 0.0 0 0 73.1814 423.0616
  L 73.2388 434.0214
  A 0.51 0.51 0.0 0 0 73.7514 434.5288
  L 84.7713 434.4711
  A 0.51 0.51 0.0 0 0 85.2786 433.9584
  L 85.2212 422.9986
  Z
  M 114.4900 422.7497
  A 0.26 0.26 0.0 0 0 114.2295 422.4902
  L 102.9495 422.5099
  A 0.26 0.26 0.0 0 0 102.6900 422.7703
  L 102.7100 434.2503
  A 0.26 0.26 0.0 0 0 102.9705 434.5098
  L 114.2505 434.4901
  A 0.26 0.26 0.0 0 0 114.5100 434.2297
  L 114.4900 422.7497
  Z
  M 144.2197 422.9506
  A 0.44 0.44 0.0 0 0 143.7805 422.5098
  L 132.5805 422.4902
  A 0.44 0.44 0.0 0 0 132.1397 422.9295
  L 132.1203 434.0494
  A 0.44 0.44 0.0 0 0 132.5595 434.4902
  L 143.7595 434.5098
  A 0.44 0.44 0.0 0 0 144.2003 434.0705
  L 144.2197 422.9506
  Z
  M 173.4900 422.7497
  A 0.26 0.26 0.0 0 0 173.2295 422.4902
  L 161.9495 422.5099
  A 0.26 0.26 0.0 0 0 161.6900 422.7703
  L 161.7100 434.2503
  A 0.26 0.26 0.0 0 0 161.9705 434.5098
  L 173.2505 434.4901
  A 0.26 0.26 0.0 0 0 173.5100 434.2297
  L 173.4900 422.7497
  Z
  M 203.1104 423.0094
  A 0.48 0.48 0.0 0 0 202.6296 422.5303
  L 191.4696 422.5497
  A 0.48 0.48 0.0 0 0 190.9904 423.0306
  L 191.0096 434.0306
  A 0.48 0.48 0.0 0 0 191.4904 434.5097
  L 202.6504 434.4903
  A 0.48 0.48 0.0 0 0 203.1296 434.0094
  L 203.1104 423.0094
  Z
  M 232.4901 422.9095
  A 0.30 0.30 0.0 0 0 232.1896 422.6101
  L 220.7896 422.6300
  A 0.30 0.30 0.0 0 0 220.4902 422.9305
  L 220.5099 434.2105
  A 0.30 0.30 0.0 0 0 220.8104 434.5099
  L 232.2104 434.4900
  A 0.30 0.30 0.0 0 0 232.5098 434.1895
  L 232.4901 422.9095
  Z
  M 262.0499 422.8606
  A 0.34 0.34 0.0 0 0 261.7104 422.5200
  L 250.3105 422.5001
  A 0.34 0.34 0.0 0 0 249.9699 422.8395
  L 249.9501 434.1394
  A 0.34 0.34 0.0 0 0 250.2896 434.4800
  L 261.6895 434.4999
  A 0.34 0.34 0.0 0 0 262.0301 434.1605
  L 262.0499 422.8606
  Z
  M 291.3000 422.7906
  A 0.27 0.27 0.0 0 0 291.0309 422.5197
  L 279.7910 422.4804
  A 0.27 0.27 0.0 0 0 279.5200 422.7495
  L 279.4800 434.2094
  A 0.27 0.27 0.0 0 0 279.7491 434.4803
  L 290.9890 434.5196
  A 0.27 0.27 0.0 0 0 291.2600 434.2505
  L 291.3000 422.7906
  Z
  M 320.7301 422.7898
  A 0.30 0.30 0.0 0 0 320.4295 422.4903
  L 309.2896 422.5097
  A 0.30 0.30 0.0 0 0 308.9901 422.8103
  L 309.0099 434.1902
  A 0.30 0.30 0.0 0 0 309.3105 434.4897
  L 320.4504 434.4703
  A 0.30 0.30 0.0 0 0 320.7499 434.1697
  L 320.7301 422.7898
  Z
  M 350.2700 422.7803
  A 0.27 0.27 0.0 0 0 350.0005 422.5098
  L 338.7805 422.4902
  A 0.27 0.27 0.0 0 0 338.5100 422.7597
  L 338.4900 434.2197
  A 0.27 0.27 0.0 0 0 338.7595 434.4902
  L 349.9795 434.5098
  A 0.27 0.27 0.0 0 0 350.2500 434.2403
  L 350.2700 422.7803
  Z
  M 379.7692 423.0009
  A 0.48 0.48 0.0 0 0 379.2909 422.5192
  L 368.2910 422.4808
  A 0.48 0.48 0.0 0 0 367.8093 422.9592
  L 367.7708 433.9991
  A 0.48 0.48 0.0 0 0 368.2491 434.4808
  L 379.2490 434.5192
  A 0.48 0.48 0.0 0 0 379.7307 434.0408
  L 379.7692 423.0009
  Z
  M 409.2700 422.7803
  A 0.27 0.27 0.0 0 0 409.0005 422.5098
  L 397.7805 422.4902
  A 0.27 0.27 0.0 0 0 397.5100 422.7597
  L 397.4900 434.2197
  A 0.27 0.27 0.0 0 0 397.7595 434.4902
  L 408.9795 434.5098
  A 0.27 0.27 0.0 0 0 409.2500 434.2403
  L 409.2700 422.7803
  Z"
/>
<path fill="#8b097e" d="
  M 409.25 410.48
  A 0.27 0.27 0.0 0 1 408.98 410.75
  L 44.02 410.75
  A 0.27 0.27 0.0 0 1 43.75 410.48
  L 43.75 45.52
  A 0.27 0.27 0.0 0 1 44.02 45.25
  L 408.98 45.25
  A 0.27 0.27 0.0 0 1 409.25 45.52
  L 409.25 410.48
  Z
  M 397.50 57.51
  A 0.26 0.26 0.0 0 0 397.24 57.25
  L 55.76 57.25
  A 0.26 0.26 0.0 0 0 55.50 57.51
  L 55.50 398.49
  A 0.26 0.26 0.0 0 0 55.76 398.75
  L 397.24 398.75
  A 0.26 0.26 0.0 0 0 397.50 398.49
  L 397.50 57.51
  Z"
/>
<path fill="#fffffe" d="
  M 397.50 398.49
  A 0.26 0.26 0.0 0 1 397.24 398.75
  L 55.76 398.75
  A 0.26 0.26 0.0 0 1 55.50 398.49
  L 55.50 57.51
  A 0.26 0.26 0.0 0 1 55.76 57.25
  L 397.24 57.25
  A 0.26 0.26 0.0 0 1 397.50 57.51
  L 397.50 398.49
  Z
  M 254.31 75.94
  C 196.55 67.87 127.10 86.53 107.56 148.08
  C 101.07 168.52 101.76 190.78 108.06 211.24
  C 128.17 276.59 206.56 293.25 264.93 281.41
  C 312.11 271.84 351.08 239.02 353.66 188.25
  C 356.88 124.93 314.77 84.38 254.31 75.94
  Z
  M 349.22 319.31
  C 353.21 315.63 360.81 309.64 355.02 304.19
  C 351.96 301.31 346.34 303.48 342.98 304.96
  C 327.70 311.69 309.00 318.88 291.45 320.40
  Q 243.37 324.57 199.02 305.72
  C 166.77 292.01 134.49 278.50 102.47 264.21
  A 0.45 0.44 21.0 0 0 101.86 264.48
  L 96.14 282.80
  A 0.55 0.54 -71.0 0 0 96.47 283.48
  Q 142.23 301.22 183.34 327.84
  C 206.95 343.13 230.75 358.13 254.47 373.25
  Q 258.40 375.75 266.43 379.53
  C 276.51 384.26 283.49 380.02 290.58 373.11
  Q 315.76 348.57 331.22 335.22
  Q 343.30 324.80 349.22 319.31
  Z"
/>
<path fill="#8b097e" d="
  M 254.31 75.94
  C 314.77 84.38 356.88 124.93 353.66 188.25
  C 351.08 239.02 312.11 271.84 264.93 281.41
  C 206.56 293.25 128.17 276.59 108.06 211.24
  C 101.76 190.78 101.07 168.52 107.56 148.08
  C 127.10 86.53 196.55 67.87 254.31 75.94
  Z
  M 284.24 125.53
  C 271.63 98.46 240.59 90.05 212.74 95.78
  C 162.40 106.12 157.54 171.49 165.65 210.82
  C 172.02 241.74 191.19 261.83 222.87 264.37
  C 249.38 266.49 273.02 256.84 284.66 231.66
  C 292.10 215.56 293.67 197.79 293.66 179.49
  C 293.65 161.29 291.90 141.98 284.24 125.53
  Z"
/>
<path fill="#fffffe" d="
  M 212.74 95.78
  C 240.59 90.05 271.63 98.46 284.24 125.53
  C 291.90 141.98 293.65 161.29 293.66 179.49
  C 293.67 197.79 292.10 215.56 284.66 231.66
  C 273.02 256.84 249.38 266.49 222.87 264.37
  C 191.19 261.83 172.02 241.74 165.65 210.82
  C 157.54 171.49 162.40 106.12 212.74 95.78
  Z"
/>
<path fill="#009da6" d="
  M 846.85 103.75
  L 872.95 103.75
  A 0.31 0.31 0.0 0 1 873.20 104.25
  L 843.61 143.45
  A 0.31 0.31 0.0 0 1 843.35 143.58
  L 829.34 143.24
  A 0.31 0.31 0.0 0 1 829.06 142.80
  L 846.57 103.93
  A 0.31 0.31 0.0 0 1 846.85 103.75
  Z"
/>
<path fill="#009da6" d="
  M 517.30 107.02
  C 569.75 94.77 628.97 120.44 641.01 176.75
  C 651.31 224.99 625.27 275.11 576.53 288.74
  Q 572.29 289.92 568.16 291.36
  Q 567.69 291.52 568.15 291.71
  Q 582.47 297.72 603.67 303.84
  Q 621.67 309.03 638.13 303.43
  Q 638.89 303.17 638.31 303.73
  L 613.29 328.17
  A 1.24 1.23 23.4 0 1 612.37 328.53
  C 580.38 327.31 549.67 310.77 524.18 292.74
  Q 522.32 291.42 520.01 290.96
  C 466.19 280.14 435.26 228.85 447.39 175.59
  C 455.26 141.04 483.54 114.91 517.30 107.02
  Z
  M 501.24 256.24
  Q 512.04 264.07 524.33 266.90
  C 554.72 273.91 585.34 264.65 603.76 238.98
  C 621.76 213.90 620.19 176.69 599.61 153.37
  C 560.48 109.02 479.83 127.58 472.79 189.98
  Q 468.03 232.14 501.24 256.24
  Z"
/>
<rect fill="#009da6" x="914.75" y="106.75" width="24.00" height="184.52" rx="0.27"/>
<circle fill="#009da6" cx="988.99" cy="132.85" r="14.16"/>
<path fill="#fffffe" d="
  M 501.24 256.24
  Q 468.03 232.14 472.79 189.98
  C 479.83 127.58 560.48 109.02 599.61 153.37
  C 620.19 176.69 621.76 213.90 603.76 238.98
  C 585.34 264.65 554.72 273.91 524.33 266.90
  Q 512.04 264.07 501.24 256.24
  Z"
/>
<path fill="#009da6" d="
  M 1039.19 191.50
  L 1019.49 191.50
  A 0.87 0.85 -15.3 0 1 1018.75 191.09
  Q 1017.98 189.84 1019.04 188.79
  Q 1040.76 167.41 1062.75 145.69
  Q 1064.00 144.46 1064.00 146.21
  L 1064.00 169.00
  A 0.75 0.75 0.0 0 0 1064.75 169.75
  L 1102.00 169.75
  A 0.50 0.50 0.0 0 1 1102.50 170.25
  L 1102.50 191.00
  A 0.50 0.50 0.0 0 1 1102.00 191.50
  L 1064.61 191.50
  A 0.51 0.51 0.0 0 0 1064.10 192.00
  Q 1063.82 221.76 1064.12 251.37
  C 1064.41 280.15 1092.33 273.22 1107.91 263.48
  Q 1108.49 263.12 1108.49 263.80
  L 1108.52 285.22
  A 0.79 0.78 76.0 0 1 1108.11 285.91
  C 1091.96 294.60 1069.15 297.28 1053.57 285.98
  C 1040.14 276.24 1039.94 261.98 1039.89 247.00
  Q 1039.81 219.50 1039.69 192.00
  A 0.50 0.50 0.0 0 0 1039.19 191.50
  Z"
/>
<path fill="#009da6" d="
  M 855.71 281.90
  A 0.44 0.44 0.0 0 0 855.02 281.67
  C 843.33 290.77 824.86 296.99 810.51 290.65
  C 792.05 282.49 788.00 259.10 800.95 243.93
  Q 809.51 233.90 824.50 228.87
  Q 839.79 223.73 855.05 218.48
  A 0.78 0.78 0.0 0 0 855.58 217.82
  C 856.87 205.46 854.31 193.23 840.73 190.56
  C 822.71 187.02 807.96 197.52 796.15 209.64
  Q 795.75 210.05 795.75 209.48
  L 795.75 184.24
  A 1.31 1.30 66.1 0 1 796.08 183.37
  C 816.32 160.61 868.07 160.05 877.70 194.24
  Q 879.29 199.89 879.40 212.90
  Q 879.67 246.07 879.47 268.50
  C 879.34 282.24 891.46 273.94 896.81 270.05
  Q 897.25 269.74 897.25 270.28
  L 897.25 283.79
  A 1.00 0.99 -18.0 0 1 896.83 284.60
  C 894.27 286.43 890.97 288.20 888.74 289.43
  C 878.32 295.15 859.75 296.44 855.71 281.90
  Z
  M 823.94 273.31
  C 833.85 280.49 847.68 275.29 855.41 267.54
  A 1.16 1.16 0.0 0 0 855.75 266.72
  L 855.75 232.02
  A 0.39 0.38 -9.4 0 0 855.24 231.66
  C 842.76 236.00 817.35 242.78 817.34 259.75
  Q 817.33 268.53 823.94 273.31
  Z"
/>
<path fill="#009da6" d="
  M 1182.35 281.81
  C 1167.70 293.03 1142.91 299.57 1128.43 283.98
  C 1119.07 273.89 1118.39 258.01 1126.11 246.84
  C 1132.50 237.58 1144.22 231.40 1154.75 227.88
  Q 1168.67 223.24 1182.55 218.45
  A 0.78 0.77 83.6 0 0 1183.07 217.79
  C 1184.29 205.75 1181.95 193.51 1168.25 190.55
  C 1151.60 186.94 1135.06 197.14 1124.10 209.15
  Q 1122.99 210.37 1122.99 208.72
  L 1123.02 184.40
  A 1.29 1.28 -23.9 0 1 1123.36 183.53
  Q 1132.81 172.97 1146.49 169.52
  C 1169.16 163.80 1199.32 169.04 1205.55 195.88
  Q 1206.74 201.01 1206.73 215.81
  Q 1206.71 242.83 1206.90 269.83
  C 1206.99 282.07 1219.98 273.13 1224.14 270.20
  Q 1224.75 269.77 1224.75 270.52
  L 1224.75 283.68
  A 1.11 1.07 -18.0 0 1 1224.28 284.57
  C 1215.86 290.38 1207.46 294.33 1197.02 293.14
  Q 1186.37 291.93 1182.91 281.98
  A 0.36 0.36 0.0 0 0 1182.35 281.81
  Z
  M 1150.19 272.31
  C 1159.82 281.14 1174.86 275.36 1182.82 267.54
  A 1.47 1.47 0.0 0 0 1183.25 266.50
  L 1183.25 232.02
  A 0.40 0.40 0.0 0 0 1182.73 231.64
  C 1173.47 234.82 1157.07 240.19 1150.66 246.43
  C 1143.38 253.53 1142.01 264.82 1150.19 272.31
  Z"
/>
<path fill="#009da6" d="
  M 1236.84 282.77
  A 0.62 0.61 13.3 0 1 1236.50 282.22
  L 1236.50 257.20
  Q 1236.50 256.63 1236.97 256.96
  C 1249.74 266.03 1273.11 279.03 1288.46 268.73
  Q 1295.38 264.09 1293.21 256.86
  C 1291.47 251.07 1285.31 247.36 1280.10 244.37
  C 1261.21 233.54 1229.56 218.06 1238.92 189.56
  C 1243.16 176.63 1256.31 169.15 1269.38 167.93
  Q 1292.29 165.81 1312.52 177.48
  A 0.98 0.97 -75.0 0 1 1313.00 178.32
  L 1313.00 200.72
  Q 1313.00 201.28 1312.51 200.99
  C 1302.34 195.00 1290.99 189.26 1279.26 188.25
  C 1269.50 187.42 1256.94 194.03 1264.78 205.70
  Q 1266.46 208.20 1273.17 212.26
  C 1289.26 221.97 1313.63 233.10 1317.98 253.16
  C 1322.96 276.05 1303.96 291.01 1283.30 293.05
  C 1265.82 294.78 1251.79 290.09 1236.84 282.77
  Z"
/>
<path fill="#009da6" d="
  M 742.50 276.77
  Q 742.50 275.48 741.63 276.43
  C 730.92 287.96 715.55 294.86 699.95 293.13
  C 682.91 291.25 668.87 278.52 666.06 261.44
  Q 664.76 253.50 664.70 245.44
  Q 664.44 207.85 664.53 170.26
  A 0.51 0.51 0.0 0 1 665.04 169.75
  L 687.72 169.75
  A 0.52 0.52 0.0 0 1 688.24 170.27
  Q 688.22 202.90 688.30 235.50
  C 688.34 249.70 688.22 268.94 705.40 272.59
  C 720.34 275.77 733.83 269.02 742.15 256.70
  A 2.07 2.05 62.2 0 0 742.50 255.55
  L 742.50 170.25
  A 0.50 0.50 0.0 0 1 743.00 169.75
  L 765.59 169.75
  A 0.66 0.66 0.0 0 1 766.25 170.41
  L 766.26 290.76
  A 0.52 0.51 0.0 0 1 765.74 291.27
  L 743.01 291.27
  A 0.51 0.51 0.0 0 1 742.50 290.76
  L 742.50 276.77
  Z"
/>
<rect fill="#009da6" x="976.76" y="169.75" width="24.24" height="121.62" rx="0.26"/>
<path fill="#fffffe" d="
  M 823.94 273.31
  Q 817.33 268.53 817.34 259.75
  C 817.35 242.78 842.76 236.00 855.24 231.66
  A 0.39 0.38 -9.4 0 1 855.75 232.02
  L 855.75 266.72
  A 1.16 1.16 0.0 0 1 855.41 267.54
  C 847.68 275.29 833.85 280.49 823.94 273.31
  Z"
/>
<path fill="#fffffe" d="
  M 1150.19 272.31
  C 1142.01 264.82 1143.38 253.53 1150.66 246.43
  C 1157.07 240.19 1173.47 234.82 1182.73 231.64
  A 0.40 0.40 0.0 0 1 1183.25 232.02
  L 1183.25 266.50
  A 1.47 1.47 0.0 0 1 1182.82 267.54
  C 1174.86 275.36 1159.82 281.14 1150.19 272.31
  Z"
/>
<path fill="#8b097e" d="
  M 349.22 319.31
  Q 343.30 324.80 331.22 335.22
  Q 315.76 348.57 290.58 373.11
  C 283.49 380.02 276.51 384.26 266.43 379.53
  Q 258.40 375.75 254.47 373.25
  C 230.75 358.13 206.95 343.13 183.34 327.84
  Q 142.23 301.22 96.47 283.48
  A 0.55 0.54 -71.0 0 1 96.14 282.80
  L 101.86 264.48
  A 0.45 0.44 21.0 0 1 102.47 264.21
  C 134.49 278.50 166.77 292.01 199.02 305.72
  Q 243.37 324.57 291.45 320.40
  C 309.00 318.88 327.70 311.69 342.98 304.96
  C 346.34 303.48 351.96 301.31 355.02 304.19
  C 360.81 309.64 353.21 315.63 349.22 319.31
  Z"
/>
<path fill="#009da6" d="
  M 773.69 352.33
  L 778.46 352.40
  Q 779.09 352.41 778.72 352.92
  C 775.69 357.17 772.41 363.36 768.76 362.13
  A 0.45 0.44 -69.5 0 1 768.49 361.53
  L 772.10 353.34
  A 1.71 1.71 0.0 0 1 773.69 352.33
  Z"
/>
<path fill="#009da6" d="
  M 737.23 354.90
  L 737.73 353.52
  A 0.79 0.79 0.0 0 1 738.47 353.00
  L 739.63 353.00
  A 0.65 0.65 0.0 0 1 740.28 353.64
  Q 740.29 356.84 738.43 359.36
  Q 736.63 361.81 733.76 360.84
  L 726.01 358.22
  A 1.69 1.68 16.8 0 0 723.84 359.38
  Q 723.32 361.35 721.43 361.23
  A 0.68 0.68 0.0 0 1 720.79 360.55
  C 720.73 349.89 729.46 353.93 735.00 355.94
  A 1.75 1.74 -69.9 0 0 737.23 354.90
  Z"
/>
<path fill="#009da6" d="
  M 466.04 411.41
  C 447.70 407.33 442.25 383.41 455.87 371.39
  C 465.01 363.33 478.12 363.49 488.81 368.83
  A 0.78 0.77 -77.3 0 1 489.25 369.53
  L 489.26 375.05
  Q 489.26 376.18 488.30 375.58
  C 476.58 368.23 457.14 369.72 455.22 386.62
  C 452.89 407.09 475.79 409.63 488.90 401.46
  Q 489.50 401.08 489.50 401.79
  L 489.50 407.82
  A 0.78 0.77 77.3 0 1 489.06 408.52
  C 482.09 411.90 473.31 413.03 466.04 411.41
  Z"
/>
<path fill="#009da6" d="
  M 550.9645 388.0287
  A 24.89 23.76 -1.2 0 1 526.5776 412.3048
  A 24.89 23.76 -1.2 0 1 501.1955 389.0713
  A 24.89 23.76 -1.2 0 1 525.5824 364.7952
  A 24.89 23.76 -1.2 0 1 550.9645 388.0287
  Z
  M 544.1254 388.2112
  A 18.02 17.51 -1.3 0 0 525.7127 371.1145
  A 18.02 17.51 -1.3 0 0 508.0946 389.0288
  A 18.02 17.51 -1.3 0 0 526.5073 406.1255
  A 18.02 17.51 -1.3 0 0 544.1254 388.2112
  Z"
/>
<path fill="#009da6" d="
  M 1000.69 396.79
  C 996.07 390.01 983.85 388.64 982.40 379.40
  C 980.16 365.20 996.12 361.95 1005.83 368.00
  A 0.92 0.91 -73.7 0 1 1006.25 368.77
  L 1006.25 374.98
  Q 1006.25 375.57 1005.78 375.21
  C 1001.89 372.32 998.22 370.03 993.27 371.19
  C 989.02 372.18 986.52 375.50 989.33 379.69
  Q 990.57 381.53 992.50 382.64
  Q 997.29 385.39 1001.75 388.51
  C 1012.69 396.19 1008.59 412.10 994.73 412.18
  Q 988.44 412.22 982.72 408.33
  A 0.95 0.93 -73.9 0 1 982.31 407.57
  L 982.10 400.47
  A 0.37 0.37 0.0 0 1 982.49 400.08
  Q 982.65 400.09 982.82 400.17
  Q 982.98 400.24 983.12 400.41
  Q 987.39 405.77 993.75 406.50
  C 998.88 407.08 1004.22 401.98 1000.69 396.79
  Z"
/>
<path fill="#009da6" d="
  M 1067.19 406.81
  C 1056.01 398.01 1055.96 381.02 1066.22 371.44
  C 1075.14 363.12 1088.60 363.69 1099.23 368.79
  A 0.92 0.92 0.0 0 1 1099.75 369.62
  L 1099.75 374.91
  A 0.43 0.43 0.0 0 1 1099.11 375.28
  Q 1092.52 371.56 1085.45 370.84
  C 1071.09 369.38 1061.01 384.06 1067.49 396.95
  C 1072.46 406.84 1083.74 408.19 1093.69 404.51
  A 0.85 0.84 80.3 0 0 1094.25 403.71
  L 1094.25 395.25
  A 0.50 0.50 0.0 0 0 1093.75 394.75
  L 1085.75 394.75
  A 0.50 0.50 0.0 0 1 1085.25 394.25
  L 1085.25 389.37
  A 0.63 0.62 -0.0 0 1 1085.88 388.75
  L 1099.95 388.75
  A 0.52 0.52 0.0 0 1 1100.47 389.26
  L 1100.72 407.80
  A 1.07 1.07 0.0 0 1 1100.07 408.80
  C 1089.59 413.09 1076.43 414.09 1067.19 406.81
  Z"
/>
<path fill="#009da6" d="
  M 1259.3654 388.0816
  A 24.92 23.76 -1.1 0 1 1234.9061 412.3156
  A 24.92 23.76 -1.1 0 1 1209.5346 389.0384
  A 24.92 23.76 -1.1 0 1 1233.9939 364.8044
  A 24.92 23.76 -1.1 0 1 1259.3654 388.0816
  Z
  M 1252.5078 388.3368
  A 18.03 17.50 -0.9 0 0 1234.2051 371.1222
  A 18.03 17.50 -0.9 0 0 1216.4522 388.9032
  A 18.03 17.50 -0.9 0 0 1234.7549 406.1178
  A 18.03 17.50 -0.9 0 0 1252.5078 388.3368
  Z"
/>
<path fill="#009da6" d="
  M 1275.39 386.37
  C 1267.54 380.49 1269.94 368.85 1279.23 365.72
  Q 1286.79 363.17 1294.57 368.02
  A 0.86 0.85 15.7 0 1 1294.98 368.75
  L 1295.01 374.95
  Q 1295.01 375.65 1294.48 375.19
  C 1290.63 371.92 1285.07 369.59 1280.43 371.56
  C 1276.12 373.40 1275.59 377.52 1278.95 380.85
  C 1282.25 384.12 1289.74 387.03 1293.13 390.68
  C 1300.19 398.29 1296.38 411.03 1285.18 411.97
  Q 1279.30 412.46 1272.83 409.26
  Q 1270.73 408.23 1270.74 405.88
  L 1270.75 400.28
  Q 1270.76 399.54 1271.22 400.11
  C 1274.93 404.62 1283.50 409.30 1288.53 404.49
  C 1296.21 397.14 1279.57 389.49 1275.39 386.37
  Z"
/>
<path fill="#009da6" d="
  M 600.14 376.68
  L 586.30 393.98
  A 0.34 0.34 0.0 0 1 585.77 393.98
  L 571.83 376.72
  A 0.34 0.34 0.0 0 0 571.22 376.93
  L 571.26 411.16
  A 0.34 0.34 0.0 0 1 570.92 411.50
  L 564.84 411.50
  A 0.34 0.34 0.0 0 1 564.50 411.16
  L 564.50 365.99
  A 0.34 0.34 0.0 0 1 564.85 365.65
  L 570.83 365.80
  A 0.34 0.34 0.0 0 1 571.09 365.92
  L 585.77 384.16
  A 0.34 0.34 0.0 0 0 586.29 384.16
  L 601.02 365.88
  A 0.34 0.34 0.0 0 1 601.28 365.75
  L 607.10 365.75
  A 0.34 0.34 0.0 0 1 607.44 366.09
  L 607.40 411.16
  A 0.34 0.34 0.0 0 1 607.06 411.50
  L 601.09 411.50
  A 0.34 0.34 0.0 0 1 600.75 411.16
  L 600.75 376.89
  A 0.34 0.34 0.0 0 0 600.14 376.68
  Z"
/>
<path fill="#009da6" d="
  M 623.27 365.54
  C 633.32 365.29 653.82 363.02 651.43 380.29
  C 649.79 392.12 639.37 391.58 629.74 391.61
  A 0.49 0.48 0.0 0 0 629.25 392.09
  L 629.25 411.00
  A 0.50 0.50 0.0 0 1 628.75 411.50
  L 623.25 411.50
  A 0.50 0.49 90.0 0 1 622.76 411.00
  L 622.74 366.09
  A 0.55 0.55 0.0 0 1 623.27 365.54
  Z
  M 640.95 372.31
  Q 639.26 371.47 637.38 371.41
  L 629.79 371.18
  A 0.53 0.53 0.0 0 0 629.25 371.71
  L 629.25 385.23
  A 0.49 0.48 -88.8 0 0 629.71 385.72
  C 636.01 385.97 646.16 386.81 644.64 376.83
  Q 644.19 373.92 640.95 372.31
  Z"
/>
<path fill="#009da6" d="
  M 684.60 398.02
  L 665.31 397.99
  A 0.34 0.34 0.0 0 0 664.99 398.20
  L 659.52 411.29
  A 0.34 0.34 0.0 0 1 659.20 411.50
  L 653.17 411.50
  A 0.34 0.34 0.0 0 1 652.86 411.03
  L 672.22 365.70
  A 0.34 0.34 0.0 0 1 672.54 365.49
  L 676.88 365.50
  A 0.34 0.34 0.0 0 1 677.19 365.70
  L 697.38 411.03
  A 0.34 0.34 0.0 0 1 697.07 411.51
  L 691.07 411.50
  A 0.34 0.34 0.0 0 1 690.76 411.30
  L 684.91 398.22
  A 0.34 0.34 0.0 0 0 684.60 398.02
  Z
  M 668.11 391.44
  A 0.47 0.47 0.0 0 0 668.56 392.09
  L 681.26 391.91
  A 0.47 0.47 0.0 0 0 681.68 391.25
  L 675.12 376.53
  A 0.47 0.47 0.0 0 0 674.26 376.54
  L 668.11 391.44
  Z"
/>
<path fill="#009da6" d="
  M 745.18 365.75
  L 750.83 365.75
  A 0.43 0.43 0.0 0 1 751.26 366.18
  L 751.25 411.07
  A 0.43 0.43 0.0 0 1 750.82 411.50
  L 745.61 411.50
  A 0.43 0.43 0.0 0 1 745.28 411.35
  L 715.26 376.77
  A 0.43 0.43 0.0 0 0 714.50 377.05
  L 714.51 411.04
  A 0.43 0.43 0.0 0 1 714.09 411.47
  L 709.18 411.58
  A 0.43 0.43 0.0 0 1 708.74 411.15
  L 708.73 366.07
  A 0.43 0.43 0.0 0 1 709.18 365.64
  L 713.94 365.81
  A 0.43 0.43 0.0 0 1 714.25 365.96
  L 744.18 400.45
  A 0.43 0.43 0.0 0 0 744.93 400.17
  L 744.75 366.18
  A 0.43 0.43 0.0 0 1 745.18 365.75
  Z"
/>
<path fill="#009da6" d="
  M 816.16 398.00
  L 796.86 398.00
  A 0.32 0.32 0.0 0 0 796.57 398.20
  L 791.04 411.30
  A 0.32 0.32 0.0 0 1 790.75 411.50
  L 784.72 411.50
  A 0.32 0.32 0.0 0 1 784.43 411.05
  L 803.78 365.69
  A 0.32 0.32 0.0 0 1 804.07 365.50
  L 808.43 365.50
  A 0.32 0.32 0.0 0 1 808.72 365.69
  L 828.94 411.05
  A 0.32 0.32 0.0 0 1 828.65 411.50
  L 822.59 411.50
  A 0.32 0.32 0.0 0 1 822.30 411.31
  L 816.45 398.19
  A 0.32 0.32 0.0 0 0 816.16 398.00
  Z
  M 799.51 391.61
  A 0.33 0.33 0.0 0 0 799.81 392.07
  L 813.00 391.93
  A 0.33 0.33 0.0 0 0 813.30 391.47
  L 806.55 376.23
  A 0.33 0.33 0.0 0 0 805.94 376.24
  L 799.51 391.61
  Z"
/>
<path fill="#009da6" d="
  M 883.72 365.81
  C 913.71 365.98 914.05 409.79 884.68 411.44
  Q 880.86 411.66 864.72 411.46
  A 0.48 0.48 0.0 0 1 864.25 410.98
  L 864.33 366.22
  A 0.54 0.53 -0.0 0 1 864.87 365.69
  Q 874.41 365.76 883.72 365.81
  Z
  M 871.32 405.55
  C 879.44 406.05 889.58 406.63 895.50 400.07
  C 899.79 395.32 901.19 387.11 898.51 381.25
  C 893.60 370.51 882.30 371.20 871.59 371.62
  A 0.61 0.61 0.0 0 0 871.00 372.23
  L 871.00 405.22
  A 0.33 0.33 0.0 0 0 871.32 405.55
  Z"
/>
<path fill="#009da6" d="
  M 927.25 391.59
  L 927.25 405.43
  A 0.32 0.32 0.0 0 0 927.57 405.75
  L 946.89 405.75
  A 0.32 0.32 0.0 0 1 947.21 406.06
  L 947.36 411.17
  A 0.32 0.32 0.0 0 1 947.04 411.50
  L 920.79 411.50
  A 0.32 0.32 0.0 0 1 920.47 411.18
  L 920.72 366.06
  A 0.32 0.32 0.0 0 1 921.04 365.74
  L 946.30 365.76
  A 0.32 0.32 0.0 0 1 946.62 366.08
  L 946.58 371.18
  A 0.32 0.32 0.0 0 1 946.26 371.50
  L 927.57 371.50
  A 0.32 0.32 0.0 0 0 927.25 371.82
  L 927.25 385.43
  A 0.32 0.32 0.0 0 0 927.57 385.75
  L 945.70 385.75
  A 0.32 0.32 0.0 0 1 946.02 386.07
  L 946.02 390.92
  A 0.32 0.32 0.0 0 1 945.70 391.24
  L 927.57 391.27
  A 0.32 0.32 0.0 0 0 927.25 391.59
  Z"
/>
<rect fill="#009da6" x="766.75" y="365.75" width="6.52" height="45.76" rx="0.26"/>
<path fill="#009da6" d="
  M 1027.50 391.57
  L 1027.50 405.45
  A 0.30 0.30 0.0 0 0 1027.80 405.75
  L 1047.20 405.75
  A 0.30 0.30 0.0 0 1 1047.50 406.05
  L 1047.50 411.20
  A 0.30 0.30 0.0 0 1 1047.20 411.50
  L 1021.05 411.50
  A 0.30 0.30 0.0 0 1 1020.75 411.20
  L 1020.75 366.05
  A 0.30 0.30 0.0 0 1 1021.05 365.75
  L 1046.95 365.75
  A 0.30 0.30 0.0 0 1 1047.25 366.05
  L 1047.25 371.20
  A 0.30 0.30 0.0 0 1 1046.95 371.50
  L 1027.80 371.50
  A 0.30 0.30 0.0 0 0 1027.50 371.80
  L 1027.50 385.45
  A 0.30 0.30 0.0 0 0 1027.80 385.75
  L 1045.95 385.75
  A 0.30 0.30 0.0 0 1 1046.25 386.05
  L 1046.25 391.00
  A 0.30 0.30 0.0 0 1 1045.95 391.30
  L 1027.80 391.27
  A 0.30 0.30 0.0 0 0 1027.50 391.57
  Z"
/>
<path fill="#009da6" d="
  M 1152.94 402.01
  C 1146.87 415.83 1121.22 415.77 1116.13 401.15
  Q 1115.29 398.73 1115.29 393.60
  Q 1115.31 379.95 1115.04 366.26
  A 0.50 0.50 0.0 0 1 1115.54 365.75
  L 1120.98 365.75
  A 0.52 0.52 0.0 0 1 1121.50 366.27
  Q 1121.46 380.01 1121.54 393.73
  Q 1121.60 403.80 1131.23 406.03
  C 1136.53 407.25 1143.66 405.60 1146.48 400.63
  Q 1147.73 398.41 1147.86 393.62
  Q 1148.22 379.92 1147.87 366.22
  A 0.46 0.46 0.0 0 1 1148.33 365.75
  L 1154.01 365.75
  A 0.57 0.57 0.0 0 1 1154.58 366.33
  Q 1154.49 377.99 1154.47 389.64
  Q 1154.46 398.55 1152.94 402.01
  Z"
/>
<path fill="#009da6" d="
  M 1176.27 392.02
  L 1176.04 410.85
  A 0.65 0.65 0.0 0 1 1175.40 411.49
  L 1170.36 411.54
  A 0.74 0.74 0.0 0 1 1169.61 410.80
  L 1169.78 366.19
  A 0.41 0.40 -90.0 0 1 1170.17 365.79
  C 1176.25 365.66 1184.45 364.93 1189.47 367.29
  C 1198.70 371.64 1198.72 385.30 1189.13 389.48
  A 0.38 0.38 0.0 0 0 1189.05 390.13
  C 1195.35 394.90 1200.06 404.37 1204.51 410.93
  Q 1204.90 411.51 1204.20 411.51
  L 1197.64 411.50
  A 0.89 0.88 -16.0 0 1 1196.89 411.09
  C 1192.11 403.72 1186.89 391.26 1176.73 391.55
  A 0.47 0.47 0.0 0 0 1176.27 392.02
  Z
  M 1186.35 372.45
  Q 1181.71 370.62 1176.75 371.37
  A 0.65 0.64 -4.5 0 0 1176.19 372.02
  L 1176.28 385.24
  A 0.48 0.48 0.0 0 0 1176.76 385.72
  C 1183.62 385.80 1191.03 385.13 1189.22 375.90
  Q 1188.73 373.39 1186.35 372.45
  Z"
/>
<ellipse fill="#fffffe" cx="0.00" cy="0.00" transform="translate(526.11,388.62) rotate(-1.3)" rx="18.02" ry="17.51"/>
<path fill="#fffffe" d="
  M 640.95 372.31
  Q 644.19 373.92 644.64 376.83
  C 646.16 386.81 636.01 385.97 629.71 385.72
  A 0.49 0.48 -88.8 0 1 629.25 385.23
  L 629.25 371.71
  A 0.53 0.53 0.0 0 1 629.79 371.18
  L 637.38 371.41
  Q 639.26 371.47 640.95 372.31
  Z"
/>
<path fill="#fffffe" d="
  M 1186.35 372.45
  Q 1188.73 373.39 1189.22 375.90
  C 1191.03 385.13 1183.62 385.80 1176.76 385.72
  A 0.48 0.48 0.0 0 1 1176.28 385.24
  L 1176.19 372.02
  A 0.65 0.64 -4.5 0 1 1176.75 371.37
  Q 1181.71 370.62 1186.35 372.45
  Z"
/>
<ellipse fill="#fffffe" cx="0.00" cy="0.00" transform="translate(1234.48,388.62) rotate(-0.9)" rx="18.03" ry="17.50"/>
<path fill="#fffffe" d="
  M 871.32 405.55
  A 0.33 0.33 0.0 0 1 871.00 405.22
  L 871.00 372.23
  A 0.61 0.61 0.0 0 1 871.59 371.62
  C 882.30 371.20 893.60 370.51 898.51 381.25
  C 901.19 387.11 899.79 395.32 895.50 400.07
  C 889.58 406.63 879.44 406.05 871.32 405.55
  Z"
/>
<path fill="#fffffe" d="
  M 799.51 391.61
  L 805.94 376.24
  A 0.33 0.33 0.0 0 1 806.55 376.23
  L 813.30 391.47
  A 0.33 0.33 0.0 0 1 813.00 391.93
  L 799.81 392.07
  A 0.33 0.33 0.0 0 1 799.51 391.61
  Z"
/>
<path fill="#fffffe" d="
  M 668.11 391.44
  L 674.26 376.54
  A 0.47 0.47 0.0 0 1 675.12 376.53
  L 681.68 391.25
  A 0.47 0.47 0.0 0 1 681.26 391.91
  L 668.56 392.09
  A 0.47 0.47 0.0 0 1 668.11 391.44
  Z"
/>
<path fill="#009da6" d="
  M 1317.70 420.99
  A 9.63 9.63 0.0 0 1 1308.07 430.62
  A 9.63 9.63 0.0 0 1 1298.44 420.99
  A 9.63 9.63 0.0 0 1 1308.07 411.36
  A 9.63 9.63 0.0 0 1 1317.70 420.99
  Z
  M 1316.08 420.99
  A 8.00 8.00 0.0 0 0 1308.08 412.99
  A 8.00 8.00 0.0 0 0 1300.08 420.99
  A 8.00 8.00 0.0 0 0 1308.08 428.99
  A 8.00 8.00 0.0 0 0 1316.08 420.99
  Z"
/>
<path fill="#fffffe" d="
  M 1316.08 420.99
  A 8.00 8.00 0.0 0 1 1308.08 428.99
  A 8.00 8.00 0.0 0 1 1300.08 420.99
  A 8.00 8.00 0.0 0 1 1308.08 412.99
  A 8.00 8.00 0.0 0 1 1316.08 420.99
  Z
  M 1309.82 421.46
  Q 1311.66 420.78 1311.79 418.71
  Q 1311.95 416.12 1309.35 416.07
  L 1304.57 415.97
  A 0.67 0.67 0.0 0 0 1303.88 416.60
  C 1303.73 418.66 1303.27 426.23 1304.57 426.39
  A 0.54 0.53 -82.5 0 0 1305.17 425.92
  C 1305.28 425.08 1305.04 423.09 1305.44 422.47
  C 1306.96 420.14 1309.83 424.86 1310.29 425.92
  A 0.71 0.68 73.3 0 0 1311.04 426.34
  L 1311.85 426.20
  A 0.48 0.47 66.2 0 0 1312.14 425.44
  L 1309.62 422.19
  A 0.47 0.47 0.0 0 1 1309.82 421.46
  Z"
/>
<path fill="#009da6" d="
  M 1309.62 422.19
  L 1312.14 425.44
  A 0.48 0.47 66.2 0 1 1311.85 426.20
  L 1311.04 426.34
  A 0.71 0.68 73.3 0 1 1310.29 425.92
  C 1309.83 424.86 1306.96 420.14 1305.44 422.47
  C 1305.04 423.09 1305.28 425.08 1305.17 425.92
  A 0.54 0.53 -82.5 0 1 1304.57 426.39
  C 1303.27 426.23 1303.73 418.66 1303.88 416.60
  A 0.67 0.67 0.0 0 1 1304.57 415.97
  L 1309.35 416.07
  Q 1311.95 416.12 1311.79 418.71
  Q 1311.66 420.78 1309.82 421.46
  A 0.47 0.47 0.0 0 0 1309.62 422.19
  Z
  M 1309.8657 418.6675
  A 1.19 1.19 0.0 0 0 1308.6592 417.4942
  L 1306.3794 417.5261
  A 1.19 1.19 0.0 0 0 1305.2062 418.7326
  L 1305.2143 419.3125
  A 1.19 1.19 0.0 0 0 1306.4208 420.4858
  L 1308.7006 420.4539
  A 1.19 1.19 0.0 0 0 1309.8738 419.2474
  L 1309.8657 418.6675
  Z"
/>
<rect fill="#fffffe" x="-2.33" y="-1.48" transform="translate(1307.54,418.99) rotate(-0.8)" width="4.66" height="2.96" rx="1.19"/>
<rect fill="#8b097e" x="-5.87" y="-6.00" transform="translate(49.62,428.50) rotate(-0.1)" width="11.74" height="12.00" rx="0.31"/>
<rect fill="#8b097e" x="-6.02" y="-5.99" transform="translate(79.23,428.51) rotate(-0.3)" width="12.04" height="11.98" rx="0.51"/>
<rect fill="#8b097e" x="-5.90" y="-6.00" transform="translate(108.60,428.50) rotate(-0.1)" width="11.80" height="12.00" rx="0.26"/>
<rect fill="#8b097e" x="-6.04" y="-6.00" transform="translate(138.17,428.50) rotate(0.1)" width="12.08" height="12.00" rx="0.44"/>
<rect fill="#8b097e" x="-5.90" y="-6.00" transform="translate(167.60,428.50) rotate(-0.1)" width="11.80" height="12.00" rx="0.26"/>
<rect fill="#8b097e" x="-6.06" y="-5.98" transform="translate(197.06,428.52) rotate(-0.1)" width="12.12" height="11.96" rx="0.48"/>
<rect fill="#8b097e" x="-6.00" y="-5.94" transform="translate(226.50,428.56) rotate(-0.1)" width="12.00" height="11.88" rx="0.30"/>
<rect fill="#8b097e" x="-6.04" y="-5.99" transform="translate(256.00,428.50) rotate(0.1)" width="12.08" height="11.98" rx="0.34"/>
<rect fill="#8b097e" x="-5.89" y="-6.00" transform="translate(285.39,428.50) rotate(0.2)" width="11.78" height="12.00" rx="0.27"/>
<rect fill="#8b097e" x="-5.87" y="-5.99" transform="translate(314.87,428.49) rotate(-0.1)" width="11.74" height="11.98" rx="0.30"/>
<rect fill="#8b097e" x="-5.88" y="-6.00" transform="translate(344.38,428.50) rotate(0.1)" width="11.76" height="12.00" rx="0.27"/>
<rect fill="#8b097e" x="-5.98" y="-6.00" transform="translate(373.77,428.50) rotate(0.2)" width="11.96" height="12.00" rx="0.48"/>
<rect fill="#8b097e" x="-5.88" y="-6.00" transform="translate(403.38,428.50) rotate(0.1)" width="11.76" height="12.00" rx="0.27"/>
</svg>
