<?xml version="1.0" encoding="UTF-8" standalone="no"?>
<!DOCTYPE svg PUBLIC "-//W3C//DTD SVG 1.1//EN" "http://www.w3.org/Graphics/SVG/1.1/DTD/svg11.dtd">
<svg xmlns="http://www.w3.org/2000/svg" version="1.1" viewBox="0 0 1024 537">
<path fill="#a3d65c" d="
  M 296.06 0.00
  L 296.56 0.00
  C 303.13 13.57 306.28 27.61 297.93 40.94
  Q 291.83 50.68 280.67 53.76
  A 1.45 1.44 -30.0 0 1 279.27 53.39
  C 272.17 46.32 270.42 33.93 273.25 24.99
  C 277.11 12.79 285.49 7.02 296.06 0.00
  Z"
/>
<path fill="#a3d65c" d="
  M 219.30 54.16
  C 204.68 51.16 195.87 35.84 196.60 22.01
  C 196.95 15.36 199.45 7.96 202.15 1.52
  A 0.51 0.51 0.0 0 1 202.87 1.27
  C 214.43 7.96 225.19 15.84 227.51 29.73
  Q 229.64 42.44 222.18 53.02
  Q 221.11 54.53 219.30 54.16
  Z"
/>
<path fill="#a3d65c" d="
  M 250.01 78.12
  C 235.80 66.75 241.12 52.49 250.98 40.89
  A 0.46 0.46 0.0 0 1 251.68 40.89
  C 261.04 51.67 265.85 62.81 256.29 75.29
  C 255.44 76.39 253.72 77.71 252.61 78.33
  A 2.34 2.33 49.6 0 1 250.01 78.12
  Z"
/>
<path fill="#a3d65c" d="
  M 328.13 86.99
  C 326.71 68.18 342.21 54.21 360.28 53.77
  Q 366.70 53.61 372.91 54.09
  A 0.69 0.69 0.0 0 1 373.53 54.94
  Q 372.17 60.44 370.56 65.81
  C 366.02 80.96 352.92 91.28 336.77 90.29
  Q 332.33 90.01 328.60 87.76
  A 1.01 1.00 14.0 0 1 328.13 86.99
  Z"
/>
<path fill="#a3d65c" d="
  M 144.73 57.03
  C 161.04 58.26 173.87 72.19 173.54 88.84
  A 1.74 1.73 80.5 0 1 172.42 90.42
  Q 161.02 94.69 150.45 90.69
  C 135.46 85.02 130.85 72.40 127.01 58.17
  A 0.47 0.46 -12.1 0 1 127.39 57.59
  Q 136.00 56.37 144.73 57.03
  Z"
/>
<path fill="#a3d65c" d="
  M 287.95 88.20
  C 284.35 70.97 295.43 62.42 310.30 59.05
  A 0.50 0.50 0.0 0 1 310.91 59.43
  C 314.13 72.81 306.73 91.26 290.74 90.57
  Q 288.42 90.47 287.95 88.20
  Z"
/>
<path fill="#a3d65c" d="
  M 187.56 62.62
  C 200.48 64.02 211.49 70.90 212.27 85.01
  Q 212.49 89.15 210.76 92.31
  A 0.98 0.97 10.8 0 1 210.02 92.81
  Q 205.63 93.28 202.22 92.03
  C 188.81 87.14 186.55 75.90 187.02 63.09
  A 0.49 0.48 -85.7 0 1 187.56 62.62
  Z"
/>
<path fill="#a3d65c" d="
  M 261.43 109.68
  C 254.57 101.12 258.58 89.73 268.81 86.62
  A 1.21 1.20 65.4 0 1 270.17 87.13
  C 275.91 96.19 273.01 106.93 262.22 109.93
  A 0.74 0.74 0.0 0 1 261.43 109.68
  Z"
/>
<path fill="#a3d65c" d="
  M 231.82 87.68
  C 241.01 91.52 245.35 100.41 240.55 109.68
  A 1.76 1.76 0.0 0 1 238.37 110.51
  C 228.51 106.77 227.08 97.05 231.14 87.95
  A 0.53 0.53 0.0 0 1 231.82 87.68
  Z"
/>
<path fill="#a3d65c" d="
  M 318.94 114.19
  C 327.77 104.75 339.09 105.82 350.05 110.81
  A 0.47 0.47 0.0 0 1 350.27 111.46
  C 344.42 122.39 335.99 130.39 322.75 127.97
  Q 318.33 127.16 314.76 123.89
  A 0.93 0.92 26.2 0 1 314.47 123.06
  Q 315.27 118.11 318.94 114.19
  Z"
/>
<path fill="#a3d65c" d="
  M 280.98 121.74
  C 281.83 111.49 290.97 106.71 300.41 108.68
  A 0.53 0.53 0.0 0 1 300.82 109.28
  C 299.13 119.06 292.94 126.02 282.54 123.84
  A 1.97 1.97 0.0 0 1 280.98 121.74
  Z"
/>
<path fill="#a3d65c" d="
  M 201.51 110.88
  C 211.04 108.39 221.08 113.25 221.55 123.86
  A 1.35 1.35 0.0 0 1 220.58 125.22
  C 209.66 128.42 203.79 120.84 201.16 111.49
  A 0.50 0.50 0.0 0 1 201.51 110.88
  Z"
/>
<path fill="#a3d65c" d="
  M 165.80 111.04
  C 175.50 110.40 184.92 115.68 187.91 125.29
  A 2.22 2.21 -28.9 0 1 187.23 127.63
  C 178.56 135.01 165.48 132.61 158.15 124.83
  Q 154.73 121.19 151.72 116.18
  A 0.47 0.47 0.0 0 1 151.91 115.52
  Q 159.88 111.44 165.80 111.04
  Z"
/>
<path fill="#a3d65c" d="
  M 350.94 138.69
  Q 363.88 125.19 382.54 130.13
  C 391.01 132.37 397.09 137.46 403.71 142.88
  A 0.46 0.45 43.8 0 1 403.73 143.57
  C 392.01 153.97 380.08 161.56 363.82 156.74
  Q 353.81 153.76 347.91 144.48
  A 1.04 1.03 38.4 0 1 347.80 143.57
  Q 348.72 141.00 350.94 138.69
  Z"
/>
<path fill="#a3d65c" d="
  M 119.70 134.09
  C 132.10 130.05 147.64 133.21 154.92 144.92
  Q 155.97 146.61 154.85 148.26
  C 144.60 163.34 125.03 165.61 110.15 155.83
  Q 104.86 152.36 99.84 148.17
  A 0.70 0.70 0.0 0 1 99.83 147.10
  C 105.84 141.77 111.48 136.76 119.70 134.09
  Z"
/>
<path fill="#a3d65c" d="
  M 288.84 143.36
  C 295.64 135.10 305.52 136.82 312.25 143.88
  A 0.55 0.54 44.6 0 1 312.26 144.62
  C 305.99 151.58 294.53 153.57 288.76 145.39
  A 1.69 1.68 -42.9 0 1 288.84 143.36
  Z"
/>
<path fill="#a3d65c" d="
  M 213.52 143.31
  Q 215.59 144.90 214.05 147.00
  C 208.15 155.04 197.17 152.48 190.64 146.03
  A 0.49 0.49 0.0 0 1 190.64 145.33
  C 197.65 138.48 205.06 136.80 213.52 143.31
  Z"
/>
<path fill="#a3d65c" d="
  M 315.35 163.53
  C 327.61 151.83 344.69 160.81 351.32 174.05
  A 0.52 0.51 63.2 0 1 351.10 174.74
  C 337.34 181.89 321.90 181.40 314.97 165.40
  A 1.67 1.67 0.0 0 1 315.35 163.53
  Z"
/>
<path fill="#a3d65c" d="
  M 187.66 165.91
  Q 189.42 167.00 188.86 168.99
  C 188.07 171.81 186.55 174.76 184.44 176.92
  C 175.26 186.34 165.03 184.73 153.50 180.33
  A 0.47 0.47 0.0 0 1 153.25 179.66
  C 160.17 166.70 172.56 156.53 187.66 165.91
  Z"
/>
<path fill="#a3d65c" d="
  M 281.85 166.02
  C 292.14 161.95 300.16 170.37 301.34 179.96
  A 0.50 0.50 0.0 0 1 300.90 180.52
  C 290.78 181.65 281.91 178.12 281.41 166.70
  A 0.70 0.68 -13.1 0 1 281.85 166.02
  Z"
/>
<path fill="#a3d65c" d="
  M 221.49 167.17
  A 1.69 1.68 8.4 0 1 222.82 168.95
  C 221.96 179.78 213.11 183.60 203.41 182.36
  A 0.48 0.48 0.0 0 1 202.99 181.81
  C 204.61 171.75 210.67 164.92 221.49 167.17
  Z"
/>
<path fill="#a3d65c" d="
  M 233.20 203.28
  C 228.54 195.70 229.51 184.63 238.80 180.77
  Q 241.13 179.81 242.26 182.06
  C 246.87 191.24 242.05 198.64 233.89 203.46
  A 0.51 0.51 0.0 0 1 233.20 203.28
  Z"
/>
<path fill="#a3d65c" d="
  M 262.84 181.09
  A 1.45 1.45 0.0 0 1 264.53 180.54
  C 274.52 184.14 275.69 194.25 271.65 203.03
  A 0.52 0.52 0.0 0 1 270.97 203.30
  C 261.94 199.61 256.96 189.76 262.84 181.09
  Z"
/>
<path fill="#a3d65c" d="
  M 290.69 199.69
  Q 291.51 197.25 295.06 197.90
  Q 311.56 200.87 314.36 216.66
  C 314.98 220.17 314.77 224.38 314.72 228.22
  A 0.47 0.47 0.0 0 1 314.21 228.69
  C 313.06 228.60 311.93 227.97 310.93 227.82
  C 297.17 225.80 286.00 213.58 290.69 199.69
  Z"
/>
<path fill="#a3d65c" d="
  M 329.74 201.45
  A 1.03 1.00 -10.3 0 1 330.33 200.62
  C 336.20 197.95 342.88 197.43 349.23 199.21
  C 366.49 204.03 371.48 216.53 375.92 232.83
  A 0.45 0.44 -10.7 0 1 375.54 233.38
  C 358.35 235.33 343.30 233.87 333.63 218.30
  C 330.31 212.94 329.13 207.61 329.74 201.45
  Z"
/>
<path fill="#a3d65c" d="
  M 191.64 230.18
  C 187.91 215.72 196.19 198.55 212.88 199.28
  A 0.92 0.90 -12.6 0 1 213.62 199.74
  C 218.07 207.71 214.07 218.82 207.67 223.95
  Q 201.58 228.83 192.25 230.57
  A 0.53 0.53 0.0 0 1 191.64 230.18
  Z"
/>
<path fill="#a3d65c" d="
  M 173.62 202.21
  A 2.14 2.14 0.0 0 1 175.02 204.11
  C 175.91 221.42 163.11 234.87 146.23 236.68
  Q 138.27 237.54 130.26 236.80
  A 0.45 0.45 0.0 0 1 129.86 236.26
  Q 130.49 233.11 132.49 225.98
  C 137.58 207.86 154.92 195.37 173.62 202.21
  Z"
/>
<path fill="#a3d65c" d="
  M 253.67 212.43
  Q 264.10 221.31 262.12 233.66
  C 261.52 237.40 258.75 240.89 258.74 244.66
  Q 258.68 339.48 259.09 434.36
  A 0.64 0.64 0.0 0 1 258.45 435.00
  L 247.75 435.00
  A 0.75 0.75 0.0 0 1 247.00 434.25
  L 247.00 243.96
  A 3.99 3.95 -61.9 0 0 246.35 241.78
  C 240.16 232.24 241.13 219.36 250.44 212.33
  Q 252.09 211.09 253.67 212.43
  Z"
/>
<path fill="#a3d65c" d="
  M 287.20 280.04
  C 274.35 269.26 271.26 250.74 281.34 237.07
  Q 282.49 235.50 284.36 236.07
  C 302.02 241.43 310.21 259.08 305.29 276.53
  Q 303.55 282.69 301.11 288.74
  A 0.60 0.60 0.0 0 1 300.26 289.04
  Q 293.42 285.26 287.20 280.04
  Z"
/>
<path fill="#a3d65c" d="
  M 223.86 237.38
  Q 226.44 239.46 228.14 243.18
  C 234.51 257.16 230.17 272.47 218.71 281.96
  Q 213.26 286.48 207.19 290.18
  A 0.64 0.64 0.0 0 1 206.27 289.90
  C 200.29 276.63 196.67 262.39 205.09 249.34
  Q 210.70 240.63 221.31 236.93
  A 2.70 2.66 54.6 0 1 223.86 237.38
  Z"
/>
<path fill="#278dc1" d="
  M 22.21 391.68
  C 27.16 408.26 49.36 410.24 62.83 405.06
  C 70.52 402.11 74.36 393.60 67.55 387.18
  Q 65.31 385.06 59.69 383.17
  Q 49.04 379.58 38.33 376.16
  C 21.12 370.66 6.13 365.71 5.20 345.14
  C 4.42 327.78 16.36 316.26 33.01 312.80
  C 56.30 307.97 84.08 316.57 90.03 342.22
  C 92.25 351.79 78.46 349.52 73.49 349.50
  Q 71.21 349.49 70.09 347.52
  C 68.34 344.46 67.00 341.01 64.74 338.58
  Q 58.43 331.85 48.82 330.93
  C 41.46 330.23 25.12 331.53 25.58 342.84
  C 25.86 349.80 34.02 353.45 39.84 355.12
  Q 53.25 358.97 66.73 362.57
  C 81.36 366.47 92.99 373.73 94.34 390.08
  C 95.88 408.67 85.96 421.53 68.07 425.57
  C 42.51 431.35 6.82 426.02 0.47 394.78
  C -0.81 388.49 2.25 386.69 8.04 386.74
  C 13.45 386.79 20.17 384.83 22.21 391.68
  Z"
/>
<path fill="#278dc1" d="
  M 196.89 352.79
  Q 179.82 401.38 170.47 426.95
  C 169.55 429.46 167.38 430.16 164.71 430.22
  C 161.42 430.29 152.39 431.06 149.94 429.04
  Q 148.93 428.21 148.15 426.01
  Q 134.90 389.08 121.47 352.22
  Q 121.30 351.74 121.19 352.24
  Q 120.74 354.37 120.91 356.45
  Q 121.23 360.41 121.23 360.59
  Q 121.26 402.02 121.79 423.51
  C 122.01 432.48 111.36 430.36 105.77 430.24
  C 100.16 430.12 99.76 426.57 99.81 421.74
  Q 100.36 372.63 100.88 323.53
  C 100.92 319.73 102.79 317.24 106.65 317.25
  Q 114.97 317.26 123.33 317.24
  Q 125.49 317.24 126.55 319.12
  Q 127.57 320.93 128.62 323.45
  Q 143.67 359.65 158.78 395.83
  Q 159.26 396.96 159.73 395.83
  L 191.55 320.03
  Q 192.72 317.25 195.73 317.25
  Q 203.01 317.26 210.81 317.24
  C 215.32 317.23 217.71 318.67 217.77 323.30
  Q 218.41 373.77 218.88 424.25
  C 218.93 429.39 215.52 430.12 211.03 430.27
  C 205.17 430.48 196.86 431.66 196.96 424.10
  C 197.19 407.39 197.25 390.68 197.56 373.97
  Q 197.75 363.39 197.09 352.82
  Q 197.06 352.31 196.89 352.79
  Z"
/>
<path fill="#a3d65c" d="
  M 320.08 333.35
  C 309.10 335.91 302.40 347.80 313.49 355.80
  Q 318.78 359.63 327.38 361.78
  Q 340.70 365.11 354.00 368.48
  C 367.37 371.87 377.67 378.75 379.36 393.40
  C 381.52 412.18 369.43 423.21 351.99 426.63
  C 327.52 431.42 294.12 426.97 286.69 398.09
  C 285.70 394.21 286.36 392.19 290.73 392.23
  Q 296.32 392.27 301.78 392.25
  Q 303.66 392.25 304.14 394.07
  C 311.00 420.42 363.84 417.50 359.66 395.55
  C 358.16 387.65 347.66 383.97 340.60 382.07
  Q 325.29 377.95 310.41 372.46
  Q 290.35 365.06 291.60 345.36
  C 292.55 330.36 304.12 321.76 317.82 318.86
  C 339.32 314.32 369.46 321.08 374.78 346.44
  C 376.10 352.74 363.77 350.77 360.39 350.75
  Q 358.69 350.74 358.02 349.17
  C 351.28 333.32 335.58 329.73 320.08 333.35
  Z"
/>
<path fill="#a3d65c" d="
  M 543.90 428.02
  C 466.10 434.21 461.58 318.34 537.76 317.47
  C 559.47 317.22 579.05 327.81 588.40 347.64
  A 3.61 3.60 41.9 0 1 588.55 350.36
  C 587.44 353.59 575.99 352.53 573.15 352.26
  A 1.07 1.06 75.9 0 1 572.37 351.79
  C 562.81 337.75 552.04 330.83 534.53 332.32
  C 487.61 336.29 489.46 412.36 538.15 412.94
  C 550.55 413.09 567.77 405.75 572.06 392.45
  Q 572.92 389.78 570.11 389.77
  Q 558.71 389.75 547.32 389.72
  C 542.48 389.71 543.97 379.64 544.27 376.71
  Q 544.50 374.51 546.71 374.51
  L 590.18 374.49
  Q 594.06 374.49 593.66 378.36
  C 590.70 406.80 571.85 425.80 543.90 428.02
  Z"
/>
<path fill="#a3d65c" d="
  M 919.33 372.85
  A 55.68 55.68 0.0 0 1 863.65 428.53
  A 55.68 55.68 0.0 0 1 807.97 372.85
  A 55.68 55.68 0.0 0 1 863.65 317.17
  A 55.68 55.68 0.0 0 1 919.33 372.85
  Z
  M 862.7360 412.7526
  A 40.32 37.86 91.1 0 0 901.3630 373.1668
  A 40.32 37.86 91.1 0 0 864.2840 332.1274
  A 40.32 37.86 91.1 0 0 825.6570 371.7132
  A 40.32 37.86 91.1 0 0 862.7360 412.7526
  Z"
/>
<path fill="#a3d65c" d="
  M 965.38 376.51
  C 952.08 372.63 937.33 366.81 936.01 350.64
  C 932.41 306.44 1010.86 307.46 1018.97 346.18
  C 1020.41 353.06 1008.35 350.73 1004.65 350.74
  Q 1002.95 350.75 1002.30 349.18
  C 995.90 333.88 981.27 330.13 965.99 333.00
  C 948.88 336.21 947.12 352.59 964.14 359.22
  C 978.42 364.78 994.14 365.98 1008.28 372.20
  Q 1021.82 378.15 1023.47 392.92
  C 1026.68 421.70 1000.55 428.53 978.26 428.15
  C 957.04 427.79 935.76 419.88 930.65 397.31
  Q 930.06 394.68 931.40 393.25
  C 933.03 391.50 943.13 392.26 945.80 392.24
  Q 947.81 392.24 948.36 394.16
  C 954.35 414.83 982.76 416.65 998.24 408.26
  Q 1001.08 406.72 1002.76 403.28
  C 1008.10 392.39 998.06 386.36 989.39 383.70
  Q 977.41 380.02 965.38 376.51
  Z"
/>
<path fill="#a3d65c" d="
  M 411.61 378.49
  C 411.33 379.10 411.01 379.80 411.00 380.55
  Q 410.91 393.87 411.38 407.41
  Q 411.47 409.98 414.04 409.99
  Q 441.28 410.01 468.99 410.06
  C 472.00 410.06 472.53 411.82 472.49 414.52
  C 472.42 419.22 474.94 426.72 467.89 426.73
  Q 432.69 426.78 396.80 426.72
  Q 393.83 426.72 393.45 423.77
  C 393.05 420.71 393.43 416.64 393.45 414.40
  Q 393.86 368.20 394.48 321.94
  Q 394.51 319.95 396.43 319.44
  Q 397.39 319.18 399.56 319.17
  Q 433.26 318.97 467.80 319.02
  Q 470.48 319.02 470.54 321.71
  L 470.76 331.55
  Q 470.82 334.25 468.12 334.25
  Q 440.22 334.24 413.05 334.27
  Q 410.15 334.27 410.37 337.11
  C 410.96 344.80 410.48 352.76 410.84 360.52
  A 1.81 1.80 -1.3 0 0 412.65 362.24
  Q 437.33 362.25 462.01 362.26
  Q 465.71 362.26 465.85 365.54
  C 466.02 369.62 468.18 377.50 461.93 377.50
  Q 437.58 377.50 413.17 377.50
  A 1.73 1.72 -77.2 0 0 411.61 378.49
  Z"
/>
<path fill="#a3d65c" d="
  M 640.21 427.32
  C 618.41 423.88 604.98 407.83 605.17 385.75
  Q 605.44 353.50 605.62 321.78
  Q 605.64 319.49 607.91 319.27
  C 611.00 318.97 621.14 317.24 621.24 322.25
  Q 621.84 352.78 622.36 383.31
  Q 622.50 391.46 623.90 395.47
  C 632.15 419.19 670.47 419.29 678.16 394.68
  Q 679.43 390.61 679.60 380.62
  Q 680.11 350.99 680.46 321.31
  Q 680.48 319.29 682.50 319.29
  Q 687.49 319.29 692.50 319.10
  C 695.37 318.99 696.29 320.57 696.32 323.29
  Q 696.53 350.02 696.86 376.73
  Q 697.03 390.94 695.80 396.65
  C 690.11 423.05 664.32 431.13 640.21 427.32
  Z"
/>
<path fill="#a3d65c" d="
  M 731.48 384.39
  A 2.11 2.10 78.6 0 0 730.17 386.37
  Q 730.46 405.22 730.62 422.19
  Q 730.66 426.37 727.20 426.53
  Q 721.08 426.83 715.01 426.70
  Q 712.49 426.65 712.52 424.13
  L 713.71 321.70
  Q 713.73 319.68 715.74 319.41
  Q 717.07 319.24 719.00 319.24
  Q 750.73 319.30 762.23 318.99
  C 777.07 318.59 792.38 326.29 797.01 340.84
  C 801.36 354.50 796.93 368.74 785.07 377.06
  C 781.78 379.37 777.68 381.10 773.79 382.63
  A 1.12 1.12 0.0 0 0 773.17 384.11
  Q 773.61 385.13 774.89 386.62
  Q 789.18 403.11 803.59 419.49
  C 811.37 428.34 795.50 426.79 792.25 426.73
  C 788.36 426.65 786.62 426.06 784.06 422.90
  Q 768.68 403.92 753.25 384.89
  A 2.33 2.32 70.5 0 0 751.44 384.02
  C 747.12 384.00 735.20 382.90 731.48 384.39
  Z
  M 731.26 368.59
  Q 732.28 368.97 733.38 368.98
  Q 745.75 369.06 758.34 368.97
  Q 767.63 368.91 770.89 367.81
  C 788.40 361.90 784.73 334.55 764.93 334.33
  Q 748.62 334.15 732.56 334.30
  Q 729.70 334.33 729.72 337.19
  Q 729.82 352.10 730.10 366.93
  Q 730.12 368.16 731.26 368.59
  Z"
/>
<path fill="#8b8a8f" d="
  M 2.89 514.77
  A 1.92 1.91 4.2 0 1 1.23 512.85
  L 2.01 445.32
  Q 2.04 443.24 4.12 443.19
  Q 17.37 442.85 31.25 442.95
  C 41.24 443.02 50.26 446.10 54.54 455.44
  C 61.62 470.90 50.14 486.06 33.93 486.38
  Q 24.19 486.58 14.35 486.48
  A 1.59 1.58 0.2 0 0 12.75 488.06
  L 12.75 513.88
  A 0.74 0.73 -5.2 0 1 12.14 514.60
  Q 7.54 515.39 2.89 514.77
  Z
  M 14.02 476.30
  Q 24.22 476.72 34.17 476.33
  C 46.44 475.84 50.70 459.61 39.86 454.66
  C 33.87 451.94 20.85 453.16 14.08 453.36
  A 1.65 1.65 0.0 0 0 12.48 455.02
  L 12.56 474.79
  A 1.51 1.51 0.0 0 0 14.02 476.30
  Z"
/>
<path fill="#8b8a8f" d="
  M 385.34 462.66
  L 391.47 462.79
  A 1.22 1.22 0.0 0 1 392.42 463.30
  Q 394.31 465.95 393.22 469.41
  Q 392.59 471.40 390.50 471.43
  L 385.57 471.52
  A 0.72 0.72 0.0 0 0 384.87 472.24
  L 385.35 512.43
  Q 385.38 515.06 382.75 515.00
  L 376.11 514.85
  A 1.73 1.73 0.0 0 1 374.42 513.11
  L 374.73 473.03
  A 1.49 1.49 0.0 0 0 373.28 471.53
  L 368.48 471.40
  A 0.92 0.90 79.9 0 1 367.65 470.81
  Q 366.55 467.89 367.22 464.80
  Q 367.65 462.85 369.65 462.80
  L 374.19 462.68
  A 0.58 0.57 -89.5 0 0 374.75 462.12
  L 375.08 445.19
  Q 375.13 443.02 377.30 443.06
  L 382.54 443.17
  Q 384.67 443.21 384.68 445.34
  L 384.78 462.10
  A 0.57 0.56 0.5 0 0 385.34 462.66
  Z"
/>
<path fill="#8b8a8f" d="
  M 731.15 514.92
  Q 728.91 514.91 728.93 512.67
  L 729.59 445.51
  A 2.24 2.23 80.8 0 1 731.10 443.41
  C 733.45 442.62 739.05 441.99 739.10 446.06
  Q 739.50 479.13 739.83 512.68
  Q 739.86 514.97 737.56 514.96
  L 731.15 514.92
  Z"
/>
<rect fill="#8b8a8f" x="-4.64" y="-5.92" transform="translate(894.50,449.02) rotate(-0.5)" width="9.28" height="11.84" rx="2.69"/>
<path fill="#8b8a8f" d="
  M 952.68 511.38
  Q 952.70 510.20 951.80 510.96
  C 939.13 521.74 919.93 514.54 913.82 500.70
  C 910.23 492.54 910.95 481.57 915.31 473.85
  C 922.74 460.70 941.31 457.74 952.32 468.34
  Q 953.41 469.38 953.44 467.87
  L 953.80 445.49
  Q 953.84 443.09 956.25 443.08
  L 960.91 443.06
  Q 963.20 443.05 963.23 445.34
  L 964.03 512.52
  Q 964.06 514.84 961.75 514.92
  C 958.66 515.03 952.62 516.38 952.68 511.38
  Z
  M 939.6018 505.7368
  A 17.44 15.62 84.4 0 0 953.4455 486.8558
  A 17.44 15.62 84.4 0 0 936.1982 471.0232
  A 17.44 15.62 84.4 0 0 922.3545 489.9042
  A 17.44 15.62 84.4 0 0 939.6018 505.7368
  Z"
/>
<path fill="#8b8a8f" d="
  M 109.82 491.74
  C 110.01 503.64 122.99 508.90 132.66 503.78
  C 134.92 502.58 136.56 500.42 138.46 498.55
  A 1.23 1.20 23.0 0 1 139.33 498.21
  L 147.06 498.35
  Q 149.76 498.40 148.65 500.85
  C 142.99 513.42 129.42 518.80 116.19 514.56
  C 91.77 506.75 93.12 467.42 119.22 462.45
  C 137.16 459.04 149.86 470.85 151.27 488.22
  Q 151.48 490.75 148.94 490.75
  L 110.80 490.75
  A 0.98 0.98 0.0 0 0 109.82 491.74
  Z
  M 139.12 480.96
  C 133.22 468.01 115.53 467.69 111.07 481.64
  A 0.47 0.46 -80.9 0 0 111.51 482.25
  L 138.29 482.25
  A 0.91 0.91 0.0 0 0 139.12 480.96
  Z"
/>
<path fill="#8b8a8f" d="
  M 170.24 510.54
  L 170.36 533.32
  Q 170.38 536.73 166.97 536.69
  L 160.61 536.61
  A 1.58 1.58 0.0 0 1 159.04 535.01
  L 159.80 465.14
  Q 159.83 462.74 162.23 462.77
  L 167.83 462.84
  A 1.21 1.20 -19.2 0 1 168.77 463.29
  Q 170.15 464.97 169.74 467.18
  A 1.60 1.57 36.6 0 0 169.90 468.21
  C 170.21 468.82 170.74 468.97 171.26 468.48
  Q 181.83 458.53 196.06 463.48
  C 219.41 471.58 217.21 509.09 192.77 515.25
  Q 180.50 518.35 171.34 510.05
  Q 170.23 509.04 170.24 510.54
  Z
  M 184.0243 505.7766
  A 17.48 15.80 95.6 0 0 201.4546 489.9218
  A 17.48 15.80 95.6 0 0 187.4357 470.9834
  A 17.48 15.80 95.6 0 0 170.0054 486.8382
  A 17.48 15.80 95.6 0 0 184.0243 505.7766
  Z"
/>
<path fill="#8b8a8f" d="
  M 258.17 514.91
  C 254.01 514.33 256.67 509.70 254.33 509.69
  A 1.43 1.41 24.9 0 0 253.43 510.01
  Q 243.17 518.43 230.50 515.22
  C 220.22 512.62 217.95 498.66 223.93 491.14
  C 229.13 484.61 239.64 483.90 247.51 483.02
  C 251.23 482.60 256.52 481.25 255.71 476.19
  C 254.90 471.09 246.10 470.77 242.18 471.46
  Q 235.71 472.61 233.65 478.31
  A 1.18 1.16 0.4 0 1 232.90 479.04
  Q 229.14 480.23 225.26 479.52
  Q 223.39 479.18 223.50 477.28
  C 223.96 469.31 233.76 463.84 240.75 462.50
  C 252.84 460.19 266.12 465.15 266.21 479.31
  Q 266.31 496.25 266.55 513.25
  A 1.31 1.30 -8.3 0 1 265.59 514.53
  Q 262.18 515.47 258.17 514.91
  Z
  M 233.40 504.31
  Q 234.83 505.55 236.71 505.70
  C 245.81 506.39 255.96 503.20 255.65 492.00
  A 1.30 1.30 0.0 0 0 254.09 490.77
  Q 246.81 492.30 239.06 493.56
  C 233.91 494.40 227.55 499.21 233.40 504.31
  Z"
/>
<path fill="#8b8a8f" d="
  M 319.33 479.45
  A 1.75 1.75 0.0 0 1 317.92 477.47
  C 320.50 459.64 353.82 455.84 359.79 473.08
  Q 360.72 475.76 360.72 482.15
  Q 360.70 497.16 361.05 512.63
  Q 361.10 515.02 358.71 514.97
  L 351.73 514.80
  A 1.44 1.44 0.0 0 1 350.34 513.56
  L 349.89 510.51
  Q 349.62 508.67 348.18 509.84
  Q 337.96 518.17 325.74 515.28
  C 321.02 514.16 316.49 510.41 315.70 505.72
  C 312.15 484.74 330.48 484.67 345.17 482.45
  C 349.64 481.78 352.72 475.98 348.04 473.20
  C 340.31 468.61 331.47 471.14 327.74 478.66
  A 1.02 1.00 -83.4 0 1 327.07 479.20
  Q 323.23 480.18 319.33 479.45
  Z
  M 328.11 504.53
  C 337.46 508.16 351.31 503.62 350.07 491.36
  A 0.73 0.73 0.0 0 0 349.22 490.72
  Q 340.88 492.12 332.95 493.86
  C 328.24 494.89 324.35 497.11 326.17 502.51
  A 3.33 3.32 1.2 0 0 328.11 504.53
  Z"
/>
<path fill="#8b8a8f" d="
  M 409.07 491.71
  C 409.21 507.39 429.06 510.13 437.46 498.41
  A 1.01 0.99 -71.2 0 1 438.29 497.99
  L 445.42 498.14
  Q 449.08 498.21 447.50 501.52
  C 437.74 521.91 407.47 520.34 399.72 499.52
  C 393.78 483.56 401.79 465.16 419.49 462.24
  C 436.91 459.36 449.57 471.89 450.41 488.75
  Q 450.51 490.75 448.50 490.75
  L 410.02 490.75
  A 0.95 0.95 0.0 0 0 409.07 491.71
  Z
  M 438.46 481.56
  C 433.37 467.39 415.38 468.15 409.98 481.55
  A 0.51 0.51 0.0 0 0 410.45 482.25
  L 437.98 482.25
  A 0.52 0.51 -10.4 0 0 438.46 481.56
  Z"
/>
<path fill="#8b8a8f" d="
  M 498.54 510.36
  Q 497.83 520.40 498.40 530.76
  Q 498.53 533.10 498.18 535.11
  A 1.91 1.90 4.8 0 1 496.30 536.69
  L 489.23 536.68
  Q 487.06 536.68 487.09 534.51
  Q 487.55 501.50 487.62 468.75
  Q 487.63 466.48 488.06 464.45
  A 2.13 2.13 0.0 0 1 490.14 462.77
  L 495.25 462.79
  Q 497.51 462.80 497.70 465.06
  L 497.95 468.24
  Q 498.09 470.02 499.30 468.71
  C 506.43 460.96 517.58 460.11 526.62 464.44
  C 546.99 474.20 543.93 506.89 523.64 514.35
  C 514.86 517.59 506.26 516.40 499.41 510.02
  Q 498.62 509.28 498.54 510.36
  Z
  M 511.9739 505.7643
  A 17.47 15.81 96.0 0 0 529.5234 490.0426
  A 17.47 15.81 96.0 0 0 515.6261 471.0157
  A 17.47 15.81 96.0 0 0 498.0766 486.7374
  A 17.47 15.81 96.0 0 0 511.9739 505.7643
  Z"
/>
<path fill="#8b8a8f" d="
  M 552.72 479.40
  A 1.61 1.60 10.8 0 1 551.47 477.56
  C 554.57 459.56 587.73 455.78 593.40 473.12
  Q 594.17 475.47 594.21 480.11
  Q 594.35 496.86 594.55 513.48
  A 1.15 1.15 0.0 0 1 593.62 514.62
  Q 589.36 515.41 585.09 514.71
  A 1.25 1.24 80.4 0 1 584.20 514.07
  Q 583.41 512.58 583.51 510.84
  A 1.02 1.00 21.8 0 0 583.14 510.00
  C 582.64 509.58 581.92 509.66 581.40 510.08
  C 570.71 518.80 547.91 519.65 548.83 500.22
  C 549.57 484.49 565.14 484.55 578.04 482.63
  Q 584.89 481.60 583.45 474.97
  A 1.39 1.34 -78.6 0 0 582.94 474.17
  C 576.45 469.22 564.93 469.67 561.65 478.43
  A 1.08 1.08 0.0 0 1 560.93 479.10
  Q 556.86 480.28 552.72 479.40
  Z
  M 567.75 493.48
  C 554.89 495.62 557.53 507.67 569.96 505.72
  C 577.98 504.46 583.83 501.22 583.78 491.88
  A 1.21 1.21 0.0 0 0 582.32 490.71
  Q 575.03 492.27 567.75 493.48
  Z"
/>
<path fill="#8b8a8f" d="
  M 647.93 479.68
  Q 645.32 479.75 645.96 477.22
  C 650.28 460.22 680.28 455.60 687.29 471.81
  Q 688.73 475.13 688.78 483.37
  Q 688.87 498.17 689.07 512.93
  A 1.82 1.82 0.0 0 1 687.54 514.75
  Q 683.48 515.40 679.42 514.62
  A 1.55 1.54 11.5 0 1 678.20 512.78
  Q 678.59 510.94 677.30 509.81
  A 0.74 0.73 46.0 0 0 676.35 509.79
  Q 665.83 518.49 653.01 515.22
  C 644.29 513.00 641.47 502.50 644.19 494.96
  C 647.86 484.77 662.63 483.51 671.94 482.85
  Q 674.45 482.67 676.37 481.03
  C 679.01 478.77 679.25 475.56 676.40 473.35
  C 672.85 470.59 664.87 470.48 661.06 472.62
  Q 657.39 474.69 655.76 478.95
  A 0.86 0.84 -79.5 0 1 654.99 479.49
  L 647.93 479.68
  Z
  M 656.01 504.37
  Q 657.33 505.48 659.05 505.65
  C 668.15 506.56 679.39 502.81 678.12 491.50
  A 0.88 0.87 -8.1 0 0 677.10 490.74
  Q 667.74 492.46 660.02 494.11
  C 654.65 495.25 651.19 500.33 656.01 504.37
  Z"
/>
<path fill="#8b8a8f" d="
  M 754.74 479.48
  A 1.72 1.71 11.1 0 1 753.38 477.47
  C 756.23 462.75 775.01 459.34 786.70 464.04
  C 793.78 466.89 795.97 473.11 796.08 480.76
  Q 796.31 496.91 796.37 513.12
  A 1.76 1.75 89.3 0 1 794.66 514.88
  L 788.09 515.02
  Q 785.22 515.09 785.59 512.24
  Q 785.80 510.64 784.60 509.77
  A 0.80 0.80 0.0 0 0 783.62 509.81
  C 774.47 517.59 755.02 520.39 750.97 504.98
  C 748.42 495.29 754.94 486.76 764.76 484.98
  Q 772.59 483.56 780.57 482.55
  Q 782.55 482.29 783.98 480.90
  C 792.76 472.28 768.59 465.07 763.62 478.32
  A 1.21 1.18 0.8 0 1 762.87 479.03
  Q 758.88 480.28 754.74 479.48
  Z
  M 762.98 504.09
  Q 765.40 505.71 767.51 505.80
  C 776.41 506.19 786.65 502.40 785.47 491.54
  A 0.97 0.97 0.0 0 0 784.31 490.70
  Q 777.53 492.16 770.76 493.28
  C 765.87 494.08 759.82 496.03 761.40 501.88
  A 3.86 3.83 9.7 0 0 762.98 504.09
  Z"
/>
<path fill="#8b8a8f" d="
  M 1008.03 509.95
  A 0.72 0.72 0.0 0 0 1006.85 509.54
  C 996.41 518.42 972.54 520.39 973.42 500.02
  C 974.10 484.28 992.27 483.93 1003.50 482.52
  C 1008.12 481.94 1010.92 475.02 1005.93 472.81
  C 998.48 469.51 989.44 470.47 986.15 478.62
  A 0.93 0.93 0.0 0 1 985.50 479.18
  Q 981.94 480.04 978.34 479.60
  Q 976.19 479.35 976.27 477.18
  C 976.33 475.71 977.39 473.12 978.35 471.80
  C 984.73 462.99 997.09 459.77 1007.26 463.17
  C 1018.01 466.76 1019.00 473.97 1019.00 484.93
  Q 1019.00 499.08 1019.34 513.25
  A 1.60 1.59 -0.9 0 1 1017.75 514.88
  L 1009.73 514.92
  A 0.86 0.85 -5.5 0 1 1008.87 514.22
  L 1008.03 509.95
  Z
  M 992.50 493.45
  C 979.57 495.64 982.16 507.58 994.73 505.69
  C 1002.63 504.51 1008.89 501.00 1008.40 491.76
  A 1.13 1.13 0.0 0 0 1007.04 490.71
  Q 999.64 492.24 992.50 493.45
  Z"
/>
<path fill="#8b8a8f" d="
  M 66.02 514.91
  Q 63.89 514.90 63.91 512.77
  L 64.30 464.88
  Q 64.32 462.84 66.35 462.84
  L 71.88 462.83
  Q 73.95 462.83 74.16 464.88
  L 74.52 468.35
  Q 74.69 470.08 75.83 468.77
  Q 81.95 461.76 91.33 461.93
  A 1.19 1.18 0.5 0 1 92.50 463.11
  L 92.51 471.50
  A 1.73 1.72 89.1 0 1 90.84 473.23
  C 80.40 473.58 74.41 475.91 74.54 487.41
  Q 74.67 499.65 74.80 512.67
  Q 74.82 514.94 72.55 514.93
  L 66.02 514.91
  Z"
/>
<path fill="#8b8a8f" d="
  M 279.79 514.79
  Q 277.68 514.47 277.70 512.34
  L 278.32 464.86
  Q 278.35 462.84 280.38 462.83
  L 285.73 462.81
  Q 287.84 462.80 288.07 464.90
  L 288.45 468.24
  Q 288.66 470.08 289.87 468.68
  Q 295.95 461.71 305.31 461.94
  A 1.20 1.20 0.0 0 1 306.48 463.14
  L 306.51 471.19
  Q 306.51 473.09 304.62 473.22
  C 293.44 473.95 288.55 475.78 288.51 488.08
  Q 288.48 498.13 288.50 508.18
  C 288.51 509.83 289.11 511.89 288.29 513.97
  A 1.06 1.05 5.0 0 1 287.50 514.63
  Q 283.69 515.36 279.79 514.79
  Z"
/>
<path fill="#8b8a8f" d="
  M 608.11 514.93
  Q 606.03 514.94 606.02 512.86
  Q 605.91 491.17 606.32 470.50
  Q 606.42 465.95 606.70 463.85
  A 0.85 0.85 0.0 0 1 607.35 463.14
  Q 611.19 462.27 615.06 463.11
  A 1.01 1.00 -89.2 0 1 615.84 463.92
  L 616.55 468.15
  A 0.76 0.75 -87.0 0 0 617.08 468.75
  C 617.27 468.81 618.01 468.58 618.17 468.41
  Q 624.07 461.84 633.13 461.93
  A 1.39 1.39 0.0 0 1 634.51 463.32
  L 634.50 471.26
  A 1.91 1.91 0.0 0 1 632.78 473.16
  C 621.09 474.33 616.40 475.74 616.54 488.81
  Q 616.67 500.37 616.81 512.77
  Q 616.84 514.90 614.71 514.91
  L 608.11 514.93
  Z"
/>
<path fill="#8b8a8f" d="
  M 850.11 514.78
  A 1.13 1.12 -7.0 0 1 849.16 514.04
  Q 840.64 490.35 832.26 466.29
  Q 831.92 465.29 831.94 464.85
  A 2.09 1.55 88.6 0 1 833.24 463.00
  Q 837.03 462.27 840.74 463.17
  A 1.22 1.22 0.0 0 1 841.59 463.94
  L 854.51 500.02
  A 0.95 0.94 -5.4 0 0 855.24 500.62
  Q 856.35 500.78 856.76 499.71
  Q 863.48 481.91 870.06 463.99
  A 1.64 1.63 5.5 0 1 871.34 462.94
  C 872.69 462.73 877.95 462.33 879.16 463.33
  A 2.11 2.11 0.0 0 1 879.80 465.68
  L 861.90 514.15
  A 0.93 0.93 0.0 0 1 861.12 514.76
  Q 855.61 515.33 850.11 514.78
  Z"
/>
<rect fill="#8b8a8f" x="-5.21" y="-26.05" transform="translate(894.53,488.94) rotate(-0.2)" width="10.42" height="52.10" rx="2.48"/>
</svg>
