<svg id="Group_198" data-name="Group 198" xmlns="http://www.w3.org/2000/svg" width="16.381" height="16.384" viewBox="0 0 16.381 16.384">
                        <path id="Path_461" data-name="Path 461" d="M-588.443,4.817a5.986,5.986,0,0,0-.381-1.988,4,4,0,0,0-.948-1.453,4.032,4.032,0,0,0-1.45-.944,6,6,0,0,0-1.988-.381C-594.086.01-594.365,0-596.589,0s-2.5.01-3.377.048a5.988,5.988,0,0,0-1.988.381,4,4,0,0,0-1.453.947,4.034,4.034,0,0,0-.944,1.45,6,6,0,0,0-.381,1.988c-.042.877-.051,1.156-.051,3.38s.01,2.5.048,3.377a5.987,5.987,0,0,0,.381,1.988,4.041,4.041,0,0,0,.947,1.453,4.032,4.032,0,0,0,1.45.944,6,6,0,0,0,1.988.381c.874.039,1.152.048,3.377.048s2.5-.009,3.377-.048a5.987,5.987,0,0,0,1.988-.381,4.191,4.191,0,0,0,2.4-2.4,6.007,6.007,0,0,0,.381-1.988c.038-.874.048-1.152.048-3.377S-588.405,5.691-588.443,4.817Zm-1.475,6.689a4.489,4.489,0,0,1-.282,1.52,2.718,2.718,0,0,1-1.556,1.556,4.508,4.508,0,0,1-1.52.282c-.864.039-1.123.048-3.31.048s-2.449-.009-3.31-.048a4.489,4.489,0,0,1-1.52-.282,2.522,2.522,0,0,1-.941-.611,2.547,2.547,0,0,1-.611-.941,4.506,4.506,0,0,1-.282-1.52c-.039-.864-.048-1.124-.048-3.31s.01-2.449.048-3.309a4.487,4.487,0,0,1,.282-1.52,2.49,2.49,0,0,1,.615-.941,2.543,2.543,0,0,1,.941-.611,4.51,4.51,0,0,1,1.52-.282c.864-.038,1.124-.048,3.309-.048s2.449.01,3.31.048a4.49,4.49,0,0,1,1.52.282,2.519,2.519,0,0,1,.941.611,2.547,2.547,0,0,1,.611.941,4.508,4.508,0,0,1,.282,1.52c.038.864.048,1.123.048,3.309S-589.88,10.642-589.919,11.507Z" transform="translate(604.783 0)" fill="#fff" />
                        <path id="Path_462" data-name="Path 462" d="M-476.293,124.281a4.21,4.21,0,0,0-4.209,4.209,4.21,4.21,0,0,0,4.209,4.209,4.21,4.21,0,0,0,4.209-4.209A4.21,4.21,0,0,0-476.293,124.281Zm0,6.939a2.731,2.731,0,0,1-2.73-2.73,2.731,2.731,0,0,1,2.73-2.73,2.731,2.731,0,0,1,2.73,2.73A2.731,2.731,0,0,1-476.293,131.22Z" transform="translate(484.487 -120.296)" fill="#fff" />
                        <path id="Path_463" data-name="Path 463" d="M-241.455,89.429a.983.983,0,0,1-.983.983.983.983,0,0,1-.983-.983.983.983,0,0,1,.983-.983A.983.983,0,0,1-241.455,89.429Z" transform="translate(255.007 -85.61)" fill="#fff" />
                    </svg>