<svg id="Group_197" data-name="Group 197" xmlns="http://www.w3.org/2000/svg" width="16.417" height="16.417" viewBox="0 0 16.417 16.417">
                        <path id="Path_457" data-name="Path 457" d="M485.5,172.815h0v-6.021c0-2.945-.634-5.214-4.077-5.214a3.575,3.575,0,0,0-3.22,1.77h-.048v-1.495H474.9v10.96h3.4v-5.427c0-1.429.271-2.811,2.04-2.811,1.744,0,1.77,1.631,1.77,2.9v5.336Z" transform="translate(-469.088 -156.398)" fill="#fff" />
                        <path id="Path_458" data-name="Path 458" d="M302.244,170.176h3.4v10.96h-3.4Z" transform="translate(-301.973 -164.72)" fill="#fff" />
                        <path id="Path_459" data-name="Path 459" d="M295.767,0a1.981,1.981,0,1,0,1.971,1.971A1.972,1.972,0,0,0,295.767,0Z" transform="translate(-293.796)" fill="#fff" />
                    </svg>