<svg xmlns="http://www.w3.org/2000/svg" width="16.418" height="16.497" viewBox="0 0 16.418 16.497">
                        <path id="Path_460" data-name="Path 460" d="M1181.953,1.038a8.176,8.176,0,0,0-12.866,9.863l-1.16,4.236L1172.26,14a8.166,8.166,0,0,0,3.906.995h0a8.178,8.178,0,0,0,5.782-13.957Zm-5.782,12.577h0a6.787,6.787,0,0,1-3.458-.947l-.248-.147-2.572.675.686-2.507-.162-.257a6.794,6.794,0,1,1,5.756,3.184Zm3.727-5.089c-.2-.1-1.208-.6-1.4-.665s-.323-.1-.459.1-.528.665-.647.8-.238.153-.443.051A5.579,5.579,0,0,1,1175.31,7.8a6.167,6.167,0,0,1-1.136-1.415c-.119-.2,0-.3.09-.417a5.787,5.787,0,0,0,.511-.7.376.376,0,0,0-.017-.358c-.051-.1-.459-1.108-.63-1.517s-.334-.344-.46-.351-.255-.007-.391-.007a.75.75,0,0,0-.545.256,2.291,2.291,0,0,0-.715,1.7,3.973,3.973,0,0,0,.834,2.113,9.1,9.1,0,0,0,3.489,3.084,11.71,11.71,0,0,0,1.164.43,2.8,2.8,0,0,0,1.287.081,2.1,2.1,0,0,0,1.379-.971,1.7,1.7,0,0,0,.119-.971C1180.237,8.68,1180.1,8.629,1179.9,8.527Z" transform="translate(-1167.927 1.359)" fill="#fff" fill-rule="evenodd" />
                    </svg>